<svg width="186" height="65" viewBox="0 0 186 65" fill="none" xmlns="http://www.w3.org/2000/svg">
<g clip-path="url(#clip0)">
<path fill-rule="evenodd" clip-rule="evenodd" d="M153.49 2.55996C147.41 0.0499604 139.9 1.82996 137.1 8.09996C135.1 12.49 137.6 17.18 141.43 19.65C146.58 22.98 154.12 28.14 154.94 31.75C155.59 34.6 155.12 37.6 153.04 39.56C152.164 40.5946 151.09 41.4435 149.881 42.0566C148.672 42.6697 147.352 43.0347 146 43.13C144.009 43.2965 142.005 43.148 140.06 42.69C138.786 42.1608 137.564 41.5147 136.41 40.76H136.34C136.34 42.93 136.34 45.76 136.34 48.16L136.67 47.88C137.239 47.4168 137.938 47.1408 138.67 47.09C140.5 46.98 142.33 47.51 144.15 47.51C148.15 47.63 153.21 46.21 155.07 44.56C156.857 43.2472 158.312 41.535 159.32 39.56C160.111 37.5801 160.495 35.4614 160.45 33.33C160.32 26.14 151.72 20.33 145.08 16.12C142.89 14.73 140.6 12.43 141.66 9.68996C142.201 8.40221 143.131 7.3157 144.319 6.58237C145.508 5.84904 146.896 5.50556 148.29 5.59996C150.168 5.69709 151.986 6.2906 153.56 7.31996C154.684 8.02398 155.696 8.89379 156.56 9.89996L157.12 10.57V1.73996L156.87 2.02996C156.653 2.2856 156.412 2.51999 156.15 2.72996C155.35 3.32996 154.32 2.89996 153.49 2.55996Z" fill="#F8F8F9"/>
<path fill-rule="evenodd" clip-rule="evenodd" d="M184.44 8.51V2H159.34V8.51L159.49 8.3C159.67 8.04 159.86 7.73 160.09 7.42C160.356 7.12227 160.689 6.89052 161.06 6.74302C161.431 6.59551 161.832 6.53628 162.23 6.57H169V44.63C169 45.42 168.28 46.18 167.69 46.93L167.19 47.52H176.65L176.14 46.91C175.55 46.16 174.83 45.43 174.83 44.63V6.57H181.58C181.978 6.53628 182.379 6.59551 182.75 6.74302C183.121 6.89052 183.453 7.12227 183.72 7.42C183.95 7.73 184.14 8.04 184.32 8.3C184.38 8.38 184.42 8.45 184.47 8.51H184.44Z" fill="#F8F8F9"/>
<path fill-rule="evenodd" clip-rule="evenodd" d="M115.88 6.56005H130.25C131.54 6.56005 133.11 6.48005 133.84 7.69005L134.16 8.24005L134.41 8.67005L134.62 9.05005V2.00005H98.85L99.45 2.70005C99.8373 3.14686 100.087 3.69631 100.169 4.28196C100.25 4.8676 100.16 5.46436 99.91 6.00005L87 36.4301C82.07 25.8901 77.47 15.6401 72.71 5.00005C72.27 4.00005 72.14 3.24005 73.06 2.53005L73.85 1.93005H64.62L65.18 2.27005C66.0646 2.82556 66.794 3.59622 67.3 4.51005C67.7035 5.22501 68.0577 5.96675 68.36 6.73005L87.51 48.4901C90.84 40.6001 94.28 32.8501 97.61 24.9201L104.75 8.27005L105.19 7.20005C105.74 5.88005 106.47 4.13005 107.35 3.50005C107.857 3.15295 108.413 2.88332 109 2.70005C109.13 2.70005 109.57 3.28005 109.79 3.64005C110.034 4.2769 110.129 4.96078 110.07 5.64005V43.2201C110.067 44.1525 109.738 45.0544 109.14 45.7701C108.57 46.4701 107.91 47.2201 107.64 47.5201H134.64V40.5201C134.339 41.2206 133.923 41.8661 133.41 42.4301C132.619 42.8504 131.72 43.0212 130.83 42.9201H115.87V27.1001H127.09C127.641 27.1665 128.157 27.4084 128.56 27.7901L129.43 28.6401V20.6401L128.85 21.3501C128.697 21.5596 128.502 21.736 128.279 21.8683C128.055 22.0007 127.807 22.0863 127.55 22.1201H115.87L115.88 6.56005Z" fill="#F8F8F9"/>
<path fill-rule="evenodd" clip-rule="evenodd" d="M88.57 64C87.9764 63.7924 87.4391 63.4501 87 63L58.78 27.43L59 27.34C60.3705 26.6078 61.6466 25.7112 62.8 24.67C68.16 20.18 69.8 12.15 65.16 6.58C63.804 4.98199 62.1324 3.68146 60.25 2.76C57.1072 1.30071 53.5916 0.843367 50.18 1.45C49.06 1.61 47.96 1.85 46.84 2.04C45.3323 2.34291 43.7852 2.39696 42.26 2.2C41.58 2.1 40.91 1.95 40.26 1.86L38.56 1.55C39.56 2.32 40.73 3.55 40.73 4.88L41 37.76L23.2 0L5 41.85C4.13 43.85 3.12 46.17 1.13 47.01L0 47.49H10.9C10.3078 47.1188 9.81658 46.6069 9.47 46C8.97 45 9.47 43.74 9.92 42.7L13.17 35.03H34.42L36.35 39.47L37.7 42.67C38.13 43.67 38.7 44.97 38.16 45.97C37.8134 46.5769 37.3222 47.0888 36.73 47.46H47.78C46.7752 46.4913 46.1931 45.1653 46.16 43.77V7.57C46.16 6.83 46.05 5.57 47.1 5.31C49.5522 4.85329 52.0634 4.80935 54.53 5.18C56.1385 5.41345 57.6363 6.13614 58.82 7.25C60.0156 8.28793 60.9798 9.56554 61.65 11C62.0953 12.218 62.3582 13.4951 62.43 14.79C62.3906 16.5777 61.8312 18.3152 60.82 19.79C59.6995 21.6898 58.0534 23.2249 56.08 24.21C54.6928 24.7811 53.257 25.2263 51.79 25.54L82.29 64.54H88.72L88.57 64ZM14.82 30.44L23.2 11.07L32 30.44H14.82Z" fill="#F8F8F9"/>
<path d="M181.54 17.91H180.77V14.31H182.12C183.05 14.31 183.6 14.57 183.6 15.4C183.613 15.5206 183.6 15.6427 183.562 15.7578C183.523 15.873 183.461 15.9787 183.379 16.0677C183.296 16.1568 183.196 16.2271 183.084 16.2741C182.972 16.3211 182.851 16.3435 182.73 16.34L183.66 17.91H182.74L181.91 16.4H181.54V17.91ZM182.23 15.79C182.58 15.79 182.78 15.72 182.78 15.32C182.78 14.92 182.38 14.92 182.09 14.92H181.54V15.79H182.23ZM182.1 19.46C181.654 19.4782 181.21 19.4041 180.794 19.2424C180.378 19.0808 180 18.835 179.684 18.5205C179.367 18.206 179.119 17.8296 178.955 17.4148C178.791 17 178.714 16.5558 178.73 16.11C178.73 15.2162 179.085 14.359 179.717 13.727C180.349 13.095 181.206 12.74 182.1 12.74C182.994 12.74 183.851 13.095 184.483 13.727C185.115 14.359 185.47 15.2162 185.47 16.11C185.486 16.5558 185.409 17 185.245 17.4148C185.081 17.8296 184.833 18.206 184.516 18.5205C184.2 18.835 183.822 19.0808 183.406 19.2424C182.99 19.4041 182.546 19.4782 182.1 19.46ZM182.1 13.55C181.77 13.5494 181.444 13.6163 181.142 13.7467C180.839 13.8771 180.566 14.0681 180.341 14.308C180.115 14.548 179.94 14.8317 179.829 15.1416C179.717 15.4515 179.669 15.7811 179.69 16.11C179.67 16.4393 179.717 16.7694 179.828 17.0799C179.94 17.3903 180.114 17.6747 180.34 17.9154C180.566 18.1561 180.838 18.3481 181.141 18.4796C181.444 18.6111 181.77 18.6793 182.1 18.68C182.429 18.6751 182.754 18.6037 183.055 18.47C183.356 18.3364 183.626 18.1432 183.851 17.9021C184.075 17.6611 184.248 17.3772 184.36 17.0675C184.471 16.7578 184.519 16.4287 184.5 16.1C184.518 15.7731 184.469 15.446 184.356 15.1386C184.244 14.8312 184.07 14.5497 183.846 14.3114C183.621 14.073 183.351 13.8826 183.051 13.7517C182.751 13.6208 182.427 13.5522 182.1 13.55Z" fill="#F8F8F9"/>
</g>
<defs>
<clipPath id="clip0">
<rect width="185.47" height="64.6" fill="white"/>
</clipPath>
</defs>
</svg>
