<svg width="406" height="202" viewBox="0 0 406 202" fill="none"
  xmlns="http://www.w3.org/2000/svg">
  <g opacity="0.22">
    <g clip-path="url(#clip0)">
      <path d="M207.171 251.763L323.562 50.7343" stroke="#E4E4E8" stroke-miterlimit="10"/>
      <path d="M338.317 76.1827L381.849 151.569" stroke="#E4E4E8" stroke-miterlimit="10"/>
      <path d="M294.693 151.706L308.898 176.834" stroke="#E4E4E8" stroke-miterlimit="10"/>
      <path d="M323.607 202.146L338.225 227.548" stroke="#E4E4E8" stroke-miterlimit="10"/>
      <path d="M337.95 176.834H171.612" stroke="#E4E4E8" stroke-miterlimit="10"/>
      <path d="M338.042 125.8L396.421 227.091" stroke="#E4E4E8" stroke-miterlimit="10"/>
      <path d="M367.552 75.8629L381.757 100.992" stroke="#E4E4E8" stroke-miterlimit="10"/>
      <path d="M280.03 176.834L294.693 202.42H323.607" stroke="#E4E4E8" stroke-miterlimit="10"/>
      <path d="M250.794 126.577L221.834 126.623" stroke="#E4E4E8" stroke-miterlimit="10"/>
      <path d="M236.589 201.963L251.161 227.548" stroke="#E4E4E8" stroke-miterlimit="10"/>
      <path d="M265.366 302.934L381.757 100.991H498.698" stroke="#E4E4E8" stroke-miterlimit="10"/>
      <path d="M207.171 100.991L294.235 252.677" stroke="#E4E4E8" stroke-miterlimit="10"/>
      <path d="M249.786 275.978L207.171 201.963" stroke="#E4E4E8" stroke-miterlimit="10"/>
      <path d="M450.034 370.553L294.693 101.448H352.797L338.042 126.577L309.311 126.623L294.693 151.706H265.366L251.161 127.034L279.984 75.8629L454.387 75.7715" stroke="#E4E4E8" stroke-miterlimit="10"/>
      <path d="M221.834 126.623L207.171 151.706" stroke="#E4E4E8" stroke-miterlimit="10"/>
      <path d="M178.256 202.009L309.356 429.491" stroke="#E4E4E8" stroke-miterlimit="10"/>
      <path d="M455.074 25.6057L367.14 177.063H396.558L410.626 153.076" stroke="#E4E4E8" stroke-miterlimit="10"/>
      <path d="M454.845 126.577L396.375 126.623L527.933 354.105" stroke="#E4E4E8" stroke-miterlimit="10"/>
      <path d="M440.182 202.328H411.13L338.225 328.611" stroke="#E4E4E8" stroke-miterlimit="10"/>
      <path d="M425.702 227.548L396.558 177.062" stroke="#E4E4E8" stroke-miterlimit="10"/>
      <path d="M265.366 0.0202614L381.757 -201.922" stroke="#E4E4E8" stroke-miterlimit="10"/>
      <path d="M192.507 -25.1084L251.161 75.8629" stroke="#E4E4E8" stroke-miterlimit="10"/>
      <path d="M177.706 0.203003L221.376 75.8629" stroke="#E4E4E8" stroke-miterlimit="10"/>
      <path d="M469.738 101.448L294.693 -201.465" stroke="#E4E4E8" stroke-miterlimit="10"/>
      <path d="M265.504 50.5973L280.03 75.8629" stroke="#E4E4E8" stroke-miterlimit="10"/>
      <path d="M221.834 -25.1084L251.069 25.56" stroke="#E4E4E8" stroke-miterlimit="10"/>
      <path d="M411.13 -100.586L338.225 25.697L352.889 50.7343" stroke="#E4E4E8" stroke-miterlimit="10"/>
      <path d="M382.032 101.22L425.564 25.423L250.932 25.6057L207.171 100.992" stroke="#E4E4E8" stroke-miterlimit="10"/>
      <path d="M309.265 -25.1084L323.882 0.0201935L207.125 0.431386" stroke="#E4E4E8" stroke-miterlimit="10"/>
      <path d="M352.797 -50.0085L294.464 51.0084" stroke="#E4E4E8" stroke-miterlimit="10"/>
      <path d="M338.133 -25.1084L352.797 0.477075L381.895 0.202942L396.512 -25.1084H425.564L454.891 25.697" stroke="#E4E4E8" stroke-miterlimit="10"/>
      <path d="M265.366 50.6886L381.895 50.9628L396.375 25.9256L381.895 0.203003" stroke="#E4E4E8" stroke-miterlimit="10"/>
      <path d="M294.601 0.385742L236.497 100.991" stroke="#E4E4E8" stroke-miterlimit="10"/>
      <path d="M381.895 50.9628L396.375 75.8629" stroke="#E4E4E8" stroke-miterlimit="10"/>
      <path d="M-26.0697 352.734L90.3214 151.706" stroke="#E4E4E8" stroke-miterlimit="10"/>
      <path d="M105.076 177.154L148.608 252.54" stroke="#E4E4E8" stroke-miterlimit="10"/>
      <path d="M134.312 176.834L148.517 201.963" stroke="#E4E4E8" stroke-miterlimit="10"/>
      <path d="M45.8728 227.091L32.2175 201.963H-25.8406" stroke="#E4E4E8" stroke-miterlimit="10"/>
      <path d="M32.1258 403.905L148.517 201.963" stroke="#E4E4E8" stroke-miterlimit="10"/>
      <path d="M-26.0697 201.963L60.9945 353.648" stroke="#E4E4E8" stroke-miterlimit="10"/>
      <path d="M17.9206 228.005L46.7434 176.834L221.147 176.743" stroke="#E4E4E8" stroke-miterlimit="10"/>
      <path d="M216.794 471.524L61.4527 202.42H119.557L104.801 227.548" stroke="#E4E4E8" stroke-miterlimit="10"/>
      <path d="M163.318 278.034L221.376 176.834" stroke="#E4E4E8" stroke-miterlimit="10"/>
      <path d="M192.507 176.834L133.899 278.034" stroke="#E4E4E8" stroke-miterlimit="10"/>
      <path d="M-26.0697 49.8205L90.3214 -151.208" stroke="#E4E4E8" stroke-miterlimit="10"/>
      <path d="M90.3671 0.203003L104.985 25.6057H134.174" stroke="#E4E4E8" stroke-miterlimit="10"/>
      <path d="M149.204 50.7343H90.3213L75.7495 25.3315" stroke="#E4E4E8" stroke-miterlimit="10"/>
      <path d="M104.801 -76.1423L163.18 25.1487" stroke="#E4E4E8" stroke-miterlimit="10"/>
      <path d="M46.7892 -25.1084L61.4527 0.477077H90.3671" stroke="#E4E4E8" stroke-miterlimit="10"/>
      <path d="M3.34882 0.0202637L17.9206 25.6057" stroke="#E4E4E8" stroke-miterlimit="10"/>
      <path d="M32.1258 100.991L148.517 -100.951" stroke="#E4E4E8" stroke-miterlimit="10"/>
      <path d="M-26.0697 -100.951L60.9945 50.7343" stroke="#E4E4E8" stroke-miterlimit="10"/>
      <path d="M17.9206 76.3198L-26.0697 0.0202637H-84.4943" stroke="#E4E4E8" stroke-miterlimit="10"/>
      <path d="M-40.7331 75.8629L17.9206 176.834" stroke="#E4E4E8" stroke-miterlimit="10"/>
      <path d="M17.6915 25.6056H46.7893L61.2694 0.477051" stroke="#E4E4E8" stroke-miterlimit="10"/>
      <path d="M221.376 176.834L61.4527 -100.494" stroke="#E4E4E8" stroke-miterlimit="10"/>
      <path d="M104.985 25.6057L76.0245 75.8629H-69.6476" stroke="#E4E4E8" stroke-miterlimit="10"/>
      <path d="M17.9206 25.6057L3.02805 50.7343H61.2236" stroke="#E4E4E8" stroke-miterlimit="10"/>
      <path d="M32.2633 151.569L46.7893 176.834" stroke="#E4E4E8" stroke-miterlimit="10"/>
      <path d="M-54.9842 0.065918L17.829 126.531" stroke="#E4E4E8" stroke-miterlimit="10"/>
      <path d="M177.89 0.385742L104.985 126.668L119.648 151.706" stroke="#E4E4E8" stroke-miterlimit="10"/>
      <path d="M236.131 0.38577L221.559 25.6514L192.461 25.6057L163.318 -24.8799" stroke="#E4E4E8" stroke-miterlimit="10"/>
      <path d="M192.461 25.6057L177.798 50.7343" stroke="#E4E4E8" stroke-miterlimit="10"/>
      <path d="M206.941 101.448H178.027" stroke="#E4E4E8" stroke-miterlimit="10"/>
      <path d="M221.651 76.1827L254.094 132.425" stroke="#E4E4E8" stroke-miterlimit="10"/>
      <path d="M221.651 126.668H250.749" stroke="#E4E4E8" stroke-miterlimit="10"/>
      <path d="M148.792 202.191L192.324 126.394L17.6915 126.577L-11.4979 177.063" stroke="#E4E4E8" stroke-miterlimit="10"/>
      <path d="M76.0245 75.8629L90.6421 100.992L-26.1155 101.403" stroke="#E4E4E8" stroke-miterlimit="10"/>
      <path d="M119.557 50.9628L61.2236 151.98" stroke="#E4E4E8" stroke-miterlimit="10"/>
      <path d="M104.893 75.8628L119.557 101.448L148.654 101.174L163.272 75.8628L177.844 50.7343L206.712 101.448" stroke="#E4E4E8" stroke-miterlimit="10"/>
      <path d="M32.1258 151.66L148.654 151.934L163.134 126.897L148.654 101.174" stroke="#E4E4E8" stroke-miterlimit="10"/>
      <path d="M61.3611 101.357L3.25717 201.963" stroke="#E4E4E8" stroke-miterlimit="10"/>
      <path d="M148.654 151.934L163.134 176.834" stroke="#E4E4E8" stroke-miterlimit="10"/>
    </g>
  </g>
  <defs>
    <clipPath id="clip0">
      <path d="M0 16C0 7.16344 7.16344 0 16 0H404C405.105 0 406 0.895431 406 2V188C406 196.837 398.837 204 390 204H1.99999C0.895421 204 0 203.105 0 202V16Z" fill="white"/>
    </clipPath>
  </defs>
</svg>
