<?xml version="1.0" encoding="utf-8"?>
<!-- Generator: Adobe Illustrator 24.0.3, SVG Export Plug-In . SVG Version: 6.00 Build 0)  -->
<svg version="1.1" id="Layer_1" xmlns="http://www.w3.org/2000/svg" xmlns:xlink="http://www.w3.org/1999/xlink" x="0px" y="0px"
	 viewBox="0 0 197 66" style="enable-background:new 0 0 197 66;" xml:space="preserve">
<style type="text/css">
	.st0{fill:#A6A6A6;}
	.st1{fill:#FFFFFF;}
</style>
<path class="st0" d="M181.3,0H15.7c-0.6,0-1.2,0-1.8,0c-0.5,0-1,0-1.5,0c-1.1,0-2.2,0.1-3.3,0.3C8,0.5,6.9,0.8,6,1.4
	C5,1.8,4.1,2.5,3.3,3.3C2.5,4.1,1.8,5,1.3,6c-0.5,1-0.8,2-1,3.1C0.1,10.2,0,11.3,0,12.4c0,0.5,0,1,0,1.5v38.1c0,0.5,0,1,0,1.5
	c0,1.1,0.1,2.2,0.3,3.3C0.5,58,0.9,59,1.3,60c0.5,1,1.2,1.9,1.9,2.7C4.1,63.5,5,64.1,6,64.6c1,0.5,2,0.9,3.1,1
	c1.1,0.2,2.2,0.3,3.3,0.3c0.5,0,1,0,1.5,0c0.6,0,1.2,0,1.8,0h165.6c0.6,0,1.2,0,1.8,0c0.5,0,1,0,1.5,0c1.1,0,2.2-0.1,3.3-0.3
	c1.1-0.2,2.2-0.5,3.1-1c1-0.5,1.9-1.2,2.7-1.9c0.8-0.8,1.4-1.7,1.9-2.7c0.5-1,0.8-2,1-3.1s0.3-2.2,0.3-3.3c0-0.5,0-1,0-1.5
	c0-0.6,0-1.2,0-1.8V15.7c0-0.6,0-1.2,0-1.8c0-0.5,0-1,0-1.5c0-1.1-0.1-2.2-0.3-3.3c-0.2-1.1-0.5-2.1-1-3.1c-1-2-2.6-3.6-4.6-4.6
	c-1-0.5-2-0.8-3.1-1c-1.1-0.2-2.2-0.3-3.3-0.3c-0.5,0-1,0-1.5,0C182.5,0,181.9,0,181.3,0z"/>
<path d="M13.9,64.6c-0.5,0-1,0-1.5,0c-1,0-2.1-0.1-3.1-0.3c-1-0.2-1.9-0.5-2.7-0.9c-0.9-0.4-1.6-1-2.3-1.7C3.6,61,3,60.2,2.6,59.4
	c-0.4-0.9-0.7-1.8-0.9-2.7c-0.2-1-0.3-2.1-0.3-3.1c0-0.3,0-1.5,0-1.5V13.9c0,0,0-1.1,0-1.5c0-1,0.1-2.1,0.3-3.1
	c0.2-1,0.5-1.9,0.9-2.7c0.4-0.9,1-1.6,1.7-2.3C5,3.6,5.8,3.1,6.6,2.6c0.9-0.4,1.8-0.7,2.7-0.9c1-0.2,2.1-0.3,3.1-0.3l1.5,0h169.2
	l1.5,0c1,0,2,0.1,3.1,0.3c1,0.2,1.9,0.5,2.7,0.9c1.7,0.9,3.1,2.3,4,4c0.4,0.9,0.7,1.8,0.9,2.7c0.2,1,0.3,2.1,0.3,3.1
	c0,0.5,0,1,0,1.5c0,0.6,0,1.2,0,1.8v34.5c0,0.6,0,1.2,0,1.8c0,0.5,0,1,0,1.5c0,1-0.1,2-0.3,3.1c-0.1,1-0.5,1.9-0.9,2.8
	c-0.4,0.8-1,1.6-1.7,2.3s-1.4,1.3-2.3,1.7c-0.9,0.4-1.8,0.7-2.7,0.9c-1,0.2-2,0.3-3.1,0.3c-0.5,0-1,0-1.5,0h-1.8L13.9,64.6z"/>
<path class="st1" d="M40.8,33.5c0-2.8,1.5-5.4,3.9-6.8c-1.5-2.2-4-3.5-6.6-3.6c-2.8-0.3-5.4,1.6-6.8,1.6c-1.4,0-3.6-1.6-5.9-1.6
	c-3.1,0.1-5.9,1.8-7.4,4.5c-3.2,5.5-0.8,13.6,2.2,18.1c1.5,2.2,3.3,4.6,5.6,4.5c2.3-0.1,3.1-1.5,5.9-1.5c2.7,0,3.5,1.5,5.9,1.4
	c2.5,0,4-2.2,5.5-4.4c1.1-1.6,1.9-3.3,2.5-5.1C42.7,39.5,40.8,36.7,40.8,33.5z"/>
<path class="st1" d="M36.3,20.1c1.3-1.6,2-3.7,1.8-5.8c-2,0.2-3.9,1.2-5.3,2.7c-1.3,1.5-2,3.5-1.9,5.5C33,22.7,35,21.8,36.3,20.1z"
	/>
<path class="st1" d="M69.6,44.8h-7.8L60,50.3h-3.3l7.4-20.5h3.4l7.4,20.5h-3.4L69.6,44.8z M62.7,42.2h6.2l-3-9h-0.1L62.7,42.2z"/>
<path class="st1" d="M90.8,42.9c0,4.6-2.5,7.6-6.2,7.6c-1.9,0.1-3.8-0.9-4.7-2.6h-0.1v7.4h-3.1V35.4h3v2.5h0c1-1.7,2.8-2.7,4.7-2.6
	C88.3,35.2,90.8,38.2,90.8,42.9z M87.7,42.9c0-3-1.6-5-3.9-5c-2.3,0-3.9,2-3.9,5c0,3,1.6,5,3.9,5C86.1,47.9,87.7,45.9,87.7,42.9z"/>
<path class="st1" d="M107.2,42.9c0,4.6-2.5,7.6-6.2,7.6c-1.9,0.1-3.8-0.9-4.7-2.6h-0.1v7.4h-3V35.4h3v2.5h0c1-1.7,2.8-2.7,4.7-2.6
	C104.7,35.2,107.2,38.2,107.2,42.9z M104.1,42.9c0-3-1.6-5-3.9-5c-2.3,0-3.9,2-3.9,5c0,3,1.6,5,3.9,5
	C102.5,47.9,104.1,45.9,104.1,42.9z"/>
<path class="st1" d="M118.1,44.6c0.2,2,2.2,3.4,4.9,3.4c2.6,0,4.4-1.3,4.4-3.2c0-1.6-1.1-2.5-3.8-3.2L121,41
	c-3.8-0.9-5.5-2.7-5.5-5.5c0-3.5,3.1-6,7.4-6c4.3,0,7.3,2.4,7.4,6h-3.1c-0.2-2-1.9-3.3-4.3-3.3s-4.1,1.3-4.1,3.1
	c0,1.5,1.1,2.3,3.7,3l2.3,0.6c4.2,1,5.9,2.7,5.9,5.7c0,3.8-3,6.2-7.9,6.2c-4.5,0-7.6-2.3-7.8-6.1L118.1,44.6z"/>
<path class="st1" d="M137.2,31.8v3.5h2.8v2.4h-2.8V46c0,1.3,0.6,1.9,1.8,1.9c0.3,0,0.7,0,1-0.1v2.4c-0.6,0.1-1.1,0.1-1.7,0.1
	c-3,0-4.2-1.1-4.2-4v-8.6H132v-2.4h2.2v-3.5H137.2z"/>
<path class="st1" d="M141.7,42.9c0-4.7,2.8-7.7,7.1-7.7c4.3,0,7.1,3,7.1,7.7c0,4.7-2.7,7.7-7.1,7.7
	C144.4,50.5,141.7,47.6,141.7,42.9z M152.7,42.9c0-3.2-1.5-5.1-4-5.1c-2.5,0-4,1.9-4,5.1c0,3.2,1.5,5.1,4,5.1
	C151.2,48,152.7,46.1,152.7,42.9z"/>
<path class="st1" d="M158.4,35.4h2.9v2.5h0.1c0.4-1.6,1.9-2.8,3.6-2.7c0.3,0,0.7,0,1.1,0.1v2.9c-0.4-0.1-0.9-0.2-1.4-0.2
	c-1.7-0.1-3.1,1.3-3.2,3c0,0.2,0,0.3,0,0.5v8.9h-3.1V35.4z"/>
<path class="st1" d="M180.1,45.9c-0.4,2.7-3,4.6-6.4,4.6c-4.3,0-7-2.9-7-7.6c0-4.7,2.7-7.7,6.9-7.7c4.1,0,6.7,2.8,6.7,7.4v1.1h-10.5
	v0.2c-0.2,2.1,1.4,4,3.5,4.2c0.2,0,0.3,0,0.5,0c1.5,0.1,2.9-0.7,3.4-2.1L180.1,45.9z M169.7,41.5h7.5c0.1-2-1.4-3.7-3.4-3.8
	c-0.1,0-0.2,0-0.3,0C171.4,37.7,169.8,39.4,169.7,41.5L169.7,41.5z"/>
<path class="st1" d="M62.3,14.4c2.4-0.2,4.5,1.6,4.6,4c0,0.3,0,0.6,0,0.9c0,3.2-1.7,4.9-4.6,4.9h-3.6v-9.8H62.3z M60.3,22.9h1.8
	c1.7,0.1,3.2-1.2,3.3-2.9c0-0.2,0-0.4,0-0.6c0.2-1.7-1-3.3-2.7-3.5c-0.2,0-0.4,0-0.6,0h-1.8V22.9z"/>
<path class="st1" d="M68.6,20.5c-0.2-1.9,1.2-3.6,3.2-3.8c1.9-0.2,3.6,1.2,3.8,3.2c0,0.2,0,0.4,0,0.7c0.2,1.9-1.2,3.7-3.2,3.8
	c-1.9,0.2-3.7-1.2-3.8-3.2C68.6,21,68.6,20.8,68.6,20.5z M74.1,20.5c0-1.6-0.7-2.6-2-2.6c-1.3,0-2,0.9-2,2.6c0,1.6,0.7,2.6,2,2.6
	C73.4,23.1,74.1,22.1,74.1,20.5z"/>
<path class="st1" d="M84.9,24.3h-1.5l-1.5-5.5h-0.1l-1.5,5.5h-1.5l-2-7.4h1.5l1.3,5.7h0.1l1.5-5.7h1.4l1.5,5.7h0.1l1.3-5.7H87
	L84.9,24.3z"/>
<path class="st1" d="M88.7,16.8h1.4V18h0.1c0.4-0.9,1.3-1.4,2.2-1.3c1.3-0.1,2.5,0.9,2.6,2.2c0,0.2,0,0.4,0,0.5v4.8h-1.5v-4.4
	c0-1.2-0.5-1.8-1.6-1.8c-0.9,0-1.7,0.7-1.8,1.6c0,0.1,0,0.2,0,0.3v4.3h-1.5V16.8z"/>
<path class="st1" d="M97.3,13.9h1.5v10.3h-1.5V13.9z"/>
<path class="st1" d="M100.8,20.5c-0.2-1.9,1.2-3.6,3.2-3.8c1.9-0.2,3.6,1.2,3.8,3.2c0,0.2,0,0.4,0,0.7c0.2,1.9-1.2,3.7-3.2,3.8
	c-1.9,0.2-3.7-1.2-3.8-3.2C100.8,21,100.8,20.8,100.8,20.5z M106.3,20.5c0-1.6-0.7-2.6-2-2.6c-1.3,0-2,0.9-2,2.6
	c0,1.6,0.7,2.6,2,2.6C105.5,23.1,106.3,22.1,106.3,20.5z"/>
<path class="st1" d="M109.3,22.1c0-1.3,1-2.1,2.8-2.2l2-0.1v-0.6c0-0.8-0.5-1.2-1.5-1.2c-0.8,0-1.4,0.3-1.5,0.8h-1.4
	c0.1-1.3,1.4-2.1,3-2.1c1.9,0,2.9,0.9,2.9,2.5v5.1h-1.4v-1H114c-0.5,0.8-1.3,1.2-2.2,1.2c-1.2,0.1-2.3-0.8-2.5-2
	C109.3,22.3,109.3,22.2,109.3,22.1z M114.1,21.5v-0.6l-1.8,0.1c-1,0.1-1.5,0.4-1.5,1.1c0,0.7,0.6,1.1,1.4,1.1
	C113.1,23.2,114,22.5,114.1,21.5C114.1,21.5,114.1,21.5,114.1,21.5z"/>
<path class="st1" d="M117.5,20.5c0-2.3,1.2-3.8,3.1-3.8c0.9,0,1.8,0.5,2.3,1.3h0.1v-4.1h1.5v10.3H123v-1.2h-0.1
	c-0.5,0.8-1.4,1.3-2.3,1.3C118.7,24.4,117.5,22.9,117.5,20.5z M119,20.5c0,1.6,0.7,2.5,2,2.5s2-1,2-2.5c0-1.6-0.8-2.5-2-2.5
	C119.7,18,119,19,119,20.5z"/>
<path class="st1" d="M130.4,20.5c-0.2-1.9,1.2-3.6,3.2-3.8c1.9-0.2,3.6,1.2,3.8,3.2c0,0.2,0,0.4,0,0.7c0.2,1.9-1.2,3.7-3.2,3.8
	c-1.9,0.2-3.7-1.2-3.8-3.2C130.4,21,130.4,20.8,130.4,20.5z M135.9,20.5c0-1.6-0.7-2.6-2-2.6c-1.3,0-2,0.9-2,2.6s0.7,2.6,2,2.6
	C135.2,23.1,135.9,22.1,135.9,20.5z"/>
<path class="st1" d="M139.4,16.8h1.4V18h0.1c0.4-0.9,1.3-1.4,2.2-1.3c1.3-0.1,2.5,0.9,2.6,2.2c0,0.2,0,0.4,0,0.5v4.8h-1.5v-4.4
	c0-1.2-0.5-1.8-1.6-1.8c-0.9,0-1.7,0.7-1.8,1.6c0,0.1,0,0.2,0,0.3v4.3h-1.5V16.8z"/>
<path class="st1" d="M154,15v1.9h1.6v1.2H154v3.8c0,0.8,0.3,1.1,1.1,1.1c0.2,0,0.4,0,0.6,0v1.2c-0.3,0-0.5,0.1-0.8,0.1
	c-1.6,0-2.3-0.6-2.3-2v-4.2h-1.2v-1.2h1.2V15H154z"/>
<path class="st1" d="M157.6,13.9h1.4V18h0.1c0.4-0.9,1.3-1.4,2.3-1.3c1.4-0.1,2.5,1,2.6,2.3c0,0.1,0,0.3,0,0.5v4.8h-1.5v-4.4
	c0-1.2-0.5-1.8-1.6-1.8c-1-0.1-1.8,0.6-1.9,1.6c0,0.1,0,0.2,0,0.3v4.3h-1.5V13.9z"/>
<path class="st1" d="M172.5,22.2c-0.4,1.4-1.8,2.3-3.2,2.1c-1.9,0-3.4-1.4-3.5-3.3c0-0.2,0-0.4,0-0.5c-0.2-1.9,1.1-3.6,2.9-3.8
	c0.2,0,0.3,0,0.5,0c2.1,0,3.3,1.4,3.3,3.7v0.5h-5.2V21c-0.1,1.1,0.7,2,1.8,2.1c0.1,0,0.1,0,0.2,0c0.7,0.1,1.4-0.3,1.8-0.9H172.5z
	 M167.3,19.8h3.7c0.1-1-0.7-1.8-1.6-1.9c-0.1,0-0.1,0-0.2,0C168.2,17.9,167.3,18.8,167.3,19.8C167.3,19.8,167.3,19.8,167.3,19.8z"/>
</svg>
