<svg width="24" height="24" viewBox="0 0 24 24" fill="none" xmlns="http://www.w3.org/2000/svg">
<path d="M13.4998 12.0775C13.4998 12.9071 12.8294 13.5775 11.9998 13.5775C11.1701 13.5775 10.4998 12.9071 10.4998 12.0775C10.4998 11.2478 11.1701 10.5775 11.9998 10.5775C12.8294 10.5775 13.4998 11.2478 13.4998 12.0775ZM17.6248 10.5775C16.7951 10.5775 16.1248 11.2478 16.1248 12.0775C16.1248 12.9071 16.7951 13.5775 17.6248 13.5775C18.4544 13.5775 19.1248 12.9071 19.1248 12.0775C19.1248 11.2478 18.4544 10.5775 17.6248 10.5775ZM6.37476 10.5775C5.54507 10.5775 4.87476 11.2478 4.87476 12.0775C4.87476 12.9071 5.54507 13.5775 6.37476 13.5775C7.20444 13.5775 7.87476 12.9071 7.87476 12.0775C7.87476 11.2478 7.20444 10.5775 6.37476 10.5775Z" fill="black"/>
</svg>
