<svg width="24" height="24" viewBox="0 0 24 24" fill="none" xmlns="http://www.w3.org/2000/svg">
<g clip-path="url(#clip0)">
<path d="M23.4373 10.8564L12.976 2.32022C12.7191 2.11301 12.399 2 12.0689 2C11.7388 2 11.4187 2.11301 11.1618 2.32022L0.704077 10.8564C0.630303 10.9165 0.583386 11.0035 0.573616 11.0981C0.563846 11.1928 0.592021 11.2875 0.651961 11.3614L1.10573 11.919C1.16561 11.9924 1.25208 12.0392 1.34632 12.0492C1.44056 12.0593 1.53493 12.0316 1.60891 11.9724L3.44465 10.4727V21.3901C3.44465 21.5807 3.52038 21.7636 3.65519 21.8984C3.79 22.0332 3.97284 22.1089 4.16349 22.1089H9.91419C10.1048 22.1089 10.2877 22.0332 10.4225 21.8984C10.5573 21.7636 10.633 21.5807 10.633 21.3901V15.6394L13.5084 15.6529V21.4072C13.5084 21.5978 13.5841 21.7807 13.7189 21.9155C13.8537 22.0503 14.0366 22.126 14.2272 22.126L19.9779 22.1112C20.1686 22.1112 20.3514 22.0354 20.4862 21.9006C20.621 21.7658 20.6968 21.583 20.6968 21.3923V10.4727L22.5325 11.9724C22.6065 12.0325 22.7012 12.0608 22.796 12.051C22.8908 12.0412 22.9778 11.9942 23.0379 11.9203L23.4917 11.3628C23.5215 11.326 23.5437 11.2837 23.557 11.2383C23.5704 11.1929 23.5747 11.1453 23.5697 11.0983C23.5646 11.0513 23.5503 11.0057 23.5276 10.9642C23.5049 10.9227 23.4742 10.886 23.4373 10.8564ZM19.2542 20.6771H19.2586L14.9456 20.6906V14.9322C14.945 14.7422 14.8694 14.56 14.7352 14.4254C14.601 14.2908 14.4191 14.2146 14.229 14.2134L9.91599 14.2013C9.8214 14.201 9.72769 14.2193 9.64021 14.2553C9.55274 14.2913 9.47323 14.3442 9.40624 14.411C9.33925 14.4778 9.2861 14.5571 9.24984 14.6445C9.21357 14.7319 9.19491 14.8255 9.19491 14.9201V20.6771H4.88232V9.29969L12.0707 3.43352L19.2591 9.29969L19.2542 20.6771Z" fill="#252528"/>
</g>
<defs>
<clipPath id="clip0">
<rect width="24" height="24" fill="white" transform="translate(-0.000244141)"/>
</clipPath>
</defs>
</svg>
