<svg width="16" height="16" viewBox="0 0 16 16" fill="none" xmlns="http://www.w3.org/2000/svg">
<path d="M13.8349 8.00021C13.8349 7.70709 13.6632 7.44361 13.3991 7.32919L11.5827 6.54101L13.3984 5.75305C13.6632 5.6384 13.8351 5.37492 13.8351 5.08203C13.8351 4.78914 13.6635 4.52565 13.3993 4.41146L8.42517 2.25365C8.1553 2.13581 7.84532 2.13535 7.57545 2.25319L2.60157 4.41123C2.33649 4.52588 2.16486 4.78937 2.16486 5.08225C2.16486 5.37514 2.33649 5.63863 2.60066 5.75282L4.41726 6.54101L2.60134 7.32896C2.33649 7.44338 2.16486 7.70709 2.16486 8.00021C2.16486 8.29287 2.33649 8.55659 2.60066 8.67078L4.41703 9.45873L2.60157 10.2465C2.33649 10.3611 2.16486 10.6246 2.16486 10.9177C2.16486 11.2104 2.33649 11.4741 2.60066 11.5883L7.57591 13.7465C7.70956 13.8049 7.85381 13.835 7.99963 13.835C8.14414 13.8345 8.28887 13.8054 8.42335 13.747L13.3979 11.5887C13.6628 11.4741 13.8346 11.2106 13.8346 10.9177C13.8346 10.6246 13.663 10.3611 13.3988 10.2467L11.5827 9.45873L13.3981 8.67101C13.6632 8.55636 13.8349 8.29287 13.8349 8.00021ZM7.98778 3.25654L7.98846 3.25699H7.98709L7.98778 3.25654ZM7.99986 3.26178L12.1974 5.08271L8.01194 6.9082L3.8039 5.08225L7.99986 3.26178ZM12.1981 10.9184L8.01194 12.7434L3.8039 10.9175L5.79167 10.055L7.57613 10.829C7.70979 10.8874 7.85403 10.9175 7.99986 10.9175C8.14436 10.917 8.2891 10.8879 8.42358 10.8295L10.208 10.0552L12.1981 10.9184ZM8.01194 9.8257L3.8039 7.99975L5.7919 7.13727L7.57613 7.91132C7.70979 7.96964 7.85403 7.99975 7.99986 7.99975C8.14436 7.9993 8.2891 7.97012 8.42358 7.91177L10.208 7.1375L12.1981 8.0009L8.01194 9.8257Z" fill="#252528"/>
</svg>
