<svg width="24" height="24" viewBox="0 0 24 24" fill="none" xmlns="http://www.w3.org/2000/svg">
<path d="M19.2185 10.6875H18.5622V8.12405C18.5622 4.49827 15.646 1.51234 12.0202 1.50004C8.39037 1.48773 5.43725 4.43675 5.43725 8.06253V10.6875H4.781C3.69409 10.6875 2.81226 11.5694 2.81226 12.6563V20.5313C2.81226 21.6182 3.69409 22.5 4.781 22.5H19.2185C20.3054 22.5 21.1872 21.6182 21.1872 20.5313V12.6563C21.1872 11.5694 20.3054 10.6875 19.2185 10.6875ZM6.74975 8.06253C6.74975 5.16683 9.10404 2.81254 11.9997 2.81254C14.8954 2.81254 17.2497 5.16683 17.2497 8.06253V10.6875H6.74975V8.06253ZM19.2185 21.1875H4.781C4.42007 21.1875 4.12475 20.8922 4.12475 20.5313V12.6563C4.12475 12.2953 4.42007 12 4.781 12H19.2185C19.5794 12 19.8747 12.2953 19.8747 12.6563V20.5313C19.8747 20.8922 19.5794 21.1875 19.2185 21.1875Z" fill="#252528"/>
</svg>
