<svg width="32" height="24" viewBox="0 0 32 24" fill="none" xmlns="http://www.w3.org/2000/svg">
<path d="M22.5827 1.50003C18.9529 1.48773 15.9997 4.43674 15.9997 8.06252V10.6875H4.8435C3.75659 10.6875 2.87476 11.5693 2.87476 12.6563V20.5312C2.87476 21.6182 3.75659 22.5 4.8435 22.5H19.281C20.3679 22.5 21.2497 21.6182 21.2497 20.5312V12.6563C21.2497 11.5693 20.3679 10.6875 19.281 10.6875H17.3122V8.11994C17.3122 5.22014 19.6378 2.82893 22.5335 2.81253C25.4415 2.79612 27.8122 5.15862 27.8122 8.06252V11.5078C27.8122 11.7785 28.0337 12 28.3044 12H28.6325C28.9032 12 29.1247 11.7785 29.1247 11.5078V8.12404C29.1247 4.49827 26.2085 1.51234 22.5827 1.50003ZM19.281 12C19.6419 12 19.9372 12.2953 19.9372 12.6563V20.5312C19.9372 20.8922 19.6419 21.1875 19.281 21.1875H4.8435C4.48257 21.1875 4.18725 20.8922 4.18725 20.5312V12.6563C4.18725 12.2953 4.48257 12 4.8435 12H19.281Z" fill="#252528"/>
</svg>
