<svg width="13" height="12" viewBox="0 0 13 12" fill="none" xmlns="http://www.w3.org/2000/svg">
<path d="M10.5117 2.52068C10.5994 2.43293 10.5994 2.29034 10.5117 2.20259L9.87518 1.56612C9.78743 1.47837 9.64484 1.47837 9.55709 1.56612L1.64328 9.47965C1.55553 9.5674 1.55553 9.70999 1.64328 9.79774L2.27974 10.4342C2.36749 10.522 2.51009 10.522 2.59784 10.4342L9.91653 3.11581L10.5117 2.52068ZM3.37746 5.10031C3.83815 5.10031 4.29884 4.92452 4.65012 4.57324C5.35296 3.8704 5.35296 2.73049 4.65012 2.02765C4.29884 1.67609 3.83815 1.50031 3.37746 1.50031C2.91678 1.50031 2.45609 1.67609 2.10453 2.02765C1.40168 2.73049 1.40168 3.8704 2.10453 4.57324C2.45609 4.92452 2.91678 5.10031 3.37746 5.10031ZM2.74128 2.66384C2.91115 2.49396 3.13699 2.40031 3.37746 2.40031C3.61793 2.40031 3.84378 2.49396 4.01393 2.66384C4.36493 3.01484 4.36465 3.58577 4.01393 3.93649C3.84406 4.10665 3.61793 4.2003 3.37746 4.2003C3.13699 4.2003 2.91115 4.10665 2.74128 3.93677C2.39028 3.58577 2.39028 3.01484 2.74128 2.66384ZM8.77746 6.9003C8.31678 6.9003 7.85609 7.07609 7.50453 7.42765C6.80168 8.13049 6.80168 9.2704 7.50453 9.97324C7.85609 10.3245 8.31678 10.5003 8.77746 10.5003C9.23815 10.5003 9.69884 10.3245 10.0501 9.97324C10.753 9.2704 10.753 8.13049 10.0501 7.42765C9.69884 7.07609 9.23815 6.9003 8.77746 6.9003ZM9.41393 9.33677C9.24406 9.50665 9.01793 9.6003 8.77746 9.6003C8.53699 9.6003 8.31115 9.50665 8.14128 9.33677C7.79028 8.98577 7.79028 8.41484 8.14128 8.06384C8.31115 7.89396 8.53728 7.8003 8.77746 7.8003C9.01793 7.8003 9.24378 7.89396 9.41393 8.06384C9.76493 8.41484 9.76465 8.98577 9.41393 9.33677Z" fill="#252528"/>
</svg>
