<svg width="13" height="12" viewBox="0 0 13 12" fill="none" xmlns="http://www.w3.org/2000/svg">
<g clip-path="url(#clip0)">
<path d="M10.9755 3.17502H9.20986V2.11565C9.20986 1.53079 8.73535 1.05627 8.15049 1.05627H4.61924C4.03437 1.05627 3.55986 1.53079 3.55986 2.11565V3.17502H1.79424C1.20937 3.17502 0.734863 3.64954 0.734863 4.2344V9.8844C0.734863 10.4693 1.20937 10.9438 1.79424 10.9438H10.9755C11.5604 10.9438 12.0349 10.4693 12.0349 9.8844V4.2344C12.0349 3.64954 11.5604 3.17502 10.9755 3.17502ZM4.61924 2.11565H8.15049V3.17502H4.61924V2.11565ZM1.79424 9.8844V4.2344H3.55986V9.8844H1.79424ZM4.61924 9.8844V4.2344H8.15049V9.8844H4.61924ZM10.9755 9.8844H9.20986V4.2344H10.9755V9.8844Z" fill="#252528"/>
</g>
<defs>
<clipPath id="clip0">
<rect width="12" height="12" fill="white" transform="translate(0.384888)"/>
</clipPath>
</defs>
</svg>
