<svg width="10" height="10" viewBox="0 0 10 10" fill="#e4e4e8"
  xmlns="http://www.w3.org/2000/svg">
  <path d="M4.36399 1.41257L4.78515 0.991412C4.96348 0.813084 5.25184 0.813084 5.42827 0.991412L9.11625 4.6775C9.29458 4.85582 9.29458 5.14419 9.11625 5.32062L5.42827 9.0086C5.24994 9.18693 4.96158 9.18693 4.78515 9.0086L4.36399 8.58744C4.18377 8.40721 4.18756 8.11316 4.37158 7.93673L6.6576 5.75885H1.20531C0.952991 5.75885 0.75 5.55586 0.75 5.30354V4.69647C0.75 4.44415 0.952991 4.24116 1.20531 4.24116H6.6576L4.37158 2.06328C4.18567 1.88685 4.18187 1.5928 4.36399 1.41257Z" />
</svg>