<svg width="16" height="16" viewBox="0 0 16 16" fill="none" xmlns="http://www.w3.org/2000/svg">
<path d="M7.36399 4.41257L7.78515 3.99141C7.96348 3.81308 8.25184 3.81308 8.42827 3.99141L12.1163 7.6775C12.2946 7.85582 12.2946 8.14419 12.1163 8.32062L8.42827 12.0086C8.24994 12.1869 7.96158 12.1869 7.78515 12.0086L7.36399 11.5874C7.18377 11.4072 7.18756 11.1132 7.37158 10.9367L9.6576 8.75885H4.20531C3.95299 8.75885 3.75 8.55586 3.75 8.30354V7.69647C3.75 7.44415 3.95299 7.24116 4.20531 7.24116H9.6576L7.37158 5.06328C7.18567 4.88685 7.18187 4.5928 7.36399 4.41257Z" fill="#3167B8"/>
</svg>
