<svg width="24" height="25" viewBox="0 0 24 25" fill="none" xmlns="http://www.w3.org/2000/svg">
<path d="M20.3956 5.0625H3.60391C2.53425 5.0625 1.66641 5.93034 1.66641 7V18.625C1.66641 19.6947 2.53425 20.5625 3.60391 20.5625H20.3956C21.4652 20.5625 22.3331 19.6947 22.3331 18.625V7C22.3331 5.93034 21.4652 5.0625 20.3956 5.0625ZM3.60391 6.35417H20.3956C20.7508 6.35417 21.0414 6.64479 21.0414 7V8.67109C20.1574 9.41784 18.894 10.4471 14.9625 13.5673C14.2803 14.1082 12.9362 15.412 11.9997 15.3958C11.0633 15.412 9.71511 14.1082 9.03699 13.5673C5.10548 10.4471 3.84206 9.41784 2.95808 8.67109V7C2.95808 6.64479 3.2487 6.35417 3.60391 6.35417ZM20.3956 19.2708H3.60391C3.2487 19.2708 2.95808 18.9802 2.95808 18.625V10.3503C3.87839 11.1051 5.33152 12.2716 8.23373 14.5764C9.0612 15.2384 10.5224 16.6956 11.9997 16.6875C13.469 16.6996 14.9181 15.2546 15.7658 14.5764C18.668 12.2716 20.1211 11.1051 21.0414 10.3503V18.625C21.0414 18.9802 20.7508 19.2708 20.3956 19.2708Z" fill="#252528"/>
</svg>
