<svg width="24" height="25" viewBox="0 0 24 25" fill="none" xmlns="http://www.w3.org/2000/svg">
<path d="M18.8279 12.8125H18.2341C18.1554 12.8125 18.0799 12.8438 18.0242 12.8995C17.9685 12.9551 17.9373 13.0306 17.9373 13.1094V20.5312C17.9373 20.6887 17.8747 20.8397 17.7634 20.9511C17.652 21.0624 17.501 21.125 17.3435 21.125H4.28101C4.12353 21.125 3.97251 21.0624 3.86116 20.9511C3.74981 20.8397 3.68726 20.6887 3.68726 20.5312V7.46875C3.68726 7.31128 3.74981 7.16026 3.86116 7.04891C3.97251 6.93756 4.12353 6.875 4.28101 6.875H11.7029C11.7816 6.875 11.8571 6.84372 11.9128 6.78805C11.9685 6.73237 11.9998 6.65686 11.9998 6.57812V5.98438C11.9998 5.90564 11.9685 5.83013 11.9128 5.77445C11.8571 5.71878 11.7816 5.6875 11.7029 5.6875H4.28101C3.80859 5.6875 3.35552 5.87517 3.02147 6.20922C2.68742 6.54327 2.49976 6.99633 2.49976 7.46875L2.49976 20.5312C2.49976 21.0037 2.68742 21.4567 3.02147 21.7908C3.35552 22.1248 3.80859 22.3125 4.28101 22.3125H17.3435C17.8159 22.3125 18.269 22.1248 18.603 21.7908C18.9371 21.4567 19.1248 21.0037 19.1248 20.5312V13.1094C19.1248 13.0306 19.0935 12.9551 19.0378 12.8995C18.9821 12.8438 18.9066 12.8125 18.8279 12.8125ZM21.0544 3.3125L16.0076 3.32512C15.8895 3.32512 15.7762 3.37203 15.6927 3.45555C15.6092 3.53906 15.5623 3.65233 15.5623 3.77043V4.14152C15.5623 4.25963 15.6092 4.37289 15.6927 4.45641C15.7762 4.53992 15.8895 4.58684 16.0076 4.58684L19.3474 4.57422L19.3734 4.60057L7.38001 16.5925C7.33849 16.6338 7.30556 16.683 7.28308 16.7371C7.2606 16.7912 7.24903 16.8493 7.24903 16.9079C7.24903 16.9665 7.2606 17.0245 7.28308 17.0787C7.30556 17.1328 7.33849 17.1819 7.38001 17.2233L7.59005 17.4334C7.63142 17.4749 7.68058 17.5078 7.73471 17.5303C7.78884 17.5528 7.84687 17.5643 7.90548 17.5643C7.96409 17.5643 8.02212 17.5528 8.07625 17.5303C8.13038 17.5078 8.17954 17.4749 8.22091 17.4334L20.2117 5.44035L20.238 5.46633L20.2254 8.80617C20.2254 8.92428 20.2723 9.03754 20.3558 9.12106C20.4394 9.20457 20.5526 9.25148 20.6707 9.25148H21.0418C21.1599 9.25148 21.2732 9.20457 21.3567 9.12106C21.4402 9.03754 21.4871 8.92428 21.4871 8.80617L21.4998 3.75781C21.4998 3.63971 21.4528 3.52644 21.3693 3.44293C21.2858 3.35942 21.1725 3.3125 21.0544 3.3125V3.3125Z" fill="#252528"/>
</svg>
