<svg width="24" height="24" viewBox="0 0 24 24" fill="none" xmlns="http://www.w3.org/2000/svg">
<path d="M21.906 19.164L2.71834 4.05455C2.66657 4.01317 2.60049 3.99405 2.53463 4.00137C2.46876 4.0087 2.4085 4.04187 2.36709 4.09361L2.05459 4.48455C2.01318 4.53628 1.994 4.60233 2.00126 4.6682C2.00853 4.73406 2.04165 4.79434 2.09334 4.8358L21.281 19.9453C21.3066 19.9658 21.3361 19.9811 21.3676 19.9903C21.3992 19.9994 21.4322 20.0023 21.4649 19.9986C21.4975 19.995 21.5291 19.985 21.5579 19.9691C21.5867 19.9533 21.612 19.9319 21.6325 19.9062L21.945 19.5153C21.9864 19.4635 22.0055 19.3974 21.9982 19.3316C21.9909 19.2657 21.9577 19.2055 21.906 19.164ZM11.9997 6.99988C13.0602 7.00104 14.0769 7.42284 14.8268 8.17274C15.5767 8.92264 15.9985 9.93939 15.9997 10.9999C15.9997 11.6755 15.8153 12.3027 15.5184 12.8615L16.3138 13.4865C16.7388 12.7527 16.9997 11.9105 16.9997 10.9999C16.9997 9.84897 16.5963 8.80271 15.9441 7.95833C17.6914 8.84044 19.1124 10.256 20.0013 11.9999C19.4701 13.0312 18.752 13.9547 17.8835 14.7237L18.6747 15.3468C19.5644 14.5256 20.3269 13.5574 20.8913 12.4559C20.9628 12.3145 21 12.1582 21 11.9998C21 11.8413 20.9628 11.6851 20.8913 11.5437C19.1966 8.23708 15.8416 5.99987 11.9997 5.99987C10.596 5.99913 9.20882 6.30222 7.93338 6.88832L9.3637 8.01333C10.0696 7.39113 10.9859 6.99988 11.9997 6.99988ZM13.9015 11.5884C13.9995 11.2898 14.0247 10.9723 13.9752 10.662C13.9257 10.3518 13.8028 10.0578 13.6168 9.80467C13.4307 9.55149 13.1869 9.34639 12.9057 9.20641C12.6244 9.06644 12.3138 8.99564 11.9997 8.9999C11.9684 8.9999 11.9406 9.0074 11.9106 9.00896C12.0319 9.33379 12.0292 9.69192 11.9031 10.0149L13.9015 11.5884ZM7.10087 10.0521C7.0359 10.3639 7.00198 10.6814 6.99962 10.9999C6.99641 11.8376 7.20455 12.6626 7.60476 13.3986C8.00498 14.1346 8.58436 14.7577 9.28928 15.2103C9.99421 15.663 10.8019 15.9305 11.6377 15.9882C12.4734 16.0458 13.3102 15.8918 14.0706 15.5403L13.1462 14.8124C12.7806 14.9228 12.4009 14.9999 12 14.9999C10.9394 14.9988 9.92264 14.577 9.17269 13.8271C8.42274 13.0772 8.00087 12.0605 7.99963 10.9999C7.99963 10.9237 8.01807 10.8524 8.02213 10.7774L7.10087 10.0521ZM11.9997 17C8.64464 17 5.57867 15.084 3.9996 11.9999C4.54429 10.9374 5.28367 10.0399 6.1343 9.2899L5.32617 8.65333C4.43617 9.47459 3.67397 10.4424 3.10959 11.544C3.03811 11.6854 3.00086 11.8416 3.00086 12.0001C3.00086 12.1585 3.03811 12.3148 3.10959 12.4562C4.80304 15.7628 8.15807 18 11.9997 18C13.4033 18.0007 14.7905 17.6976 16.0659 17.1115L15.1519 16.3928C14.1578 16.7762 13.0981 17 11.9997 17Z" fill="black"/>
</svg>
