<svg width="24" height="25" viewBox="0 0 24 25" fill="none" xmlns="http://www.w3.org/2000/svg">
<path d="M21.9996 12.813C21.9996 12.4232 21.7727 12.0732 21.4227 11.922L17.5266 10.2318L21.4211 8.54197C21.7727 8.39002 21.9996 8.04042 21.9996 7.65097C21.9996 7.26152 21.7727 6.91192 21.4227 6.76075L12.6224 2.94282C12.2279 2.76939 11.7744 2.769 11.3775 2.94204L2.57839 6.76036C2.22683 6.91231 1.99988 7.26191 1.99988 7.65136C1.99988 8.04081 2.22683 8.39041 2.57682 8.54158L6.47248 10.2322L2.578 11.922C2.22683 12.0736 1.99988 12.4232 1.99988 12.813C1.99988 13.2025 2.22683 13.5521 2.57682 13.7032L6.47209 15.3931L2.578 17.0825C2.22683 17.2348 1.99988 17.5844 1.99988 17.9743C1.99988 18.3637 2.22683 18.7133 2.57682 18.8645L11.3783 22.6832C11.5743 22.7683 11.7857 22.8123 11.9994 22.8125C12.2111 22.8125 12.4228 22.7695 12.6205 22.6832L21.4207 18.8653C21.7723 18.7133 21.9992 18.3637 21.9992 17.9743C21.9992 17.5844 21.7723 17.2344 21.4223 17.0833L17.527 15.3935L21.4211 13.704C21.7727 13.5521 21.9996 13.2025 21.9996 12.813ZM3.76665 7.65136L11.8927 4.12562L11.8939 4.12484C11.9619 4.09711 12.0365 4.09515 12.1068 4.12562L20.2329 7.65136L12.1068 11.1775C12.0361 11.2076 11.9607 11.2076 11.8927 11.1775L3.76665 7.65136ZM20.2329 17.9743L12.1068 21.5C12.0361 21.5301 11.9607 21.5301 11.8927 21.5L3.76665 17.9739L8.09316 16.0966L11.3787 17.5219C11.5747 17.607 11.7861 17.651 11.9998 17.6512C12.2115 17.6512 12.4232 17.6083 12.6208 17.5219L15.9063 16.0966L20.2329 17.9743ZM12.1068 16.3388C12.0361 16.3688 11.9607 16.3688 11.8927 16.3388L3.76665 12.8126L8.09355 10.9353L11.3787 12.3611C11.5747 12.4461 11.7861 12.4901 11.9998 12.4904C12.2115 12.4904 12.4232 12.4474 12.6208 12.3611L15.906 10.9357L20.2329 12.8134L12.1068 16.3388Z" fill="#252528"/>
</svg>
