<svg width="24" height="24" viewBox="0 0 24 24" fill="none" xmlns="http://www.w3.org/2000/svg">
<path d="M11.9998 0.5C7.23629 0.5 3.37476 4.36153 3.37476 9.125C3.37476 12.6025 4.5863 13.5737 11.1134 23.036C11.5416 23.6546 12.4578 23.6547 12.8862 23.036C19.4132 13.5737 20.6248 12.6025 20.6248 9.125C20.6248 4.36153 16.7632 0.5 11.9998 0.5ZM11.9998 21.7899C5.74236 12.7407 4.81226 12.0222 4.81226 9.125C4.81226 7.20513 5.55989 5.40022 6.91743 4.04268C8.27497 2.68514 10.0799 1.9375 11.9998 1.9375C13.9196 1.9375 15.7245 2.68514 17.0821 4.04268C18.4396 5.40022 19.1873 7.20513 19.1873 9.125C19.1873 12.022 18.2577 12.7399 11.9998 21.7899Z" fill="#252528"/>
</svg>
