<svg width="16" height="16" viewBox="0 0 16 16" fill="none" xmlns="http://www.w3.org/2000/svg">
<path d="M12.4043 2.53125C10.1826 2.53125 8.29541 4.18896 7.65088 6.47168C6.74512 5.03613 5.26562 4.09375 3.5957 4.09375H1.75V4.67969C1.75 7.80225 3.98877 10.3438 6.74023 10.3438H7.41406V13.0781C7.41406 13.293 7.58984 13.4688 7.80469 13.4688H8.19531C8.41016 13.4688 8.58594 13.293 8.58594 13.0781V8.78125H9.25977C12.0112 8.78125 14.25 6.23975 14.25 3.11719V2.53125H12.4043ZM6.74023 9.17188C4.8042 9.17188 3.19775 7.46777 2.95361 5.26562H3.59326C5.5293 5.26562 7.13574 6.96973 7.37988 9.17188H6.74023ZM9.25977 7.60938H8.62012C8.86426 5.40723 10.4707 3.70312 12.4067 3.70312H13.0464C12.8022 5.90527 11.1958 7.60938 9.25977 7.60938Z" fill="#252528"/>
</svg>
