<svg width="24" height="25" viewBox="0 0 24 25" fill="none" xmlns="http://www.w3.org/2000/svg">
<path d="M8.90601 5.40039L15.9744 12.4473C16.1763 12.6492 16.1763 12.9758 15.9744 13.1777L8.90601 20.2246C8.70405 20.4266 8.37749 20.4266 8.17554 20.2246L7.87046 19.9195C7.66851 19.7176 7.66851 19.391 7.87046 19.1891L13.5423 13.543H1.51538C1.23179 13.543 0.999756 13.3109 0.999756 13.0273V12.5977C0.999756 12.3141 1.23179 12.082 1.51538 12.082H13.5423L7.87476 6.43594C7.6728 6.23398 7.6728 5.90742 7.87476 5.70547L8.17983 5.40039C8.37749 5.19844 8.70405 5.19844 8.90601 5.40039ZM22.9998 19V6.625C22.9998 5.48633 22.0759 4.5625 20.9373 4.5625H15.2654C14.9818 4.5625 14.7498 4.79453 14.7498 5.07812V5.42188C14.7498 5.70547 14.9818 5.9375 15.2654 5.9375H20.9373C21.3154 5.9375 21.6248 6.24688 21.6248 6.625V19C21.6248 19.3781 21.3154 19.6875 20.9373 19.6875H15.2654C14.9818 19.6875 14.7498 19.9195 14.7498 20.2031V20.5469C14.7498 20.8305 14.9818 21.0625 15.2654 21.0625H20.9373C22.0759 21.0625 22.9998 20.1387 22.9998 19Z" fill="#252528"/>
</svg>
