<svg width="20" height="18" viewBox="0 0 20 18" fill="none" xmlns="http://www.w3.org/2000/svg">
<path fill-rule="evenodd" clip-rule="evenodd" d="M0 1.82812V15.2344C0 16.244 0.818467 17.0625 1.82812 17.0625H17.6719C18.6815 17.0625 19.5 16.244 19.5 15.2344V1.82812C19.5 0.818467 18.6815 0 17.6719 0H1.82812C0.818467 0 0 0.818467 0 1.82812ZM1.82812 1.21875H17.6719C18.0084 1.21875 18.2812 1.49156 18.2812 1.82812V7.92188H1.21875V1.82812C1.21875 1.49156 1.49156 1.21875 1.82812 1.21875ZM1.21875 15.2344V9.14062H9.14062H10.3594H18.2812V15.2344C18.2812 15.5709 18.0084 15.8438 17.6719 15.8438H10.3594H9.14062H1.82812C1.49156 15.8438 1.21875 15.5709 1.21875 15.2344Z" fill="#3167B8"/>
</svg>
