<svg width="13" height="12" viewBox="0 0 13 12" fill="none" xmlns="http://www.w3.org/2000/svg">
<g clip-path="url(#clip0)">
<path d="M6.46154 0.400024C3.36874 0.400024 0.861542 2.90722 0.861542 6.00002C0.861542 9.09283 3.36874 11.6 6.46154 11.6C9.55434 11.6 12.0615 9.09283 12.0615 6.00002C12.0615 2.90722 9.55434 0.400024 6.46154 0.400024ZM6.46154 10.6968C3.86583 10.6968 1.76477 8.59614 1.76477 6.00002C1.76477 3.40431 3.86542 1.30325 6.46154 1.30325C9.05725 1.30325 11.1583 3.4039 11.1583 6.00002C11.1583 8.59574 9.05766 10.6968 6.46154 10.6968ZM9.70399 4.22383C9.7613 4.46657 9.61098 4.70981 9.36823 4.76714C8.69386 4.92636 8.06219 5.06715 7.4354 5.14539C7.45073 7.6593 7.72113 8.04601 8.04438 8.87382C8.15328 9.1526 8.01559 9.4669 7.73678 9.57578C7.45814 9.68469 7.14375 9.5471 7.03482 9.26819C6.81897 8.71571 6.62636 8.29837 6.49729 7.34612H6.42584C6.29666 8.29916 6.10364 8.7169 5.88831 9.26819C5.77956 9.54659 5.46558 9.68482 5.18634 9.5758C4.90756 9.4669 4.76985 9.15262 4.87873 8.87382C5.20231 8.04542 5.47237 7.65814 5.48771 5.14539C4.86091 5.06715 4.22924 4.92638 3.55487 4.76714C3.31213 4.70983 3.16181 4.46657 3.21912 4.22383C3.27645 3.98109 3.51971 3.83081 3.76243 3.88808C6.12816 4.44663 6.79833 4.44584 9.1607 3.88808C9.40342 3.83077 9.64668 3.98107 9.70399 4.22383ZM5.5991 3.24957C5.5991 2.77325 5.98523 2.38712 6.46154 2.38712C6.93786 2.38712 7.32399 2.77325 7.32399 3.24957C7.32399 3.72588 6.93786 4.11201 6.46154 4.11201C5.98523 4.11201 5.5991 3.72586 5.5991 3.24957Z" fill="#252528"/>
</g>
<defs>
<clipPath id="clip0">
<rect width="12" height="12" fill="white" transform="translate(0.461548)"/>
</clipPath>
</defs>
</svg>
