<svg width="24" height="25" viewBox="0 0 24 25" fill="none" xmlns="http://www.w3.org/2000/svg">
<path d="M11.9998 2.8125C6.47556 2.8125 1.99976 7.28831 1.99976 12.8125C1.99976 18.3367 6.47556 22.8125 11.9998 22.8125C17.5239 22.8125 21.9998 18.3367 21.9998 12.8125C21.9998 7.28831 17.5239 2.8125 11.9998 2.8125ZM11.9998 21.5222C7.19734 21.5222 3.29008 17.6149 3.29008 12.8125C3.29008 8.01008 7.19734 4.10282 11.9998 4.10282C16.8022 4.10282 20.7094 8.01008 20.7094 12.8125C20.7094 17.6149 16.8022 21.5222 11.9998 21.5222ZM13.6248 12.5988L10.7215 11.7843C10.2336 11.6472 9.89088 11.2036 9.89088 10.7077C9.89088 10.0907 10.407 9.58669 11.0401 9.58669H12.8546C13.3062 9.58669 13.7377 9.73185 14.0885 9.99395C14.2175 10.0907 14.3949 10.0746 14.5078 9.96169L14.9635 9.49798C15.1006 9.36089 15.0844 9.13508 14.9312 9.01411C14.3425 8.54637 13.6167 8.29234 12.8506 8.29234H12.6449V6.67944C12.6449 6.50202 12.4998 6.35685 12.3223 6.35685H11.6772C11.4998 6.35685 11.3546 6.50202 11.3546 6.67944V8.29234H11.0401C9.69734 8.29234 8.60056 9.37298 8.60056 10.7036C8.60056 11.7762 9.3304 12.7278 10.3707 13.0222L13.2739 13.8367C13.7619 13.9738 14.1046 14.4173 14.1046 14.9133C14.1046 15.5302 13.5885 16.0343 12.9554 16.0343H11.1409C10.6893 16.0343 10.2578 15.8891 9.90701 15.627C9.77798 15.5302 9.60056 15.5464 9.48766 15.6593L9.03201 16.123C8.89492 16.2601 8.91105 16.4859 9.06427 16.6069C9.65298 17.0746 10.3788 17.3286 11.1449 17.3286H11.3546V18.9415C11.3546 19.119 11.4998 19.2641 11.6772 19.2641H12.3223C12.4998 19.2641 12.6449 19.119 12.6449 18.9415V17.3286H12.9594C14.3022 17.3286 15.3989 16.248 15.3989 14.9173C15.3949 13.8448 14.6691 12.8931 13.6248 12.5988Z" fill="black"/>
</svg>
