<svg width="24" height="25" viewBox="0 0 24 25" fill="none" xmlns="http://www.w3.org/2000/svg">
<path d="M12.2689 20.653L12.5214 20.4005C12.6888 20.2332 12.6888 19.9618 12.5214 19.7944L6.14663 13.4196H19.5712C19.8079 13.4196 19.9998 13.2277 19.9998 12.991V12.6339C19.9998 12.3972 19.8079 12.2053 19.5712 12.2053H6.14663L12.5214 5.83053C12.6888 5.66317 12.6888 5.39182 12.5214 5.22442L12.2689 4.97192C12.1015 4.80457 11.8302 4.80457 11.6628 4.97192L4.12527 12.5094C3.95792 12.6768 3.95792 12.9481 4.12527 13.1155L11.6628 20.653C11.8302 20.8204 12.1015 20.8204 12.2689 20.653Z" fill="#252528"/>
</svg>
