<svg width="24" height="24" viewBox="0 0 24 24" fill="none" xmlns="http://www.w3.org/2000/svg">
<path d="M11.9998 20.75C11.31 20.75 10.7498 20.1883 10.7498 19.4988H9.4998C9.4998 20.8781 10.6217 22 11.9998 22C13.3779 22 14.4998 20.8781 14.4998 19.4988H13.2498C13.2498 20.1883 12.6896 20.75 11.9998 20.75ZM20.1787 15.0785C19.0865 14.0387 18.2514 12.9504 18.2514 9.26172C18.2514 6.15273 15.7752 3.61719 12.6248 3.31055V2.625C12.6248 2.27969 12.3451 2 11.9998 2C11.6545 2 11.3748 2.27969 11.3748 2.625V3.31094C8.22441 3.61758 5.74823 6.15273 5.74823 9.26172C5.74823 12.95 4.91268 14.0387 3.82049 15.0785C3.27479 15.598 3.10252 16.3836 3.38104 17.0797C3.66542 17.7906 4.34979 18.25 5.12479 18.25H18.8748C19.6498 18.25 20.3342 17.7902 20.6186 17.0793C20.8971 16.3832 20.7244 15.598 20.1787 15.0785ZM18.8748 17H5.12479C4.56893 17 4.2912 16.3566 4.6826 15.984C6.04433 14.6875 6.99823 13.2363 6.99823 9.26211C6.99823 6.63008 9.23535 4.5 11.9998 4.5C14.7639 4.5 17.0014 6.62969 17.0014 9.26172C17.0014 13.2207 17.9471 14.6797 19.317 15.9836C19.71 16.3582 19.4283 17 18.8748 17Z" fill="black"/>
</svg>
