<svg width="24" height="25" viewBox="0 0 24 25" fill="none" xmlns="http://www.w3.org/2000/svg">
<path d="M19.4998 2.8125H4.49976C3.12085 2.8125 1.99976 3.93359 1.99976 5.3125V16.5625C1.99976 17.9414 3.12085 19.0625 4.49976 19.0625H8.24976V22.3438C8.24976 22.6211 8.47632 22.8125 8.71851 22.8125C8.81226 22.8125 8.90991 22.7852 8.99585 22.7188L13.8748 19.0625H19.4998C20.8787 19.0625 21.9998 17.9414 21.9998 16.5625V5.3125C21.9998 3.93359 20.8787 2.8125 19.4998 2.8125ZM20.7498 16.5625C20.7498 17.25 20.1873 17.8125 19.4998 17.8125H13.4568L13.1248 18.0625L9.49976 20.7812V17.8125H4.49976C3.81226 17.8125 3.24976 17.25 3.24976 16.5625V5.3125C3.24976 4.625 3.81226 4.0625 4.49976 4.0625H19.4998C20.1873 4.0625 20.7498 4.625 20.7498 5.3125V16.5625Z" fill="#252528"/>
</svg>
