<svg width="24" height="25" viewBox="0 0 24 25" fill="none" xmlns="http://www.w3.org/2000/svg">
<path d="M21.1069 4.31251H2.89263C1.88705 4.31251 1.0712 5.12836 1.0712 6.13394V19.4911C1.0712 20.4967 1.88705 21.3125 2.89263 21.3125H21.1069C22.1125 21.3125 22.9283 20.4967 22.9283 19.4911V6.13394C22.9283 5.12836 22.1125 4.31251 21.1069 4.31251ZM21.7141 19.4911C21.7141 19.825 21.4408 20.0982 21.1069 20.0982H2.89263C2.5587 20.0982 2.28548 19.825 2.28548 19.4911V6.13394C2.28548 5.80001 2.5587 5.52679 2.89263 5.52679H21.1069C21.4408 5.52679 21.7141 5.80001 21.7141 6.13394V19.4911ZM8.35691 16.9107V17.2143C8.35691 17.4647 8.152 17.6697 7.90155 17.6697H5.16941C4.91897 17.6697 4.71405 17.4647 4.71405 17.2143V16.9107C4.71405 16.6603 4.91897 16.4554 5.16941 16.4554H7.90155C8.152 16.4554 8.35691 16.6603 8.35691 16.9107ZM15.6426 16.9107V17.2143C15.6426 17.4647 15.4377 17.6697 15.1873 17.6697H10.0266C9.77611 17.6697 9.5712 17.4647 9.5712 17.2143V16.9107C9.5712 16.6603 9.77611 16.4554 10.0266 16.4554H15.1873C15.4377 16.4554 15.6426 16.6603 15.6426 16.9107Z" fill="#252528"/>
</svg>
