<svg width="24" height="25" viewBox="0 0 24 25" fill="none" xmlns="http://www.w3.org/2000/svg">
<path d="M11.3193 9.14567H12.6753C12.8051 9.14567 12.9083 9.25262 12.9044 9.38248L12.618 16.8689C12.6141 16.9911 12.511 17.0904 12.3888 17.0904H11.6058C11.4835 17.0904 11.3804 16.995 11.3766 16.8689L11.0901 9.38248C11.0863 9.25262 11.1894 9.14567 11.3193 9.14567ZM11.9992 17.8544C11.4071 17.8544 10.9297 18.3318 10.9297 18.9239C10.9297 19.5159 11.4071 19.9933 11.9992 19.9933C12.5912 19.9933 13.0687 19.5159 13.0687 18.9239C13.0687 18.3318 12.5912 17.8544 11.9992 17.8544ZM22.7514 19.8406L13.5881 3.95101C12.8853 2.72873 11.1169 2.72873 10.4102 3.95101L1.247 19.8406C0.544196 21.059 1.4227 22.5907 2.83596 22.5907H21.1662C22.5718 22.5907 23.458 21.0628 22.7514 19.8406ZM21.1662 21.3684H2.83214C2.36233 21.3684 2.06822 20.8604 2.30121 20.4517L11.4683 4.56214C11.7013 4.15727 12.2933 4.15345 12.5263 4.56214L21.6933 20.4517C21.9302 20.8566 21.636 21.3684 21.1662 21.3684Z" fill="#FFA825"/>
</svg>
