<svg width="13" height="12" viewBox="0 0 13 12" fill="none" xmlns="http://www.w3.org/2000/svg">
<g clip-path="url(#clip0)">
<path d="M6.69239 0.349976C3.57122 0.349976 1.04239 2.87881 1.04239 5.99998C1.04239 9.12115 3.57122 11.65 6.69239 11.65C9.81356 11.65 12.3424 9.12115 12.3424 5.99998C12.3424 2.87881 9.81356 0.349976 6.69239 0.349976ZM10.7772 3.99514H9.24628C9.09364 3.16358 8.84759 2.42772 8.53547 1.83766C9.51283 2.27052 10.3057 3.03828 10.7772 3.99514ZM6.69239 1.44352C7.11614 1.44352 7.79961 2.38215 8.13223 3.99514H5.25255C5.58517 2.38215 6.26864 1.44352 6.69239 1.44352ZM2.13594 5.99998C2.13594 5.68786 2.16783 5.38258 2.22707 5.08869H3.99725C3.97447 5.38713 3.95852 5.68786 3.95852 5.99998C3.95852 6.31209 3.97447 6.61282 3.99725 6.91127H2.22707C2.16783 6.61737 2.13594 6.31209 2.13594 5.99998ZM2.60753 8.00481H4.1385C4.29114 8.83637 4.53719 9.57223 4.8493 10.1623C3.87195 9.72943 3.07912 8.96167 2.60753 8.00481ZM4.1385 3.99514H2.60753C3.07912 3.03828 3.87195 2.27052 4.8493 1.83766C4.53719 2.42772 4.29114 3.16358 4.1385 3.99514ZM6.69239 10.5564C6.26864 10.5564 5.58517 9.6178 5.25255 8.00481H8.13451C7.79961 9.6178 7.11614 10.5564 6.69239 10.5564ZM8.28943 6.91127H5.09535C5.07029 6.61965 5.05207 6.31893 5.05207 5.99998C5.05207 5.68102 5.07029 5.3803 5.09535 5.08869H8.2917C8.31676 5.3803 8.33499 5.68102 8.33499 5.99998C8.33499 6.31893 8.31449 6.61965 8.28943 6.91127ZM8.53547 10.1623C8.84759 9.57223 9.09136 8.83637 9.24628 8.00481H10.7772C10.3057 8.96167 9.51283 9.72943 8.53547 10.1623ZM9.38753 6.91127C9.41031 6.61282 9.42626 6.31209 9.42626 5.99998C9.42626 5.68786 9.41031 5.38713 9.38753 5.08869H11.1577C11.2169 5.38258 11.2488 5.68786 11.2488 5.99998C11.2488 6.31209 11.2169 6.61737 11.1577 6.91127H9.38753Z" fill="#252528"/>
</g>
<defs>
<clipPath id="clip0">
<rect width="12" height="12" fill="white" transform="translate(0.692383)"/>
</clipPath>
</defs>
</svg>
