<svg width="13" height="12" viewBox="0 0 13 12" fill="none" xmlns="http://www.w3.org/2000/svg">
<path d="M6.92322 0C4.43657 0 2.42322 2.01595 2.42322 4.5C2.42322 6.1668 2.98551 6.68768 5.96863 11.4709C6.40891 12.1768 7.43802 12.1759 7.87778 11.4709C10.8625 6.68517 11.4232 6.16648 11.4232 4.5C11.4232 2.01335 9.40726 0 6.92322 0ZM6.92322 10.875C3.93672 6.08639 3.54822 5.78409 3.54822 4.5C3.54822 2.63604 5.05926 1.125 6.92322 1.125C8.78718 1.125 10.2982 2.63604 10.2982 4.5C10.2982 5.77859 9.94276 6.0334 6.92322 10.875Z" fill="#252528"/>
</svg>
