<svg width="25" height="24" viewBox="0 0 25 24" fill="none" xmlns="http://www.w3.org/2000/svg">
<path d="M17.286 11.7581V12.2419C17.286 12.5081 17.0683 12.7258 16.8022 12.7258H12.8506V16.6774C12.8506 16.9435 12.6328 17.1613 12.3667 17.1613H11.8828C11.6167 17.1613 11.3989 16.9435 11.3989 16.6774V12.7258H7.44734C7.18121 12.7258 6.96347 12.5081 6.96347 12.2419V11.7581C6.96347 11.4919 7.18121 11.2742 7.44734 11.2742H11.3989V7.32258C11.3989 7.05645 11.6167 6.83871 11.8828 6.83871H12.3667C12.6328 6.83871 12.8506 7.05645 12.8506 7.32258V11.2742H16.8022C17.0683 11.2742 17.286 11.4919 17.286 11.7581ZM22.1248 12C22.1248 17.5242 17.6489 22 12.1248 22C6.60056 22 2.12476 17.5242 2.12476 12C2.12476 6.47581 6.60056 2 12.1248 2C17.6489 2 22.1248 6.47581 22.1248 12ZM20.8344 12C20.8344 7.16532 16.911 3.29032 12.1248 3.29032C7.29008 3.29032 3.41508 7.21371 3.41508 12C3.41508 16.8347 7.33847 20.7097 12.1248 20.7097C16.9594 20.7097 20.8344 16.7863 20.8344 12Z" fill="black"/>
</svg>
