<svg width="24" height="25" viewBox="0 0 24 25" fill="none" xmlns="http://www.w3.org/2000/svg">
<path d="M19.4268 11.8438H12.9685V5.38542C12.9685 5.20701 12.824 5.0625 12.6456 5.0625H11.3539C11.1755 5.0625 11.031 5.20701 11.031 5.38542V11.8438H4.57267C4.39426 11.8438 4.24976 11.9883 4.24976 12.1667V13.4583C4.24976 13.6367 4.39426 13.7812 4.57267 13.7812H11.031V20.2396C11.031 20.418 11.1755 20.5625 11.3539 20.5625H12.6456C12.824 20.5625 12.9685 20.418 12.9685 20.2396V13.7812H19.4268C19.6053 13.7812 19.7498 13.6367 19.7498 13.4583V12.1667C19.7498 11.9883 19.6053 11.8438 19.4268 11.8438Z" fill="#252528"/>
</svg>
