<svg width="100" height="100" viewBox="0 0 100 100" fill="none" xmlns="http://www.w3.org/2000/svg">
<path d="M62.5658 51.7677V8.50511C62.5633 6.38591 61.7203 4.35424 60.2218 2.85573C58.7234 1.35727 56.6917 0.514303 54.5726 0.511719H8.24213C6.12299 0.514303 4.09138 1.35727 2.59292 2.85573C1.09445 4.35419 0.251486 6.3858 0.248901 8.50494V81.3102C0.251486 83.4293 1.09445 85.4609 2.59292 86.9594C4.09142 88.4579 6.1231 89.3008 8.2423 89.3034H23.3687V86.5546H8.24196C6.85108 86.5546 5.51717 86.0021 4.53367 85.0186C3.55017 84.0351 2.99765 82.7012 2.99765 81.3103V8.50478C2.99765 7.1139 3.55017 5.77999 4.53367 4.79649C5.51717 3.81299 6.85108 3.26046 8.24196 3.26046H54.5728C55.9636 3.26046 57.2976 3.81299 58.2811 4.79649C59.2646 5.77999 59.8171 7.1139 59.8171 8.50478V51.7677H62.5658Z" fill="#AEAFB9"/>
<path d="M55.9471 51.7677V11.8141C55.9471 11.4496 55.8023 11.1 55.5446 10.8423C55.2868 10.5845 54.9373 10.4397 54.5728 10.4397H8.24196C7.87746 10.4397 7.52788 10.5845 7.27013 10.8423C7.01239 11.1 6.86759 11.4496 6.86759 11.8141V78.001C6.86759 78.3655 7.01239 78.7151 7.27013 78.9728C7.52788 79.2305 7.87745 79.3753 8.24196 79.3753H23.3687V76.6266H9.61634V13.1885H53.1984V51.7677H55.9471Z" fill="#AEAFB9"/>
<path d="M28.098 5.19544H34.7167V8.50478H28.098V5.19544Z" fill="#AEAFB9"/>
<path d="M41.5819 79.936H29.8965V83.2453H41.5819V79.936Z" fill="#F20000"/>
<path d="M29.8965 86.5547H59.1098V89.864H29.8965V86.5547Z" fill="#F20000"/>
<path fill-rule="evenodd" clip-rule="evenodd" d="M62.7096 51.9482V52.0868H91.119C93.2382 52.0894 95.2699 52.9324 96.7684 54.4308C98.2669 55.9293 99.1098 57.961 99.1124 60.0803V91.5183C99.1098 93.6376 98.2669 95.6692 96.7684 97.1677C95.2699 98.6662 93.2382 99.5092 91.119 99.5117H31.5515C29.4323 99.5092 27.4006 98.6662 25.9021 97.1677C24.4036 95.6692 23.5606 93.6376 23.5581 91.5183V89.5837H23.4005V86.835H23.5581V79.6557H23.4005V76.9069H23.5581V60.0803C23.5606 57.961 24.4036 55.9293 25.9021 54.4308C27.4006 52.9324 29.4323 52.0894 31.5515 52.0868H53.3422V51.9482H56.0909V52.0868H59.9609V51.9482H62.7096ZM96.3637 62.0149H26.3068V60.0799C26.3068 58.689 26.8594 57.3551 27.8429 56.3716C28.8264 55.3881 30.1603 54.8356 31.5511 54.8356H91.1194C92.5102 54.8356 93.8441 55.3881 94.8276 56.3716C95.8111 57.3551 96.3637 58.689 96.3637 60.0799V62.0149ZM96.3637 70.2882H26.3068V64.7636H96.3637V70.2882ZM26.3068 73.037H96.3637V91.5187C96.3637 92.9095 95.8111 94.2435 94.8276 95.2269C93.8441 96.2105 92.5102 96.763 91.1194 96.763H31.5511C30.1603 96.763 28.8264 96.2105 27.8429 95.2269C26.8594 94.2435 26.3068 92.9095 26.3068 91.5187V73.037Z" fill="#F20000"/>
</svg>
