<?xml version="1.0" encoding="utf-8"?>
<!-- Generator: Adobe Illustrator 24.0.3, SVG Export Plug-In . SVG Version: 6.00 Build 0)  -->
<svg version="1.1" id="Layer_1" xmlns="http://www.w3.org/2000/svg" xmlns:xlink="http://www.w3.org/1999/xlink" x="0px" y="0px"
	 viewBox="0 0 604.4 64.6" style="enable-background:new 0 0 604.4 64.6;" xml:space="preserve">
<style type="text/css">
	.st0{clip-path:url(#SVGID_2_);}
	.st1{fill-rule:evenodd;clip-rule:evenodd;fill:#F8F8F9;}
	.st2{fill:#F8F8F9;}
	.st3{clip-path:url(#SVGID_4_);}
	.st4{fill-rule:evenodd;clip-rule:evenodd;fill:#252528;}
	.st5{fill:#252528;}
	.st6{clip-path:url(#SVGID_6_);}
	.st7{fill-rule:evenodd;clip-rule:evenodd;fill:#00457C;}
	.st8{fill:#00457C;}
</style>
<g>
	<g>
		<defs>
			<rect id="SVGID_1_" x="8" width="185.5" height="64.6"/>
		</defs>
		<clipPath id="SVGID_2_">
			<use xlink:href="#SVGID_1_"  style="overflow:visible;"/>
		</clipPath>
		<g class="st0">
			<path class="st1" d="M161.5,2.6c-6.1-2.5-13.6-0.7-16.4,5.5c-2,4.4,0.5,9.1,4.3,11.5c5.1,3.3,12.7,8.5,13.5,12.1
				c0.6,2.9,0.2,5.9-1.9,7.8c-0.9,1-2,1.9-3.2,2.5c-1.2,0.6-2.5,1-3.9,1.1c-2,0.2-4,0-5.9-0.4c-1.3-0.5-2.5-1.2-3.6-1.9h-0.1
				c0,2.2,0,5,0,7.4l0.3-0.3c0.6-0.5,1.3-0.7,2-0.8c1.8-0.1,3.7,0.4,5.5,0.4c4,0.1,9.1-1.3,10.9-2.9c1.8-1.3,3.2-3,4.2-5
				c0.8-2,1.2-4.1,1.1-6.2c-0.1-7.2-8.7-13-15.4-17.2c-2.2-1.4-4.5-3.7-3.4-6.4c0.5-1.3,1.5-2.4,2.7-3.1c1.2-0.7,2.6-1.1,4-1
				c1.9,0.1,3.7,0.7,5.3,1.7c1.1,0.7,2.1,1.6,3,2.6l0.6,0.7V1.7L164.9,2c-0.2,0.3-0.5,0.5-0.7,0.7C163.4,3.3,162.3,2.9,161.5,2.6z"
				/>
			<path class="st1" d="M192.4,8.5V2h-25.1v6.5l0.1-0.2c0.2-0.3,0.4-0.6,0.6-0.9c0.3-0.3,0.6-0.5,1-0.7c0.4-0.1,0.8-0.2,1.2-0.2h6.8
				v38.1c0,0.8-0.7,1.5-1.3,2.3l-0.5,0.6h9.5l-0.5-0.6c-0.6-0.8-1.3-1.5-1.3-2.3V6.6h6.8c0.4,0,0.8,0,1.2,0.2c0.4,0.1,0.7,0.4,1,0.7
				c0.2,0.3,0.4,0.6,0.6,0.9C192.4,8.4,192.4,8.4,192.4,8.5L192.4,8.5z"/>
			<path class="st1" d="M123.9,6.6h14.4c1.3,0,2.9-0.1,3.6,1.1l0.3,0.6l0.2,0.4l0.2,0.4V2h-35.8l0.6,0.7c0.4,0.4,0.6,1,0.7,1.6
				c0.1,0.6,0,1.2-0.3,1.7L95,36.4C90.1,25.9,85.5,15.6,80.7,5c-0.4-1-0.6-1.8,0.3-2.5l0.8-0.6h-9.2l0.6,0.3
				c0.9,0.6,1.6,1.3,2.1,2.2c0.4,0.7,0.8,1.5,1.1,2.2l19.2,41.8c3.3-7.9,6.8-15.6,10.1-23.6l7.1-16.6l0.4-1.1
				c0.5-1.3,1.3-3.1,2.2-3.7c0.5-0.3,1.1-0.6,1.6-0.8c0.1,0,0.6,0.6,0.8,0.9c0.2,0.6,0.3,1.3,0.3,2v37.6c0,0.9-0.3,1.8-0.9,2.6
				c-0.6,0.7-1.2,1.4-1.5,1.8h27v-7c-0.3,0.7-0.7,1.3-1.2,1.9c-0.8,0.4-1.7,0.6-2.6,0.5h-15V27.1h11.2c0.6,0.1,1.1,0.3,1.5,0.7
				l0.9,0.9v-8l-0.6,0.7c-0.2,0.2-0.3,0.4-0.6,0.5c-0.2,0.1-0.5,0.2-0.7,0.3h-11.7L123.9,6.6z"/>
			<path class="st1" d="M96.6,64c-0.6-0.2-1.1-0.6-1.6-1L66.8,27.4l0.2-0.1c1.4-0.7,2.6-1.6,3.8-2.7c5.4-4.5,7-12.5,2.4-18.1
				c-1.4-1.6-3-2.9-4.9-3.8c-3.1-1.5-6.7-1.9-10.1-1.3C57.1,1.6,56,1.9,54.8,2c-1.5,0.3-3.1,0.4-4.6,0.2c-0.7-0.1-1.3-0.2-2-0.3
				l-1.7-0.3c1,0.8,2.2,2,2.2,3.3L49,37.8L31.2,0L13,41.9c-0.9,2-1.9,4.3-3.9,5.2L8,47.5h10.9c-0.6-0.4-1.1-0.9-1.4-1.5
				c-0.5-1,0-2.3,0.4-3.3l3.2-7.7h21.2l1.9,4.4l1.3,3.2c0.4,1,1,2.3,0.5,3.3c-0.3,0.6-0.8,1.1-1.4,1.5h11.1c-1-1-1.6-2.3-1.6-3.7
				V7.6c0-0.7-0.1-2,0.9-2.3c2.5-0.5,5-0.5,7.4-0.1c1.6,0.2,3.1,1,4.3,2.1c1.2,1,2.2,2.3,2.8,3.8c0.4,1.2,0.7,2.5,0.8,3.8
				c0,1.8-0.6,3.5-1.6,5c-1.1,1.9-2.8,3.4-4.7,4.4c-1.4,0.6-2.8,1-4.3,1.3l30.5,39h6.4L96.6,64z M22.8,30.4l8.4-19.4L40,30.4H22.8z"
				/>
			<path class="st2" d="M189.5,17.9h-0.8v-3.6h1.4c0.9,0,1.5,0.3,1.5,1.1c0,0.1,0,0.2,0,0.4c0,0.1-0.1,0.2-0.2,0.3
				c-0.1,0.1-0.2,0.2-0.3,0.2c-0.1,0-0.2,0.1-0.4,0.1l0.9,1.6h-0.9l-0.8-1.5h-0.4V17.9z M190.2,15.8c0.3,0,0.5-0.1,0.5-0.5
				c0-0.4-0.4-0.4-0.7-0.4h-0.5v0.9H190.2z M190.1,19.5c-0.4,0-0.9-0.1-1.3-0.2c-0.4-0.2-0.8-0.4-1.1-0.7c-0.3-0.3-0.6-0.7-0.7-1.1
				c-0.2-0.4-0.2-0.9-0.2-1.3c0-0.9,0.4-1.8,1-2.4c0.6-0.6,1.5-1,2.4-1c0.9,0,1.8,0.4,2.4,1c0.6,0.6,1,1.5,1,2.4
				c0,0.4-0.1,0.9-0.2,1.3c-0.2,0.4-0.4,0.8-0.7,1.1c-0.3,0.3-0.7,0.6-1.1,0.7C191,19.4,190.5,19.5,190.1,19.5z M190.1,13.6
				c-0.3,0-0.7,0.1-1,0.2c-0.3,0.1-0.6,0.3-0.8,0.6c-0.2,0.2-0.4,0.5-0.5,0.8c-0.1,0.3-0.2,0.6-0.1,1c0,0.3,0,0.7,0.1,1
				c0.1,0.3,0.3,0.6,0.5,0.8c0.2,0.2,0.5,0.4,0.8,0.6c0.3,0.1,0.6,0.2,1,0.2c0.3,0,0.7-0.1,1-0.2s0.6-0.3,0.8-0.6
				c0.2-0.2,0.4-0.5,0.5-0.8c0.1-0.3,0.2-0.6,0.1-1c0-0.3,0-0.7-0.1-1c-0.1-0.3-0.3-0.6-0.5-0.8c-0.2-0.2-0.5-0.4-0.8-0.6
				C190.8,13.6,190.4,13.6,190.1,13.6z"/>
		</g>
	</g>
	<g>
		<defs>
			<rect id="SVGID_3_" x="209.5" width="185.5" height="64.6"/>
		</defs>
		<clipPath id="SVGID_4_">
			<use xlink:href="#SVGID_3_"  style="overflow:visible;"/>
		</clipPath>
		<g class="st3">
			<path class="st4" d="M363,2.6c-6.1-2.5-13.6-0.7-16.4,5.5c-2,4.4,0.5,9.1,4.3,11.5c5.2,3.3,12.7,8.5,13.5,12.1
				c0.7,2.9,0.2,5.9-1.9,7.8c-0.9,1-1.9,1.9-3.2,2.5c-1.2,0.6-2.5,1-3.9,1.1c-2,0.2-4,0-5.9-0.4c-1.3-0.5-2.5-1.2-3.7-1.9h-0.1
				c0,2.2,0,5,0,7.4l0.3-0.3c0.6-0.5,1.3-0.7,2-0.8c1.8-0.1,3.7,0.4,5.5,0.4c4,0.1,9.1-1.3,10.9-2.9c1.8-1.3,3.2-3,4.2-5
				c0.8-2,1.2-4.1,1.1-6.2c-0.1-7.2-8.7-13-15.4-17.2c-2.2-1.4-4.5-3.7-3.4-6.4c0.5-1.3,1.5-2.4,2.7-3.1c1.2-0.7,2.6-1.1,4-1
				c1.9,0.1,3.7,0.7,5.3,1.7c1.1,0.7,2.1,1.6,3,2.6l0.6,0.7V1.7L366.3,2c-0.2,0.3-0.5,0.5-0.7,0.7C364.8,3.3,363.8,2.9,363,2.6z"/>
			<path class="st4" d="M393.9,8.5V2h-25.1v6.5l0.1-0.2c0.2-0.3,0.4-0.6,0.6-0.9c0.3-0.3,0.6-0.5,1-0.7c0.4-0.1,0.8-0.2,1.2-0.2h6.8
				v38.1c0,0.8-0.7,1.5-1.3,2.3l-0.5,0.6h9.5l-0.5-0.6c-0.6-0.8-1.3-1.5-1.3-2.3V6.6h6.8c0.4,0,0.8,0,1.2,0.2c0.4,0.1,0.7,0.4,1,0.7
				c0.2,0.3,0.4,0.6,0.6,0.9C393.8,8.4,393.9,8.4,393.9,8.5L393.9,8.5z"/>
			<path class="st4" d="M325.3,6.6h14.4c1.3,0,2.9-0.1,3.6,1.1l0.3,0.6l0.2,0.4l0.2,0.4V2h-35.8l0.6,0.7c0.4,0.4,0.6,1,0.7,1.6
				c0.1,0.6,0,1.2-0.3,1.7l-12.9,30.4c-4.9-10.5-9.5-20.8-14.3-31.4c-0.4-1-0.6-1.8,0.3-2.5l0.8-0.6h-9.2l0.6,0.3
				c0.9,0.6,1.6,1.3,2.1,2.2c0.4,0.7,0.8,1.5,1.1,2.2L297,48.5c3.3-7.9,6.8-15.6,10.1-23.6l7.1-16.6l0.4-1.1
				c0.5-1.3,1.3-3.1,2.2-3.7c0.5-0.3,1.1-0.6,1.7-0.8c0.1,0,0.6,0.6,0.8,0.9c0.2,0.6,0.3,1.3,0.3,2v37.6c0,0.9-0.3,1.8-0.9,2.6
				c-0.6,0.7-1.2,1.4-1.5,1.8h27v-7c-0.3,0.7-0.7,1.3-1.2,1.9c-0.8,0.4-1.7,0.6-2.6,0.5h-15V27.1h11.2c0.6,0.1,1.1,0.3,1.5,0.7
				l0.9,0.9v-8l-0.6,0.7c-0.2,0.2-0.3,0.4-0.6,0.5c-0.2,0.1-0.5,0.2-0.7,0.3h-11.7L325.3,6.6z"/>
			<path class="st4" d="M298,64c-0.6-0.2-1.1-0.6-1.6-1l-28.2-35.6l0.2-0.1c1.4-0.7,2.6-1.6,3.8-2.7c5.4-4.5,7-12.5,2.4-18.1
				c-1.4-1.6-3-2.9-4.9-3.8c-3.1-1.5-6.7-1.9-10.1-1.3c-1.1,0.2-2.2,0.4-3.3,0.6c-1.5,0.3-3.1,0.4-4.6,0.2c-0.7-0.1-1.4-0.2-2-0.3
				L248,1.6c1,0.8,2.2,2,2.2,3.3l0.3,32.9L232.7,0l-18.2,41.9c-0.9,2-1.9,4.3-3.9,5.2l-1.1,0.5h10.9c-0.6-0.4-1.1-0.9-1.4-1.5
				c-0.5-1,0-2.3,0.5-3.3l3.2-7.7h21.2l1.9,4.4l1.4,3.2c0.4,1,1,2.3,0.5,3.3c-0.3,0.6-0.8,1.1-1.4,1.5h11c-1-1-1.6-2.3-1.6-3.7V7.6
				c0-0.7-0.1-2,0.9-2.3c2.5-0.5,5-0.5,7.4-0.1c1.6,0.2,3.1,1,4.3,2.1c1.2,1,2.2,2.3,2.8,3.8c0.4,1.2,0.7,2.5,0.8,3.8
				c0,1.8-0.6,3.5-1.6,5c-1.1,1.9-2.8,3.4-4.7,4.4c-1.4,0.6-2.8,1-4.3,1.3l30.5,39h6.4L298,64z M224.3,30.4l8.4-19.4l8.8,19.4H224.3
				z"/>
			<path class="st5" d="M391,17.9h-0.8v-3.6h1.3c0.9,0,1.5,0.3,1.5,1.1c0,0.1,0,0.2,0,0.4c0,0.1-0.1,0.2-0.2,0.3
				c-0.1,0.1-0.2,0.2-0.3,0.2s-0.2,0.1-0.4,0.1l0.9,1.6h-0.9l-0.8-1.5H391V17.9z M391.7,15.8c0.4,0,0.6-0.1,0.6-0.5
				c0-0.4-0.4-0.4-0.7-0.4H391v0.9H391.7z M391.6,19.5c-0.4,0-0.9-0.1-1.3-0.2c-0.4-0.2-0.8-0.4-1.1-0.7c-0.3-0.3-0.6-0.7-0.7-1.1
				c-0.2-0.4-0.2-0.9-0.2-1.3c0-0.9,0.4-1.8,1-2.4c0.6-0.6,1.5-1,2.4-1c0.9,0,1.8,0.4,2.4,1c0.6,0.6,1,1.5,1,2.4
				c0,0.4-0.1,0.9-0.2,1.3c-0.2,0.4-0.4,0.8-0.7,1.1c-0.3,0.3-0.7,0.6-1.1,0.7C392.5,19.4,392,19.5,391.6,19.5z M391.6,13.6
				c-0.3,0-0.7,0.1-1,0.2c-0.3,0.1-0.6,0.3-0.8,0.6c-0.2,0.2-0.4,0.5-0.5,0.8c-0.1,0.3-0.2,0.6-0.1,1c0,0.3,0,0.7,0.1,1
				c0.1,0.3,0.3,0.6,0.5,0.8c0.2,0.2,0.5,0.4,0.8,0.6c0.3,0.1,0.6,0.2,1,0.2c0.3,0,0.7-0.1,1-0.2c0.3-0.1,0.6-0.3,0.8-0.6
				c0.2-0.2,0.4-0.5,0.5-0.8c0.1-0.3,0.2-0.6,0.1-1c0-0.3,0-0.7-0.1-1c-0.1-0.3-0.3-0.6-0.5-0.8c-0.2-0.2-0.5-0.4-0.8-0.6
				C392.2,13.6,391.9,13.6,391.6,13.6z"/>
		</g>
	</g>
	<g>
		<defs>
			<rect id="SVGID_5_" x="410.9" width="185.5" height="64.6"/>
		</defs>
		<clipPath id="SVGID_6_">
			<use xlink:href="#SVGID_5_"  style="overflow:visible;"/>
		</clipPath>
		<g class="st6">
			<path class="st7" d="M564.4,2.6c-6.1-2.5-13.6-0.7-16.4,5.5c-2,4.4,0.5,9.1,4.3,11.5c5.2,3.3,12.7,8.5,13.5,12.1
				c0.7,2.9,0.2,5.9-1.9,7.8c-0.9,1-1.9,1.9-3.2,2.5c-1.2,0.6-2.5,1-3.9,1.1c-2,0.2-4,0-5.9-0.4c-1.3-0.5-2.5-1.2-3.7-1.9h-0.1
				c0,2.2,0,5,0,7.4l0.3-0.3c0.6-0.5,1.3-0.7,2-0.8c1.8-0.1,3.7,0.4,5.5,0.4c4,0.1,9.1-1.3,10.9-2.9c1.8-1.3,3.2-3,4.2-5
				c0.8-2,1.2-4.1,1.1-6.2c-0.1-7.2-8.7-13-15.4-17.2c-2.2-1.4-4.5-3.7-3.4-6.4c0.5-1.3,1.5-2.4,2.7-3.1c1.2-0.7,2.6-1.1,4-1
				c1.9,0.1,3.7,0.7,5.3,1.7c1.1,0.7,2.1,1.6,3,2.6l0.6,0.7V1.7L567.8,2c-0.2,0.3-0.5,0.5-0.7,0.7C566.3,3.3,565.3,2.9,564.4,2.6z"
				/>
			<path class="st7" d="M595.4,8.5V2h-25.1v6.5l0.1-0.2c0.2-0.3,0.4-0.6,0.6-0.9c0.3-0.3,0.6-0.5,1-0.7c0.4-0.1,0.8-0.2,1.2-0.2h6.8
				v38.1c0,0.8-0.7,1.5-1.3,2.3l-0.5,0.6h9.5l-0.5-0.6c-0.6-0.8-1.3-1.5-1.3-2.3V6.6h6.8c0.4,0,0.8,0,1.2,0.2c0.4,0.1,0.7,0.4,1,0.7
				c0.2,0.3,0.4,0.6,0.6,0.9C595.3,8.4,595.4,8.4,595.4,8.5L595.4,8.5z"/>
			<path class="st7" d="M526.8,6.6h14.4c1.3,0,2.9-0.1,3.6,1.1l0.3,0.6l0.2,0.4l0.2,0.4V2h-35.8l0.6,0.7c0.4,0.4,0.6,1,0.7,1.6
				c0.1,0.6,0,1.2-0.3,1.7l-12.9,30.4C493,25.9,488.4,15.6,483.6,5c-0.4-1-0.6-1.8,0.3-2.5l0.8-0.6h-9.2l0.6,0.3
				c0.9,0.6,1.6,1.3,2.1,2.2c0.4,0.7,0.8,1.5,1.1,2.2l19.2,41.8c3.3-7.9,6.8-15.6,10.1-23.6l7.1-16.6l0.4-1.1
				c0.5-1.3,1.3-3.1,2.2-3.7c0.5-0.3,1.1-0.6,1.7-0.8c0.1,0,0.6,0.6,0.8,0.9c0.2,0.6,0.3,1.3,0.3,2v37.6c0,0.9-0.3,1.8-0.9,2.6
				c-0.6,0.7-1.2,1.4-1.5,1.8h27v-7c-0.3,0.7-0.7,1.3-1.2,1.9c-0.8,0.4-1.7,0.6-2.6,0.5h-15V27.1H538c0.6,0.1,1.1,0.3,1.5,0.7
				l0.9,0.9v-8l-0.6,0.7c-0.2,0.2-0.3,0.4-0.6,0.5c-0.2,0.1-0.5,0.2-0.7,0.3h-11.7L526.8,6.6z"/>
			<path class="st7" d="M499.5,64c-0.6-0.2-1.1-0.6-1.6-1l-28.2-35.6l0.2-0.1c1.4-0.7,2.6-1.6,3.8-2.7c5.4-4.5,7-12.5,2.4-18.1
				c-1.4-1.6-3-2.9-4.9-3.8c-3.1-1.5-6.7-1.9-10.1-1.3c-1.1,0.2-2.2,0.4-3.3,0.6c-1.5,0.3-3.1,0.4-4.6,0.2c-0.7-0.1-1.4-0.2-2-0.3
				l-1.7-0.3c1,0.8,2.2,2,2.2,3.3l0.3,32.9L434.1,0l-18.2,41.9c-0.9,2-1.9,4.3-3.9,5.2l-1.1,0.5h10.9c-0.6-0.4-1.1-0.9-1.4-1.5
				c-0.5-1,0-2.3,0.5-3.3l3.2-7.7h21.2l1.9,4.4l1.4,3.2c0.4,1,1,2.3,0.5,3.3c-0.3,0.6-0.8,1.1-1.4,1.5h11.1c-1-1-1.6-2.3-1.6-3.7
				V7.6c0-0.7-0.1-2,0.9-2.3c2.5-0.5,5-0.5,7.4-0.1c1.6,0.2,3.1,1,4.3,2.1c1.2,1,2.2,2.3,2.8,3.8c0.4,1.2,0.7,2.5,0.8,3.8
				c0,1.8-0.6,3.5-1.6,5c-1.1,1.9-2.8,3.4-4.7,4.4c-1.4,0.6-2.8,1-4.3,1.3l30.5,39h6.4L499.5,64z M425.8,30.4l8.4-19.4l8.8,19.4
				H425.8z"/>
			<path class="st8" d="M592.5,17.9h-0.8v-3.6h1.3c0.9,0,1.5,0.3,1.5,1.1c0,0.1,0,0.2,0,0.4c0,0.1-0.1,0.2-0.2,0.3
				c-0.1,0.1-0.2,0.2-0.3,0.2s-0.2,0.1-0.4,0.1l0.9,1.6h-0.9l-0.8-1.5h-0.4V17.9z M593.2,15.8c0.4,0,0.6-0.1,0.6-0.5
				c0-0.4-0.4-0.4-0.7-0.4h-0.6v0.9H593.2z M593,19.5c-0.4,0-0.9-0.1-1.3-0.2c-0.4-0.2-0.8-0.4-1.1-0.7c-0.3-0.3-0.6-0.7-0.7-1.1
				c-0.2-0.4-0.2-0.9-0.2-1.3c0-0.9,0.4-1.8,1-2.4c0.6-0.6,1.5-1,2.4-1c0.9,0,1.8,0.4,2.4,1c0.6,0.6,1,1.5,1,2.4
				c0,0.4-0.1,0.9-0.2,1.3c-0.2,0.4-0.4,0.8-0.7,1.1c-0.3,0.3-0.7,0.6-1.1,0.7C593.9,19.4,593.5,19.5,593,19.5z M593,13.6
				c-0.3,0-0.7,0.1-1,0.2c-0.3,0.1-0.6,0.3-0.8,0.6c-0.2,0.2-0.4,0.5-0.5,0.8c-0.1,0.3-0.2,0.6-0.1,1c0,0.3,0,0.7,0.1,1
				c0.1,0.3,0.3,0.6,0.5,0.8c0.2,0.2,0.5,0.4,0.8,0.6c0.3,0.1,0.6,0.2,1,0.2c0.3,0,0.7-0.1,1-0.2c0.3-0.1,0.6-0.3,0.8-0.6
				c0.2-0.2,0.4-0.5,0.5-0.8c0.1-0.3,0.2-0.6,0.1-1c0-0.3,0-0.7-0.1-1c-0.1-0.3-0.3-0.6-0.5-0.8c-0.2-0.2-0.5-0.4-0.8-0.6
				C593.7,13.6,593.4,13.6,593,13.6z"/>
		</g>
	</g>
</g>
</svg>
