<svg width="24" height="25" viewBox="0 0 24 25" fill="none" xmlns="http://www.w3.org/2000/svg">
<path d="M11.7306 4.97197L11.4781 5.22447C11.3107 5.39182 11.3107 5.66318 11.4781 5.83057L17.8529 12.2054H4.42833C4.19165 12.2054 3.99976 12.3973 3.99976 12.6339V12.9911C3.99976 13.2278 4.19165 13.4197 4.42833 13.4197H17.8529L11.4781 19.7944C11.3107 19.9618 11.3107 20.2332 11.4781 20.4006L11.7306 20.6531C11.898 20.8204 12.1693 20.8204 12.3367 20.6531L19.8742 13.1155C20.0416 12.9482 20.0416 12.6768 19.8742 12.5094L12.3367 4.97197C12.1693 4.80457 11.898 4.80457 11.7306 4.97197Z" fill="#252528"/>
</svg>
