<svg width="16" height="16" viewBox="0 0 16 16" fill="none" xmlns="http://www.w3.org/2000/svg">
<path d="M8.63601 4.41257L8.21485 3.99141C8.03652 3.81308 7.74816 3.81308 7.57173 3.99141L3.88375 7.6775C3.70542 7.85582 3.70542 8.14419 3.88375 8.32062L7.57173 12.0086C7.75006 12.1869 8.03842 12.1869 8.21485 12.0086L8.63601 11.5874C8.81623 11.4072 8.81244 11.1132 8.62842 10.9367L6.3424 8.75885H11.7947C12.047 8.75885 12.25 8.55586 12.25 8.30354V7.69647C12.25 7.44415 12.047 7.24116 11.7947 7.24116H6.3424L8.62842 5.06328C8.81433 4.88685 8.81813 4.5928 8.63601 4.41257Z" fill="#3167B8"/>
</svg>
