<svg width="24" height="24" viewBox="0 0 24 24" fill="none" xmlns="http://www.w3.org/2000/svg">
<path d="M19.5623 3.75H17.4998V1.51562C17.4998 1.23087 17.2689 1 16.9841 1H16.6404C16.3556 1 16.1248 1.23087 16.1248 1.51562V3.75H7.87476V1.51562C7.87476 1.23087 7.64388 1 7.35913 1H7.01538C6.73063 1 6.49976 1.23087 6.49976 1.51562V3.75H4.43726C3.29815 3.75 2.37476 4.6734 2.37476 5.8125V20.9375C2.37476 22.0766 3.29815 23 4.43726 23H19.5623C20.7014 23 21.6248 22.0766 21.6248 20.9375V5.8125C21.6248 4.6734 20.7014 3.75 19.5623 3.75ZM4.43726 5.125H19.5623C19.9413 5.125 20.2498 5.43343 20.2498 5.8125V7.875H3.74976V5.8125C3.74976 5.43343 4.05819 5.125 4.43726 5.125ZM19.5623 21.625H4.43726C4.05819 21.625 3.74976 21.3166 3.74976 20.9375V9.25H20.2498V20.9375C20.2498 21.3166 19.9413 21.625 19.5623 21.625Z" fill="#252528"/>
</svg>
