<svg width="13" height="12" viewBox="0 0 13 12" fill="none" xmlns="http://www.w3.org/2000/svg">
<g clip-path="url(#clip0)">
<path d="M6.84658 0.400024C3.75378 0.400024 1.24658 2.90722 1.24658 6.00002C1.24658 9.09283 3.75378 11.6 6.84658 11.6C9.93938 11.6 12.4466 9.09283 12.4466 6.00002C12.4466 2.90722 9.93938 0.400024 6.84658 0.400024ZM6.84658 1.4839C9.34247 1.4839 11.3627 3.50376 11.3627 6.00002C11.3627 8.49591 9.34285 10.5162 6.84658 10.5162C4.3507 10.5162 2.33045 8.49629 2.33045 6.00002C2.33045 3.50414 4.35031 1.4839 6.84658 1.4839ZM10.0125 4.42541L9.5036 3.91242C9.39822 3.80618 9.22665 3.80548 9.12041 3.91089L5.92859 7.07705L4.57845 5.71596C4.47306 5.60972 4.30149 5.60902 4.19525 5.7144L3.68224 6.22328C3.576 6.32866 3.5753 6.50023 3.68071 6.60649L5.7306 8.67299C5.83599 8.77923 6.00755 8.77993 6.11379 8.67452L10.011 4.80862C10.1172 4.70322 10.1179 4.53165 10.0125 4.42541Z" fill="#252528"/>
</g>
<defs>
<clipPath id="clip0">
<rect width="12" height="12" fill="white" transform="translate(0.846558)"/>
</clipPath>
</defs>
</svg>
