<svg width="24" height="25" viewBox="0 0 24 25" fill="none" xmlns="http://www.w3.org/2000/svg">
<path d="M11.9998 2.0625C6.06268 2.0625 1.24976 6.87542 1.24976 12.8125C1.24976 18.7496 6.06268 23.5625 11.9998 23.5625C17.9368 23.5625 22.7498 18.7496 22.7498 12.8125C22.7498 6.87542 17.9368 2.0625 11.9998 2.0625ZM11.9998 22.1754C6.85605 22.1754 2.63685 18.0117 2.63685 12.8125C2.63685 7.66884 6.80053 3.4496 11.9998 3.4496C17.1435 3.4496 21.3627 7.61327 21.3627 12.8125C21.3627 17.9562 17.199 22.1754 11.9998 22.1754ZM18.139 10.2567L10.3157 18.0172C10.1118 18.2195 9.78244 18.2182 9.58014 18.0142L5.8576 14.2616C5.6553 14.0577 5.65661 13.7283 5.86055 13.526L6.22987 13.1597C6.43381 12.9574 6.76316 12.9587 6.96546 13.1627L9.95535 16.1767L17.04 9.14887C17.2439 8.94657 17.5733 8.94787 17.7756 9.15182L18.1419 9.52114C18.3442 9.72508 18.3429 10.0544 18.139 10.2567Z" fill="#00BC2A"/>
</svg>
