<svg width="24" height="24" viewBox="0 0 24 24" fill="none" xmlns="http://www.w3.org/2000/svg">
<path d="M11.8925 2C6.36826 2 1.89246 6.47581 1.89246 12C1.89246 17.5242 6.36826 22 11.8925 22C17.4166 22 21.8925 17.5242 21.8925 12C21.8925 6.47581 17.4166 2 11.8925 2ZM20.6021 12C20.6021 16.7863 16.7271 20.7097 11.8925 20.7097C7.10617 20.7097 3.18278 16.8347 3.18278 12C3.18278 7.21371 7.05778 3.29032 11.8925 3.29032C16.6787 3.29032 20.6021 7.16532 20.6021 12ZM14.5981 15.5605L11.3239 13.1815C11.1989 13.0887 11.1263 12.9435 11.1263 12.7903V6.35484C11.1263 6.08871 11.3441 5.87097 11.6102 5.87097H12.1747C12.4408 5.87097 12.6586 6.08871 12.6586 6.35484V12.254L15.5013 14.3226C15.7191 14.4798 15.7634 14.7823 15.6062 15L15.2755 15.4556C15.1183 15.6694 14.8158 15.7177 14.5981 15.5605Z" fill="black"/>
</svg>
