<svg width="13" height="12" viewBox="0 0 13 12" fill="none" xmlns="http://www.w3.org/2000/svg">
<path d="M10.0166 0.849976H2.29156C1.58142 0.849976 1.00406 1.42734 1.00406 2.13748V7.93123C1.00406 8.64136 1.58142 9.21873 2.29156 9.21873H4.22281V10.9086C4.22281 11.0514 4.33949 11.15 4.46422 11.15C4.5125 11.15 4.56279 11.1359 4.60705 11.1017L7.11968 9.21873H10.0166C10.7267 9.21873 11.3041 8.64136 11.3041 7.93123V2.13748C11.3041 1.42734 10.7267 0.849976 10.0166 0.849976ZM10.3384 7.93123C10.3384 8.10826 10.1936 8.2531 10.0166 8.2531H6.79781L6.54031 8.44623L5.18843 9.46013V8.2531H2.29156C2.11453 8.2531 1.96968 8.10826 1.96968 7.93123V2.13748C1.96968 1.96044 2.11453 1.8156 2.29156 1.8156H10.0166C10.1936 1.8156 10.3384 1.96044 10.3384 2.13748V7.93123Z" fill="#252528"/>
</svg>
