<svg width="16" height="16" viewBox="0 0 16 16" fill="none" xmlns="http://www.w3.org/2000/svg">
<path d="M13.3103 3.04169H2.68971C2.10091 3.04169 1.625 3.5176 1.625 4.10419V11.8959C1.625 12.4824 2.10091 12.9584 2.68971 12.9584H13.3103C13.8991 12.9584 14.375 12.4824 14.375 11.8959V4.10419C14.375 3.5176 13.8991 3.04169 13.3103 3.04169ZM13.1775 11.8959H2.82253C2.74948 11.8959 2.68971 11.8361 2.68971 11.763V4.237C2.68971 4.16395 2.74948 4.10419 2.82253 4.10419H13.1775C13.2505 4.10419 13.3103 4.16395 13.3103 4.237V11.763C13.3103 11.8361 13.2505 11.8959 13.1775 11.8959ZM5.875 10.3906V10.5677C5.875 10.7138 5.75547 10.8334 5.60938 10.8334H4.01562C3.86953 10.8334 3.75 10.7138 3.75 10.5677V10.3906C3.75 10.2446 3.86953 10.125 4.01562 10.125H5.60938C5.75547 10.125 5.875 10.2446 5.875 10.3906ZM10.125 10.3906V10.5677C10.125 10.7138 10.0055 10.8334 9.85938 10.8334H6.84896C6.70286 10.8334 6.58333 10.7138 6.58333 10.5677V10.3906C6.58333 10.2446 6.70286 10.125 6.84896 10.125H9.85938C10.0055 10.125 10.125 10.2446 10.125 10.3906Z" fill="#252528"/>
</svg>
