<svg width="24" height="25" viewBox="0 0 24 25" fill="none" xmlns="http://www.w3.org/2000/svg">
<path d="M20.4373 4.8125H3.56226C2.63062 4.8125 1.87476 5.56836 1.87476 6.5V16.625C1.87476 17.5566 2.63062 18.3125 3.56226 18.3125H10.3123L9.46851 21.6875H6.93726C6.62788 21.6875 6.37476 21.9406 6.37476 22.25C6.37476 22.5594 6.62788 22.8125 6.93726 22.8125H17.0623C17.3716 22.8125 17.6248 22.5594 17.6248 22.25C17.6248 21.9406 17.3716 21.6875 17.0623 21.6875H14.531L13.6873 18.3125H20.4373C21.3689 18.3125 22.1248 17.5566 22.1248 16.625V6.5C22.1248 5.56836 21.3689 4.8125 20.4373 4.8125ZM10.6287 21.6875L11.1912 19.4375H12.8083L13.3708 21.6875H10.6287ZM20.9998 16.625C20.9998 16.9344 20.7466 17.1875 20.4373 17.1875H3.56226C3.25288 17.1875 2.99976 16.9344 2.99976 16.625V6.5C2.99976 6.19062 3.25288 5.9375 3.56226 5.9375H20.4373C20.7466 5.9375 20.9998 6.19062 20.9998 6.5V16.625Z" fill="#252528"/>
</svg>
