<svg width="16" height="16" viewBox="0 0 16 16" fill="none" xmlns="http://www.w3.org/2000/svg">
<path d="M9.59142 7.67422L6.86563 6.89609C6.49532 6.79062 6.19532 6.49297 6.13672 6.11094C6.04532 5.51562 6.50703 5 7.08594 5H8.81563C9.18829 5 9.55392 5.11719 9.85626 5.33047C10.0063 5.43594 10.2078 5.41953 10.3367 5.29062L10.8734 4.75391C11.0328 4.59453 11.0164 4.32734 10.8383 4.18906C10.2594 3.74141 9.55626 3.5 8.81563 3.5H8.75001V2.375C8.75001 2.16875 8.58126 2 8.37501 2H7.62501C7.41876 2 7.25 2.16875 7.25 2.375V3.5H7.19141C6.03828 3.5 4.97422 4.24531 4.69766 5.36563C4.37187 6.68281 5.17109 7.97187 6.4086 8.32578L9.13438 9.10391C9.5047 9.20938 9.8047 9.50703 9.86329 9.88906C9.9547 10.4844 9.49298 11 8.91407 11H7.18438C6.81172 11 6.4461 10.8828 6.14375 10.6695C5.99375 10.5641 5.79219 10.5805 5.66328 10.7094L5.12656 11.2461C4.96719 11.4055 4.98359 11.6727 5.16172 11.8109C5.73828 12.2586 6.44141 12.5 7.18438 12.5H7.25V13.625C7.25 13.8313 7.41876 14 7.62501 14H8.37501C8.58126 14 8.75001 13.8313 8.75001 13.625V12.5H8.8086C9.96173 12.5 11.0258 11.7547 11.3024 10.6344C11.6281 9.31719 10.8289 8.02813 9.59142 7.67422Z" fill="#252528"/>
</svg>
