<svg width="24" height="25" viewBox="0 0 24 25" fill="none" xmlns="http://www.w3.org/2000/svg">
<g clip-path="url(#clip0)">
<path d="M17.0701 15.1367L17.8513 14.3555C17.9998 14.207 18.2498 14.3125 18.2498 14.5195V20.9375C18.2498 21.9727 17.4099 22.8125 16.3748 22.8125H2.62476C1.5896 22.8125 0.749756 21.9727 0.749756 20.9375V7.1875C0.749756 6.15234 1.5896 5.3125 2.62476 5.3125H14.0427C14.2498 5.3125 14.3552 5.56641 14.2068 5.71094L13.4255 6.49219C13.3826 6.53516 13.3201 6.5625 13.2615 6.5625H2.62476C2.28101 6.5625 1.99976 6.84375 1.99976 7.1875V20.9375C1.99976 21.2812 2.28101 21.5625 2.62476 21.5625H16.3748C16.7185 21.5625 16.9998 21.2812 16.9998 20.9375V15.3008C16.9998 15.2383 17.0232 15.1797 17.0701 15.1367ZM22.7693 7.66797L10.5623 19.875L6.65991 20.3086C6.13647 20.3672 5.69507 19.9258 5.75366 19.4023L6.18726 15.5L18.3943 3.29297C19.0349 2.65234 20.074 2.65234 20.7146 3.29297L22.7693 5.34766C23.4099 5.98828 23.4099 7.02734 22.7693 7.66797ZM19.113 9.55859L16.5076 6.95312L7.38257 16.0742L7.05835 19.0078L9.99194 18.6836L19.113 9.55859ZM21.8865 6.23047L19.8318 4.17578C19.6833 4.02734 19.4333 4.01953 19.281 4.17578L17.3904 6.06641L19.9958 8.67188L21.8865 6.78125C22.0388 6.63281 22.0388 6.38281 21.8865 6.23047Z" fill="#252528"/>
</g>
<defs>
<clipPath id="clip0">
<rect width="24" height="24" fill="white" transform="translate(-0.000244141 0.8125)"/>
</clipPath>
</defs>
</svg>
