<svg width="16" height="16" viewBox="0 0 16 16" fill="none" xmlns="http://www.w3.org/2000/svg">
<path d="M12.8994 3.47748H3.10063C2.47619 3.47748 1.97 3.98367 1.97 4.6081V11.3919C1.97 12.0163 2.47619 12.5225 3.10063 12.5225H12.8994C13.5238 12.5225 14.03 12.0163 14.03 11.3919V4.6081C14.03 3.98367 13.5238 3.47748 12.8994 3.47748ZM12.8994 4.6081V5.56925C12.3712 5.99934 11.5292 6.6681 9.72922 8.07759C9.33254 8.38962 8.54675 9.13925 8 9.13051C7.45334 9.13934 6.6673 8.3895 6.27078 8.07759C4.47104 6.66831 3.62884 5.99941 3.10063 5.56925V4.6081H12.8994ZM3.10063 11.3919V7.02006C3.64036 7.44995 4.40577 8.05321 5.57241 8.96676C6.08724 9.37202 6.98885 10.2666 8 10.2612C9.00619 10.2666 9.89637 9.38499 10.4274 8.96695C11.594 8.05342 12.3596 7.45 12.8994 7.02008V11.3919H3.10063Z" fill="#252528"/>
</svg>
