<svg width="24" height="25" viewBox="0 0 24 25" fill="none" xmlns="http://www.w3.org/2000/svg">
<path d="M11.9998 3.74219C16.9809 3.74219 21.0701 7.77659 21.0701 12.8125C21.0701 17.8218 17.0132 21.8828 11.9998 21.8828C6.99244 21.8828 2.92944 17.828 2.92944 12.8125C2.92944 7.80691 6.98597 3.74219 11.9998 3.74219ZM11.9998 2.39844C6.24863 2.39844 1.58569 7.06306 1.58569 12.8125C1.58569 18.5653 6.24863 23.2266 11.9998 23.2266C17.7509 23.2266 22.4138 18.5653 22.4138 12.8125C22.4138 7.06306 17.7509 2.39844 11.9998 2.39844ZM11.5173 7.4375H12.4822C12.7687 7.4375 12.9976 7.6761 12.9857 7.9624L12.6917 15.0171C12.6805 15.287 12.4584 15.5 12.1883 15.5H11.8112C11.5411 15.5 11.319 15.287 11.3077 15.0171L11.0138 7.9624C11.0019 7.6761 11.2308 7.4375 11.5173 7.4375ZM11.9998 16.3398C11.3504 16.3398 10.824 16.8663 10.824 17.5156C10.824 18.165 11.3504 18.6914 11.9998 18.6914C12.6491 18.6914 13.1755 18.165 13.1755 17.5156C13.1755 16.8663 12.6491 16.3398 11.9998 16.3398Z" fill="#F20000"/>
</svg>
