<svg width="24" height="24" viewBox="0 0 24 24" fill="none" xmlns="http://www.w3.org/2000/svg">
<path d="M11.9998 13.1111C12.5891 13.1111 13.1544 12.877 13.5711 12.4602C13.9879 12.0435 14.222 11.4783 14.222 10.8889C14.222 10.2995 13.9879 9.73428 13.5711 9.31754C13.1544 8.90079 12.5891 8.66666 11.9998 8.66666C11.965 8.66666 11.9345 8.67499 11.9008 8.67673C12.0079 8.97163 12.0286 9.29096 11.9606 9.59724C11.8926 9.90352 11.7386 10.184 11.5168 10.4059C11.2949 10.6277 11.0144 10.7817 10.7081 10.8497C10.4018 10.9178 10.0825 10.897 9.7876 10.7899C9.7876 10.8247 9.77753 10.8552 9.77753 10.8889C9.77753 11.1807 9.83501 11.4697 9.94669 11.7393C10.0584 12.0089 10.2221 12.2539 10.4284 12.4602C10.8452 12.877 11.4104 13.1111 11.9998 13.1111ZM21.8789 11.4931C19.996 7.81909 16.2682 5.33332 11.9998 5.33332C7.73134 5.33332 4.00252 7.82083 2.12057 11.4934C2.04114 11.6505 1.99976 11.8241 1.99976 12.0002C1.99976 12.1762 2.04114 12.3498 2.12057 12.5069C4.00356 16.1809 7.73134 18.6667 11.9998 18.6667C16.2682 18.6667 19.997 16.1792 21.8789 12.5066C21.9584 12.3495 21.9998 12.1759 21.9998 11.9998C21.9998 11.8238 21.9584 11.6502 21.8789 11.4931ZM11.9998 6.44443C12.8788 6.44443 13.7381 6.7051 14.469 7.19346C15.1998 7.68182 15.7695 8.37595 16.1059 9.18807C16.4423 10.0002 16.5303 10.8938 16.3588 11.756C16.1873 12.6181 15.764 13.41 15.1425 14.0316C14.5209 14.6532 13.729 15.0765 12.8668 15.2479C12.0047 15.4194 11.1111 15.3314 10.2989 14.995C9.48682 14.6586 8.79269 14.089 8.30433 13.3581C7.81597 12.6272 7.5553 11.7679 7.5553 10.8889C7.55659 9.71054 8.02526 8.58082 8.85847 7.74761C9.69169 6.91439 10.8214 6.44572 11.9998 6.44443ZM11.9998 17.5556C8.27197 17.5556 4.86571 15.4267 3.11085 12C4.09781 10.0625 5.67616 8.48959 7.61711 7.50937C6.89245 8.44756 6.44419 9.61006 6.44419 10.8889C6.44419 12.3623 7.02951 13.7754 8.07138 14.8173C9.11325 15.8591 10.5263 16.4445 11.9998 16.4445C13.4732 16.4445 14.8863 15.8591 15.9281 14.8173C16.97 13.7754 17.5553 12.3623 17.5553 10.8889C17.5553 9.61006 17.1071 8.44756 16.3824 7.50937C18.3234 8.48959 19.9017 10.0625 20.8887 12C19.1341 15.4267 15.7275 17.5556 11.9998 17.5556Z" fill="black"/>
</svg>
