<svg width="24" height="24" viewBox="0 0 24 24" fill="none" xmlns="http://www.w3.org/2000/svg">
<path d="M19.4123 5.51749L15.9164 2.07628C15.5414 1.70714 15.0331 1.49796 14.5039 1.49796H5.99976C4.89559 1.50206 3.99976 2.38389 3.99976 3.47081V20.5333C3.99976 21.6202 4.89559 22.5021 5.99976 22.5021H17.9998C19.1039 22.5021 19.9998 21.6202 19.9998 20.5333V6.91202C19.9998 6.39112 19.7873 5.88663 19.4123 5.51749ZM18.4706 6.44854C18.5581 6.53468 18.6164 6.63722 18.6456 6.75206H14.6664V2.83507C14.7831 2.86378 14.8873 2.9212 14.9748 3.00733L18.4706 6.44854ZM17.9998 21.1896H5.99976C5.63309 21.1896 5.33309 20.8943 5.33309 20.5333V3.47081C5.33309 3.10987 5.63309 2.81456 5.99976 2.81456H13.3331V7.08019C13.3331 7.62569 13.7789 8.06456 14.3331 8.06456H18.6664V20.5333C18.6664 20.8943 18.3664 21.1896 17.9998 21.1896ZM17.0831 14.1677C16.5206 13.6222 14.7914 13.7903 14.0123 13.8929C13.1289 13.3679 12.5456 12.646 12.1331 11.5714C12.3123 10.8331 12.6331 9.63546 12.3998 8.90948C12.2164 7.75694 10.7456 7.8964 10.5414 8.63058C10.3331 9.38116 10.5289 10.4517 10.8914 11.8216C10.3956 12.9864 9.65392 14.5655 9.13726 15.4556C8.27059 15.8944 6.88309 16.6573 6.68726 17.6048C6.54142 18.2939 7.64142 19.2208 8.89976 17.8673C9.27892 17.4612 9.70392 16.8501 10.2039 16.0011C11.3164 15.6402 12.5414 15.189 13.6206 15.0167C14.5331 15.5089 15.6039 15.8329 16.3123 15.8329C17.4664 15.837 17.5164 14.5943 17.0831 14.1677ZM7.53309 17.8181C7.77892 17.1659 8.72476 16.4071 9.01226 16.1446C8.09142 17.5925 7.53309 17.8468 7.53309 17.8181ZM11.4998 8.7003C11.8623 8.7003 11.8248 10.2384 11.5873 10.6526C11.3706 9.98409 11.3789 8.7003 11.4998 8.7003ZM10.3164 15.2341C10.7873 14.422 11.1914 13.4622 11.5164 12.6214C11.9206 13.3474 12.4373 13.9216 12.9789 14.3235C11.9664 14.5163 11.0873 14.9429 10.3164 15.2341ZM16.7081 14.9921C16.7081 14.9921 16.4664 15.2792 14.8956 14.6189C16.6039 14.4958 16.8831 14.8814 16.7081 14.9921Z" fill="black"/>
</svg>
