<svg width="16" height="16" viewBox="0 0 16 16" fill="none" xmlns="http://www.w3.org/2000/svg">
<path d="M12.0549 4.39759L10.1426 2.48526C9.93743 2.28012 9.65936 2.16388 9.36989 2.16388H4.71784C4.11383 2.16616 3.62378 2.65621 3.62378 3.26022V12.7421C3.62378 13.3461 4.11383 13.8362 4.71784 13.8362H11.2822C11.8862 13.8362 12.3763 13.3461 12.3763 12.7421V5.17255C12.3763 4.88308 12.26 4.60273 12.0549 4.39759ZM11.1933 5.08366H9.45878V3.34911L11.1933 5.08366ZM4.71784 12.7421V3.26022H8.36472V5.63069C8.36472 5.93384 8.6086 6.17772 8.91175 6.17772H11.2822V12.7421H4.71784Z" fill="#252528"/>
</svg>
