<svg width="24" height="25" viewBox="0 0 24 25" fill="none" xmlns="http://www.w3.org/2000/svg">
<path d="M18.9476 6.63988L15.6709 3.36317C15.3194 3.01168 14.843 2.8125 14.347 2.8125H6.37585C5.3409 2.81641 4.50122 3.65609 4.50122 4.69104V20.9379C4.50122 21.9728 5.3409 22.8125 6.37585 22.8125H17.6237C18.6586 22.8125 19.4983 21.9728 19.4983 20.9379V7.96774C19.4983 7.47175 19.2991 6.99137 18.9476 6.63988ZM18.065 7.52642C18.147 7.60844 18.2017 7.70608 18.229 7.81543H14.4993V4.08569C14.6086 4.11303 14.7063 4.1677 14.7883 4.24972L18.065 7.52642ZM17.6237 21.5627H6.37585C6.03217 21.5627 5.75098 21.2815 5.75098 20.9379V4.69104C5.75098 4.34736 6.03217 4.06616 6.37585 4.06616H13.2495V8.12787C13.2495 8.6473 13.6674 9.06519 14.1868 9.06519H18.2485V20.9379C18.2485 21.2815 17.9673 21.5627 17.6237 21.5627ZM15.749 12.0334V12.3458C15.749 12.6036 15.5381 12.8145 15.2804 12.8145H8.71915C8.46139 12.8145 8.25049 12.6036 8.25049 12.3458V12.0334C8.25049 11.7756 8.46139 11.5647 8.71915 11.5647H15.2804C15.5381 11.5647 15.749 11.7756 15.749 12.0334ZM15.749 14.5329V14.8453C15.749 15.1031 15.5381 15.314 15.2804 15.314H8.71915C8.46139 15.314 8.25049 15.1031 8.25049 14.8453V14.5329C8.25049 14.2751 8.46139 14.0642 8.71915 14.0642H15.2804C15.5381 14.0642 15.749 14.2751 15.749 14.5329ZM15.749 17.0324V17.3448C15.749 17.6026 15.5381 17.8135 15.2804 17.8135H8.71915C8.46139 17.8135 8.25049 17.6026 8.25049 17.3448V17.0324C8.25049 16.7746 8.46139 16.5637 8.71915 16.5637H15.2804C15.5381 16.5637 15.749 16.7746 15.749 17.0324Z" fill="#252528"/>
</svg>
