<svg width="24" height="24" viewBox="0 0 24 24" fill="none" xmlns="http://www.w3.org/2000/svg">
<path d="M9.42731 5.28124L11.7213 7.57528C11.9733 7.82723 12.3151 7.96874 12.6716 7.96874H20.7341C21.1053 7.96874 21.406 8.26941 21.406 8.64062V18.0469C21.406 18.4181 21.1053 18.7187 20.7341 18.7187H3.26538C2.89417 18.7187 2.59351 18.4181 2.59351 18.0469V5.95312C2.59351 5.58191 2.89417 5.28124 3.26538 5.28124H9.42731ZM3.26538 3.93749C2.15217 3.93749 1.24976 4.8399 1.24976 5.95312V18.0469C1.24976 19.1601 2.15217 20.0625 3.26538 20.0625H20.7341C21.8473 20.0625 22.7498 19.1601 22.7498 18.0469V8.64062C22.7498 7.5274 21.8473 6.62499 20.7341 6.62499H12.6716L10.3776 4.33096C10.1256 4.07901 9.78383 3.93749 9.42731 3.93749H3.26538Z" fill="#252528"/>
</svg>
