<svg width="24" height="24" viewBox="0 0 24 24" fill="none" xmlns="http://www.w3.org/2000/svg">
<path d="M11.9998 1.34375C6.11304 1.34375 1.34351 6.11328 1.34351 12C1.34351 17.8867 6.11304 22.6562 11.9998 22.6562C17.8865 22.6562 22.656 17.8867 22.656 12C22.656 6.11328 17.8865 1.34375 11.9998 1.34375ZM20.3013 7.875H16.7564C16.3697 5.96719 15.7208 4.34297 14.9001 3.18711C17.2634 3.96914 19.2056 5.675 20.3013 7.875ZM15.781 12C15.781 12.984 15.7123 13.8992 15.5962 14.75H8.40327C8.28726 13.8992 8.21851 12.984 8.21851 12C8.21851 11.016 8.28726 10.1008 8.40327 9.25H15.5962C15.7123 10.1008 15.781 11.016 15.781 12ZM11.9998 2.71875C13.1556 2.71875 14.638 4.61367 15.3556 7.875H8.6439C9.36147 4.61367 10.8439 2.71875 11.9998 2.71875ZM9.09937 3.18711C8.28296 4.33867 7.62983 5.96289 7.24312 7.875H3.69819C4.7939 5.675 6.73608 3.96914 9.09937 3.18711ZM2.71851 12C2.71851 11.0418 2.8646 10.118 3.1353 9.25H7.02397C6.91226 10.1309 6.84351 11.0461 6.84351 12C6.84351 12.9539 6.90796 13.8691 7.02397 14.75H3.1353C2.8646 13.882 2.71851 12.9582 2.71851 12ZM3.69819 16.125H7.24312C7.62983 18.0328 8.27866 19.657 9.09937 20.8129C6.73608 20.0309 4.7939 18.325 3.69819 16.125ZM11.9998 21.2812C10.8439 21.2812 9.36147 19.3863 8.6439 16.125H15.3556C14.638 19.3863 13.1556 21.2812 11.9998 21.2812ZM14.9001 20.8129C15.7166 19.6613 16.3697 18.0371 16.7564 16.125H20.3013C19.2056 18.325 17.2634 20.0309 14.9001 20.8129ZM16.9755 14.75C17.0873 13.8691 17.156 12.9539 17.156 12C17.156 11.0461 17.0916 10.1309 16.9755 9.25H20.8642C21.1349 10.118 21.281 11.0418 21.281 12C21.281 12.9582 21.1349 13.882 20.8642 14.75H16.9755Z" fill="#252528"/>
</svg>
