<svg width="33" height="34" fill="none" xmlns="http://www.w3.org/2000/svg"><path d="M11.127 14.914V12.06h10.87v2.854h-10.87zM21.997 16.311h-10.87v2.854h10.87V16.31z" fill="#F8F8F9"/><path fill-rule="evenodd" clip-rule="evenodd" d="M16.718.86.412 10.137v3.358h2.504v11.531h27.196v-11.53h2.543v-3.262L16.718.86zm-10.5 9.647 10.501-6.154 10.27 6.154v11.57H6.217v-11.57zM17.048 30.23v3.63h1.844c1.515 0 2.369-.33 2.369-1.748 0-1.475-.951-1.883-2.31-1.883h-1.903zm.989 2.853v-2.077h.912c.64 0 1.223.369 1.223 1.106 0 .835-.544.97-1.32.97h-.815zM27.006 33.86v-3.63h2.64c.99 0 1.418.33 1.418 1.145 0 .601-.311.873-.99.97l1.048 1.514h-1.087l-1.049-1.514h-.95v1.514h-1.03zm2.487-2.835H28v.544h1.456c.504 0 .64 0 .64-.272 0-.233-.194-.272-.602-.272z" fill="#F8F8F9"/><path d="M11.575 30.23v3.63h.952v-2.194l1.902 2.193h1.145v-3.63h-.951v2.252l-1.922-2.252h-1.126zM2.201 33.86v-3.63h1.01v2.814l2.581.039v.776h-3.59zM6.818 33.86h3.495v-.777H7.867v-.777h2.038v-.737H7.867v-.563h2.446v-.777H6.818v3.63zM22.388 33.86v-3.63h3.455v.776h-2.446v.563h2.077v.737h-2.077v.777h2.446v.737l-3.455.04z" fill="#F8F8F9"/><path fill-rule="evenodd" clip-rule="evenodd" d="m10.235 26.075-.913 3.262h.66l.214-.738h.815l.194.738h.718l-.912-3.262h-.776zm.095 1.98.272-1.28.31 1.28h-.582zM4.256 28.152v-.873c0-.835.272-1.281 1.087-1.281.912 0 1.087.543 1.087 1.339v.68c0 .407-.039.601-.175.873l.544.175-.04.233c-1.863 0-2.503-.059-2.503-1.146zm.679-.834v.776c0 .602.097.777.408.777.368 0 .407-.136.407-.738v-.874c0-.64-.039-.737-.369-.737-.388.02-.446.194-.446.796z" fill="#F8F8F9"/><path d="M22.795 28.463c0 .505.31.912 1.048.912.583 0 1.126-.407 1.126-.912 0-.43-.446-.735-.844-1.007-.322-.22-.611-.418-.611-.643 0-.175.174-.272.368-.272.272 0 .408.175.544.466l.446-.175c-.038-.466-.369-.834-1.048-.834-.544 0-.99.271-.99.834 0 .504.443.8.84 1.066.323.216.616.412.616.681 0 .233-.136.33-.408.33-.272 0-.446-.174-.543-.504l-.544.058z" fill="#F8F8F9"/><path fill-rule="evenodd" clip-rule="evenodd" d="M17.865 28.288V27.24c0-.874.408-1.242 1.087-1.242.854 0 1.087.33 1.087 1.145v1.01c0 .873-.233 1.242-1.087 1.242s-1.087-.33-1.087-1.107zm.68-1.106v1.01c0 .465.038.678.407.678.272 0 .408-.174.408-.737v-.97c0-.37-.039-.68-.408-.68-.35 0-.408.291-.408.699z" fill="#F8F8F9"/><path d="M28.873 28.152c0 .97.272 1.243 1.184 1.243.699 0 .913-.33.913-.68v-1.067h-.952v.504h.31v.37c0 .27-.096.407-.31.407-.446 0-.504-.33-.504-.777v-.737c0-.544.038-.913.504-.913.31 0 .505.233.544.544l.446-.175c-.038-.543-.407-.873-1.048-.873-.912 0-1.087.504-1.087 1.203v.951zM20.33 27.958v-1.902h.679V27.9c0 .699.038.97.407.97.37 0 .408-.174.408-.912v-1.883h.64v1.98c0 .951-.271 1.359-.99 1.359-.95 0-1.145-.35-1.145-1.456zM26.404 26.075v3.262h.544v-2.194l.776 2.194h.816v-3.262h-.544v2.02l-.738-2.02h-.854zM7.092 28.055v-1.96h.621v1.844c0 .738.039.912.408.912.31 0 .407-.194.407-.834v-1.922h.64v1.883c0 .912-.038 1.417-1.086 1.417-.893 0-.99-.427-.99-1.34zM15.36 26.075v3.262h.622V27.86h.776v1.476h.64v-3.262h-.64v1.243h-.776v-1.243h-.621zM2.162 29.337v-3.262h1.63v.505h-.99v.874h.913v.466h-.912v.912h.99v.505h-1.63zM12.193 26.075v3.262h1.514v-.505h-.97v-2.757h-.544zM25.298 29.337v-3.262h.602v3.262h-.602z" fill="#F8F8F9"/></svg>