<svg width="24" height="24" viewBox="0 0 24 24" fill="none" xmlns="http://www.w3.org/2000/svg">
<circle cx="12" cy="12" r="12" fill="#F8F8F9"/>
<path d="M8.45817 18.9656V9.73589H5.60348V18.9656H8.45817ZM8.45817 6.49683C8.45817 5.67183 7.90973 5.06714 6.97692 5.06714C6.10035 5.06714 5.49567 5.67183 5.49567 6.49683C5.49567 7.32183 6.0441 7.92183 6.92067 7.92183C7.85348 7.92183 8.45817 7.26558 8.45817 6.49683ZM13.0754 18.9656V13.6921C13.0754 13.4156 13.0754 13.1437 13.1832 12.9234C13.4035 12.375 13.8957 11.7703 14.7769 11.7703C15.93 11.7703 16.591 12.4312 16.591 13.6921V18.9656H19.4457V13.5796C19.4457 10.6687 17.9082 9.35151 15.8738 9.35151C14.1722 9.35151 13.455 10.2843 13.0191 10.9453V9.73589H10.1644C10.2207 10.6125 10.1644 19.0171 10.1644 19.0171H13.0754V18.9656Z" fill="#00457C"/>
</svg>
