<svg width="16" height="16" viewBox="0 0 16 16" fill="none" xmlns="http://www.w3.org/2000/svg">
<path d="M12.213 6.46802H11.447V5.35253C11.447 3.44711 9.915 1.87681 8.00958 1.87202C6.10415 1.86723 4.553 3.41599 4.553 5.31902V6.46802H3.787C3.15266 6.46802 2.638 6.98268 2.638 7.61702V12.979C2.638 13.6134 3.15266 14.128 3.787 14.128H12.213C12.8473 14.128 13.362 13.6134 13.362 12.979V7.61702C13.362 6.98268 12.8473 6.46802 12.213 6.46802ZM5.702 5.31902C5.702 4.05273 6.73371 3.02102 8 3.02102C9.26629 3.02102 10.298 4.05273 10.298 5.31902V6.46802H5.702V5.31902ZM12.213 12.979H3.787V7.61702H12.213V12.979Z" fill="#252528"/>
</svg>
