<svg width="24" height="24" viewBox="0 0 24 24" fill="none" xmlns="http://www.w3.org/2000/svg">
<path d="M21.7319 6.45312H2.26761C2.19657 6.45312 2.12844 6.42843 2.07821 6.38448C2.02798 6.34052 1.99976 6.28091 1.99976 6.21875V5.28125C1.99976 5.21909 2.02798 5.15948 2.07821 5.11552C2.12844 5.07157 2.19657 5.04688 2.26761 5.04688H21.7319C21.8029 5.04688 21.8711 5.07157 21.9213 5.11552C21.9715 5.15948 21.9998 5.21909 21.9998 5.28125V6.21875C21.9998 6.28091 21.9715 6.34052 21.9213 6.38448C21.8711 6.42843 21.8029 6.45312 21.7319 6.45312ZM21.7319 12.7031H2.26761C2.19657 12.7031 2.12844 12.6784 2.07821 12.6345C2.02798 12.5905 1.99976 12.5309 1.99976 12.4688V11.5312C1.99976 11.4691 2.02798 11.4095 2.07821 11.3655C2.12844 11.3216 2.19657 11.2969 2.26761 11.2969H21.7319C21.8029 11.2969 21.8711 11.3216 21.9213 11.3655C21.9715 11.4095 21.9998 11.4691 21.9998 11.5312V12.4688C21.9998 12.5309 21.9715 12.5905 21.9213 12.6345C21.8711 12.6784 21.8029 12.7031 21.7319 12.7031ZM21.7319 18.9531H2.26761C2.19657 18.9531 2.12844 18.9284 2.07821 18.8845C2.02798 18.8405 1.99976 18.7809 1.99976 18.7188V17.7812C1.99976 17.7191 2.02798 17.6595 2.07821 17.6155C2.12844 17.5716 2.19657 17.5469 2.26761 17.5469H21.7319C21.8029 17.5469 21.8711 17.5716 21.9213 17.6155C21.9715 17.6595 21.9998 17.7191 21.9998 17.7812V18.7188C21.9998 18.7809 21.9715 18.8405 21.9213 18.8845C21.8711 18.9284 21.8029 18.9531 21.7319 18.9531Z" fill="#252528"/>
</svg>
