<svg width="16" height="16" viewBox="0 0 16 16" fill="none" xmlns="http://www.w3.org/2000/svg">
<path d="M11.3181 10.5656H12.1697C12.2548 10.5656 12.3364 10.5318 12.3965 10.4717C12.4567 10.4115 12.4905 10.33 12.4905 10.2449V9.3937C12.4905 9.30945 12.4739 9.22603 12.4417 9.14819C12.4095 9.07035 12.3622 8.99962 12.3027 8.94004L7.6632 4.30039L6.22584 5.73775L10.8645 10.3776C10.9241 10.4372 10.9948 10.4845 11.0726 10.5168C11.1505 10.549 11.2339 10.5656 11.3181 10.5656ZM5.77278 5.28469L7.21014 3.84533L6.37219 3.00797C6.28173 2.91848 6.15963 2.86829 6.03239 2.86829C5.90515 2.86829 5.78305 2.91848 5.6926 3.00797L4.93282 3.76715C4.84345 3.85726 4.79331 3.97903 4.79331 4.10594C4.79331 4.23285 4.84345 4.35462 4.93282 4.44473L5.77278 5.28469ZM4.15099 10.2449C4.15099 10.33 4.18478 10.4115 4.24494 10.4717C4.30509 10.5318 4.38667 10.5656 4.47174 10.5656H10.145L9.18276 9.60339H4.47174C4.38667 9.60339 4.30509 9.63719 4.24494 9.69734C4.18478 9.75749 4.15099 9.83907 4.15099 9.92414V10.2449ZM13.7735 5.43364H9.70398L10.6662 6.39589H13.4527V12.1694H2.54724V6.39589H5.97666L5.77218 6.19142L5.31912 5.73836L5.01441 5.43364H2.22649C2.05636 5.43364 1.89319 5.50123 1.77288 5.62153C1.65258 5.74184 1.58499 5.90501 1.58499 6.07514L1.58499 12.4901C1.58499 12.6603 1.65258 12.8234 1.77288 12.9438C1.89319 13.0641 2.05636 13.1316 2.22649 13.1316H13.7735C13.9436 13.1316 14.1068 13.0641 14.2271 12.9438C14.3474 12.8234 14.415 12.6603 14.415 12.4901V6.07514C14.415 5.90501 14.3474 5.74184 14.2271 5.62153C14.1068 5.50123 13.9436 5.43364 13.7735 5.43364ZM4.47174 8.96189H8.54126L7.57901 7.99964H4.47174C4.38667 7.99964 4.30509 8.03344 4.24494 8.09359C4.18478 8.15374 4.15099 8.23532 4.15099 8.32039V8.64114C4.15099 8.72621 4.18478 8.8078 4.24494 8.86795C4.30509 8.9281 4.38667 8.96189 4.47174 8.96189Z" fill="#252528"/>
</svg>
