<svg width="25" height="24" viewBox="0 0 25 24" fill="none" xmlns="http://www.w3.org/2000/svg">
<path d="M12.3331 8.38275C10.6207 8.38275 9.23258 10.0021 9.23258 12C9.23258 13.9976 10.6207 15.6173 12.3331 15.6173C14.0448 15.6173 15.4336 13.9982 15.4336 12C15.4336 10.0021 14.0455 8.38275 12.3331 8.38275ZM12.3331 14.5838C11.1933 14.5838 10.2661 13.4246 10.2661 12C10.2661 10.5754 11.1933 9.41625 12.3331 9.41625C13.4728 9.41625 14.4001 10.5754 14.4001 12C14.4001 13.4246 13.4728 14.5838 12.3331 14.5838ZM22.0596 5.49089C20.8068 4.96542 19.553 4.7655 18.2999 4.7655C14.3219 4.76518 10.3442 6.77889 6.36623 6.77889C4.26984 6.77889 3.5128 6.28346 3.03965 6.28346C2.48382 6.28346 1.99808 6.71365 1.99808 7.31082V17.5573C1.99808 17.9652 2.23158 18.3518 2.60655 18.5088C3.85935 19.0346 5.11311 19.2345 6.36623 19.2345C10.3442 19.2345 14.3219 17.2208 18.2999 17.2208C20.3963 17.2208 21.153 17.7165 21.6265 17.7165C22.1823 17.7165 22.6681 17.2864 22.6681 16.6892V6.44268C22.6681 6.03445 22.4346 5.64818 22.0596 5.49089ZM21.3268 16.601C20.7797 16.4463 19.8644 16.1876 18.2999 16.1876C16.1822 16.1876 14.0965 16.7153 12.0795 17.226C10.0981 17.7275 8.22653 18.2013 6.36623 18.2013C5.14024 18.2013 4.04118 17.9904 3.03158 17.5576L3.01575 7.31631C3.06581 7.32212 3.21761 7.36508 3.33937 7.39931C3.88615 7.55402 4.80177 7.81271 6.36591 7.81271C8.48361 7.81271 10.569 7.28466 12.586 6.77437C14.568 6.27248 16.4396 5.799 18.2999 5.799C19.5262 5.799 20.6253 6.01022 21.6346 6.44268L21.6504 16.684C21.6003 16.6782 21.4485 16.6353 21.3268 16.601Z" fill="#252528"/>
</svg>
