<svg width="24" height="25" viewBox="0 0 24 25" fill="none" xmlns="http://www.w3.org/2000/svg">
<path d="M15.617 16.9857C15.7194 17.0892 15.8413 17.1713 15.9757 17.2275C16.11 17.2836 16.2542 17.3125 16.3998 17.3126H18.5998C18.8915 17.3126 19.1713 17.1967 19.3776 16.9904C19.5839 16.7841 19.6998 16.5043 19.6998 16.2126V14.0126C19.6998 13.8671 19.6709 13.723 19.6149 13.5887C19.5588 13.4544 19.4767 13.3325 19.3732 13.2302L9.47938 3.42749C9.348 3.2959 9.19197 3.19151 9.02021 3.12029C8.84844 3.04907 8.66432 3.01241 8.47838 3.01241C8.29244 3.01241 8.10832 3.04907 7.93656 3.12029C7.76479 3.19151 7.60876 3.2959 7.47738 3.42749L5.81432 5.09124C5.6821 5.22426 5.57743 5.38206 5.50629 5.5556C5.43515 5.72913 5.39895 5.915 5.39976 6.10255C5.4001 6.28921 5.4378 6.47392 5.51066 6.64578C5.58351 6.81763 5.69003 6.97317 5.82394 7.10321L15.617 16.9857ZM10.9499 6.45008L18.5998 14.0126V16.2126H16.3998L8.84069 8.56071L10.9499 6.45008ZM6.59222 5.8688L8.25563 4.20505C8.28508 4.17567 8.32003 4.15238 8.35849 4.13651C8.39695 4.12065 8.43816 4.11251 8.47976 4.11258C8.52101 4.11243 8.56188 4.12054 8.59996 4.13642C8.63803 4.1523 8.67255 4.17563 8.70147 4.20505L10.2322 5.73611L8.12294 7.84605L6.59222 6.31499C6.53307 6.25581 6.49984 6.17557 6.49984 6.09189C6.49984 6.00822 6.53307 5.92798 6.59222 5.8688ZM5.39976 17.0376C5.39976 17.1105 5.42873 17.1805 5.4803 17.232C5.53187 17.2836 5.60182 17.3126 5.67476 17.3126H14.3926L13.3026 16.2126H5.67476C5.60182 16.2126 5.53187 16.2416 5.4803 16.2931C5.42873 16.3447 5.39976 16.4146 5.39976 16.4876V17.0376ZM5.67476 14.0126H11.1228L10.0328 12.9126H5.67476C5.60182 12.9126 5.53187 12.9416 5.4803 12.9931C5.42873 13.0447 5.39976 13.1146 5.39976 13.1876V13.7376C5.39976 13.8105 5.42873 13.8805 5.4803 13.932C5.53187 13.9836 5.60182 14.0126 5.67476 14.0126ZM21.8998 7.41258H15.0643L16.1746 8.51258H21.8998V19.5126H2.09976V8.51258H5.67476L5.05601 7.88971C4.9127 7.74629 4.78724 7.58609 4.68235 7.41258H2.09976C1.80802 7.41258 1.52823 7.52847 1.32194 7.73477C1.11565 7.94105 0.999756 8.22084 0.999756 8.51258L0.999756 19.5126C0.999756 19.8043 1.11565 20.0841 1.32194 20.2904C1.52823 20.4967 1.80802 20.6126 2.09976 20.6126H21.8998C22.1915 20.6126 22.4713 20.4967 22.6776 20.2904C22.8839 20.0841 22.9998 19.8043 22.9998 19.5126V8.51258C22.9998 8.22084 22.8839 7.94105 22.6776 7.73477C22.4713 7.52847 22.1915 7.41258 21.8998 7.41258Z" fill="#252528"/>
</svg>
