<svg width="13" height="12" viewBox="0 0 13 12" fill="none" xmlns="http://www.w3.org/2000/svg">
<g clip-path="url(#clip0)">
<path d="M11.1345 7.58985L8.95188 6.65421C8.75595 6.57089 8.53829 6.55327 8.33151 6.60401C8.12473 6.65475 7.93995 6.7711 7.80483 6.93565L7.10229 7.79503C5.97531 7.18079 5.04902 6.25503 4.43415 5.12839L5.29352 4.42585C5.45807 4.29059 5.57441 4.10569 5.62514 3.89882C5.67587 3.69194 5.65827 3.4742 5.57497 3.27816L4.64083 1.09706C4.55067 0.884801 4.38856 0.711121 4.18301 0.606559C3.97746 0.501997 3.74163 0.473246 3.51698 0.525362L1.49337 0.991788C1.27623 1.04106 1.08237 1.16285 0.943727 1.33707C0.805084 1.51129 0.729937 1.72755 0.730672 1.95021C0.730672 7.24095 5.02067 11.5022 10.2818 11.5C10.5044 11.5007 10.7206 11.4255 10.8947 11.2868C11.0689 11.1481 11.1906 10.9542 11.2398 10.7371L11.706 8.71284C11.7573 8.48836 11.7283 8.25297 11.6238 8.04773C11.5194 7.84249 11.3462 7.68044 11.1345 7.58985ZM10.2409 10.4707C5.56638 10.4492 1.78341 6.66603 1.76192 1.98888L3.71034 1.53985L4.61462 3.65005L3.15175 4.84694C4.14841 6.9739 5.2613 8.08314 7.38417 9.07937L8.58063 7.61607L10.6902 8.52077L10.2409 10.4707Z" fill="#252528"/>
</g>
<defs>
<clipPath id="clip0">
<rect width="12" height="12" fill="white" transform="translate(0.230713)"/>
</clipPath>
</defs>
</svg>
