<?xml version="1.0" encoding="utf-8"?>
<!-- Generator: Adobe Illustrator 24.0.3, SVG Export Plug-In . SVG Version: 6.00 Build 0)  -->
<svg version="1.1" id="Layer_1" xmlns="http://www.w3.org/2000/svg" xmlns:xlink="http://www.w3.org/1999/xlink" x="0px" y="0px"
	 viewBox="0 0 222.8 66" style="enable-background:new 0 0 222.8 66;" xml:space="preserve">
<style type="text/css">
	.st0{fill:#A6A6A6;}
	.st1{fill:#FFFFFF;stroke:#FFFFFF;stroke-width:0.2;stroke-miterlimit:10;}
	.st2{fill:#FFFFFF;}
	.st3{fill:url(#SVGID_1_);}
	.st4{fill:url(#SVGID_2_);}
	.st5{fill:url(#SVGID_3_);}
	.st6{fill:url(#SVGID_4_);}
	.st7{opacity:0.2;enable-background:new    ;}
	.st8{opacity:0.12;enable-background:new    ;}
	.st9{opacity:0.25;fill:#FFFFFF;enable-background:new    ;}
</style>
<path d="M214.5,66H8.2C3.7,66,0,62.3,0,57.8V8.2C0,3.7,3.7,0,8.2,0h206.2c4.5,0,8.2,3.7,8.2,8.2v49.5C222.8,62.3,219,66,214.5,66z"
	/>
<path class="st0" d="M214.5,1.3c3.8,0,6.9,3.1,6.9,6.9v49.5c0,3.8-3.1,6.9-6.9,6.9H8.2c-3.8,0-6.9-3.1-6.9-6.9V8.2
	c0-3.8,3.1-6.9,6.9-6.9H214.5L214.5,1.3z M214.5,0H8.2C3.7,0,0,3.7,0,8.2v49.5C0,62.3,3.7,66,8.2,66h206.2c4.5,0,8.2-3.7,8.2-8.2
	V8.2C222.8,3.7,219,0,214.5,0z"/>
<path class="st1" d="M78.2,16.9c0,1.4-0.4,2.5-1.2,3.3c-0.9,1-2.1,1.5-3.6,1.5c-1.4,0-2.6-0.5-3.6-1.5c-1-1-1.5-2.2-1.5-3.7
	c0-1.5,0.5-2.7,1.5-3.7c1-1,2.2-1.5,3.6-1.5c0.7,0,1.4,0.1,2,0.4c0.6,0.3,1.2,0.6,1.6,1.1l-0.9,0.9c-0.7-0.8-1.6-1.2-2.7-1.2
	c-1,0-1.9,0.4-2.7,1.1c-0.8,0.7-1.1,1.7-1.1,2.9s0.4,2.1,1.1,2.9c0.8,0.7,1.7,1.1,2.7,1.1c1.1,0,2-0.4,2.8-1.1
	c0.5-0.5,0.8-1.2,0.8-2h-3.6v-1.2h4.8C78.2,16.4,78.2,16.7,78.2,16.9z"/>
<path class="st1" d="M85.8,12.8h-4.5v3.1h4.1v1.2h-4.1v3.1h4.5v1.2h-5.8v-9.9h5.8V12.8L85.8,12.8z"/>
<path class="st1" d="M91.2,21.4h-1.3v-8.7h-2.8v-1.2H94v1.2h-2.8L91.2,21.4L91.2,21.4z"/>
<path class="st1" d="M98.9,21.4v-9.9h1.3v9.9H98.9z"/>
<path class="st1" d="M105.8,21.4h-1.3v-8.7h-2.8v-1.2h6.8v1.2h-2.8L105.8,21.4L105.8,21.4z"/>
<path class="st1" d="M121.5,20.2c-1,1-2.2,1.5-3.6,1.5c-1.5,0-2.7-0.5-3.6-1.5c-1-1-1.5-2.2-1.5-3.7c0-1.4,0.5-2.7,1.5-3.7
	c1-1,2.2-1.5,3.6-1.5c1.4,0,2.6,0.5,3.6,1.5c1,1,1.5,2.2,1.5,3.7C122.9,18,122.4,19.2,121.5,20.2z M115.1,19.3
	c0.7,0.7,1.6,1.1,2.7,1.1s2-0.4,2.7-1.1c0.7-0.7,1.1-1.7,1.1-2.8c0-1.2-0.4-2.1-1.1-2.8c-0.7-0.7-1.6-1.1-2.7-1.1s-2,0.4-2.7,1.1
	c-0.7,0.8-1.1,1.7-1.1,2.9C114,17.7,114.4,18.6,115.1,19.3z"/>
<path class="st1" d="M124.7,21.4v-9.9h1.6l4.8,7.7h0.1l-0.1-1.9v-5.8h1.3v9.9H131l-5-8.1h0l0,1.9v6.2H124.7z"/>
<path class="st2" d="M112.4,35.9c-3.9,0-7,3-7,7c0,4,3.2,7,7,7c3.9,0,7-3,7-7C119.5,38.8,116.3,35.9,112.4,35.9z M112.4,47.2
	c-2.1,0-4-1.7-4-4.3c0-2.5,1.8-4.3,4-4.3c2.1,0,4,1.7,4,4.3C116.4,45.4,114.5,47.2,112.4,47.2z M97.1,35.9c-3.9,0-7,3-7,7
	c0,4,3.2,7,7,7c3.9,0,7-3,7-7C104.1,38.8,100.9,35.9,97.1,35.9z M97.1,47.2c-2.1,0-4-1.7-4-4.3c0-2.5,1.8-4.3,4-4.3
	c2.1,0,4,1.7,4,4.3C101,45.4,99.2,47.2,97.1,47.2z M78.8,38v3h7.1c-0.2,1.7-0.8,2.9-1.6,3.7c-1,1-2.7,2.2-5.5,2.2
	c-4.4,0-7.8-3.5-7.8-7.9s3.4-7.9,7.8-7.9c2.4,0,4.1,0.9,5.4,2.1l2.1-2.1c-1.8-1.7-4.1-3-7.5-3c-6,0-11.1,4.9-11.1,10.9
	c0,6,5,10.9,11.1,10.9c3.2,0,5.7-1.1,7.6-3.1c2-2,2.6-4.7,2.6-7c0-0.7,0-1.3-0.2-1.9L78.8,38L78.8,38z M153.5,40.4
	c-0.6-1.6-2.4-4.5-6-4.5c-3.6,0-6.6,2.8-6.6,7c0,3.9,3,7,7,7c3.2,0,5.1-2,5.8-3.1l-2.4-1.6c-0.8,1.2-1.9,1.9-3.4,1.9
	c-1.6,0-2.7-0.7-3.4-2.1l9.4-3.9L153.5,40.4z M144,42.7c-0.1-2.7,2.1-4.1,3.7-4.1c1.2,0,2.3,0.6,2.6,1.5L144,42.7z M136.3,49.5h3.1
	V28.9h-3.1V49.5z M131.3,37.5h-0.1c-0.7-0.8-2-1.6-3.7-1.6c-3.5,0-6.7,3.1-6.7,7c0,3.9,3.2,7,6.7,7c1.7,0,3-0.7,3.7-1.6h0.1v1
	c0,2.7-1.4,4.1-3.7,4.1c-1.9,0-3.1-1.4-3.5-2.5l-2.7,1.1c0.8,1.9,2.8,4.1,6.2,4.1c3.6,0,6.7-2.1,6.7-7.3V36.3h-2.9L131.3,37.5
	L131.3,37.5z M127.7,47.2c-2.1,0-3.9-1.8-3.9-4.2c0-2.5,1.8-4.3,3.9-4.3c2.1,0,3.7,1.8,3.7,4.3C131.5,45.4,129.9,47.2,127.7,47.2z
	 M168,28.9h-7.4v20.6h3.1v-7.8h4.3c3.4,0,6.8-2.5,6.8-6.4S171.4,28.9,168,28.9z M168.1,38.8h-4.4v-7.1h4.4c2.3,0,3.6,1.9,3.6,3.5
	S170.4,38.8,168.1,38.8z M187.1,35.9c-2.2,0-4.5,1-5.5,3.2l2.7,1.1c0.6-1.1,1.7-1.5,2.8-1.5c1.6,0,3.2,1,3.2,2.7v0.2
	c-0.6-0.3-1.7-0.8-3.2-0.8c-3,0-5.9,1.6-5.9,4.6c0,2.8,2.4,4.5,5.1,4.5c2.1,0,3.2-0.9,3.9-2h0.1v1.6h3v-7.9
	C193.3,37.9,190.6,35.9,187.1,35.9z M186.7,47.2c-1,0-2.4-0.5-2.4-1.7c0-1.6,1.7-2.2,3.3-2.2c1.4,0,2,0.3,2.8,0.7
	C190.1,45.8,188.5,47.2,186.7,47.2z M204.2,36.3l-3.5,8.9h-0.1l-3.7-8.9h-3.3l5.5,12.5l-3.1,6.9h3.2l8.5-19.5H204.2z M176.5,49.5
	h3.1V28.9h-3.1V49.5z"/>
<linearGradient id="SVGID_1_" gradientUnits="userSpaceOnUse" x1="35.9726" y1="49.6237" x2="8.2817" y2="21.9328" gradientTransform="matrix(1 0 0 -1 0 64)">
	<stop  offset="0" style="stop-color:#00A0FF"/>
	<stop  offset="6.574450e-03" style="stop-color:#00A1FF"/>
	<stop  offset="0.2601" style="stop-color:#00BEFF"/>
	<stop  offset="0.5122" style="stop-color:#00D2FF"/>
	<stop  offset="0.7604" style="stop-color:#00DFFF"/>
	<stop  offset="1" style="stop-color:#00E3FF"/>
</linearGradient>
<path class="st3" d="M17.2,12.4c-0.5,0.5-0.8,1.3-0.8,2.3v36.5c0,1,0.3,1.8,0.8,2.3l0.1,0.1l20.4-20.4V33v-0.2L17.3,12.3L17.2,12.4z
	"/>
<linearGradient id="SVGID_2_" gradientUnits="userSpaceOnUse" x1="55.826" y1="30.9998" x2="15.901" y2="30.9998" gradientTransform="matrix(1 0 0 -1 0 64)">
	<stop  offset="0" style="stop-color:#FFE000"/>
	<stop  offset="0.4087" style="stop-color:#FFBD00"/>
	<stop  offset="0.7754" style="stop-color:#FFA500"/>
	<stop  offset="1" style="stop-color:#FF9C00"/>
</linearGradient>
<path class="st4" d="M44.6,40.1l-6.8-6.8V33v-0.2l6.8-6.8l0.1,0.1l8.1,4.6c2.3,1.3,2.3,3.4,0,4.8L44.7,40L44.6,40.1z"/>
<linearGradient id="SVGID_3_" gradientUnits="userSpaceOnUse" x1="40.9647" y1="27.2093" x2="3.4137" y2="-10.3417" gradientTransform="matrix(1 0 0 -1 0 64)">
	<stop  offset="0" style="stop-color:#FF3A44"/>
	<stop  offset="1" style="stop-color:#C31162"/>
</linearGradient>
<path class="st5" d="M44.7,40l-7-7L17.2,53.6c0.8,0.8,2,0.9,3.4,0.1L44.7,40z"/>
<linearGradient id="SVGID_4_" gradientUnits="userSpaceOnUse" x1="12.0351" y1="63.7039" x2="28.8031" y2="46.9357" gradientTransform="matrix(1 0 0 -1 0 64)">
	<stop  offset="0" style="stop-color:#32A071"/>
	<stop  offset="6.850000e-02" style="stop-color:#2DA771"/>
	<stop  offset="0.4762" style="stop-color:#15CF74"/>
	<stop  offset="0.8009" style="stop-color:#06E775"/>
	<stop  offset="1" style="stop-color:#00F076"/>
</linearGradient>
<path class="st6" d="M44.7,26L20.6,12.3c-1.4-0.8-2.7-0.7-3.4,0.1L37.8,33L44.7,26z"/>
<path class="st7" d="M44.6,39.8l-24,13.6c-1.3,0.8-2.5,0.7-3.3,0l-0.1,0.1l0.1,0.1c0.8,0.7,2,0.7,3.3,0L44.7,40L44.6,39.8z"/>
<path class="st8" d="M17.2,53.3c-0.5-0.5-0.8-1.3-0.8-2.3v0.2c0,1,0.3,1.8,0.8,2.3l0.1-0.1L17.2,53.3z"/>
<path class="st8" d="M52.8,35.1l-8.2,4.7l0.1,0.1l8.1-4.6c1.2-0.7,1.7-1.5,1.7-2.4C54.4,33.8,53.9,34.6,52.8,35.1z"/>
<path class="st9" d="M20.6,12.6l32.2,18.3c1,0.6,1.6,1.4,1.7,2.1c0-0.9-0.6-1.7-1.7-2.4L20.6,12.3c-2.3-1.3-4.2-0.2-4.2,2.4V15
	C16.5,12.4,18.3,11.3,20.6,12.6z"/>
</svg>
