<svg width="24" height="25" viewBox="0 0 24 25" fill="#252528"
  xmlns="http://www.w3.org/2000/svg">
  <path d="M11.9998 16.369C11.345 16.369 10.8143 16.8997 10.8143 17.5544C10.8143 18.2092 11.345 18.7399 11.9998 18.7399C12.6545 18.7399 13.1852 18.2092 13.1852 17.5544C13.1852 16.8997 12.6545 16.369 11.9998 16.369ZM12.3245 15.3528H11.6471C11.3665 15.3528 11.139 15.1253 11.139 14.8448V14.8286C11.139 11.8504 14.4177 12.1351 14.4177 10.2811C14.4177 9.43366 13.6657 8.57863 11.9858 8.57863C10.7519 8.57863 10.1117 8.98715 9.47887 9.79341C9.31341 10.0043 9.01085 10.0472 8.79095 9.89401L8.23487 9.50661C7.99672 9.34068 7.94443 9.00824 8.12288 8.77936C9.02157 7.6266 10.0878 6.88508 11.9858 6.88508C14.2009 6.88508 16.1113 8.1447 16.1113 10.2811C16.1113 13.1353 12.8326 12.9844 12.8326 14.8286V14.8448C12.8326 15.1253 12.6051 15.3528 12.3245 15.3528ZM11.9998 3.66734C17.022 3.66734 21.1449 7.73503 21.1449 12.8125C21.1449 17.8631 17.0546 21.9577 11.9998 21.9577C6.95112 21.9577 2.85459 17.8694 2.85459 12.8125C2.85459 7.7656 6.9446 3.66734 11.9998 3.66734ZM11.9998 2.3125C6.20117 2.3125 1.49976 7.01561 1.49976 12.8125C1.49976 18.6128 6.20117 23.3125 11.9998 23.3125C17.7983 23.3125 22.4998 18.6128 22.4998 12.8125C22.4998 7.01561 17.7983 2.3125 11.9998 2.3125Z" />
</svg>
