<svg width="13" height="12" viewBox="0 0 13 12" fill="none" xmlns="http://www.w3.org/2000/svg">
<g clip-path="url(#clip0)">
<path d="M6.76886 0.5C3.73151 0.5 1.26886 2.96353 1.26886 6C1.26886 9.03824 3.73151 11.5 6.76886 11.5C9.80621 11.5 12.2689 9.03824 12.2689 6C12.2689 2.96353 9.80621 0.5 6.76886 0.5ZM6.76886 10.4355C4.31755 10.4355 2.33338 8.45214 2.33338 6C2.33338 3.54951 4.31763 1.56452 6.76886 1.56452C9.21926 1.56452 11.2043 3.54875 11.2043 6C11.2043 8.45127 9.22099 10.4355 6.76886 10.4355ZM9.14725 4.77581C9.14725 6.26285 7.54114 6.28573 7.54114 6.83527V6.97581C7.54114 7.12278 7.42198 7.24194 7.27501 7.24194H6.26268C6.11571 7.24194 5.99655 7.12278 5.99655 6.97581V6.78377C5.99655 5.99104 6.59756 5.67415 7.05173 5.41951C7.44119 5.20117 7.67989 5.05267 7.67989 4.76352C7.67989 4.38105 7.19201 4.12718 6.79758 4.12718C6.28331 4.12718 6.0459 4.37063 5.71217 4.79182C5.6222 4.90537 5.45802 4.92646 5.34256 4.83892L4.7255 4.37102C4.61224 4.28515 4.58687 4.12561 4.66686 4.00813C5.19085 3.23871 5.85825 2.80645 6.89736 2.80645C7.98562 2.80645 9.14725 3.65594 9.14725 4.77581ZM7.70031 8.48387C7.70031 8.99748 7.28247 9.41532 6.76886 9.41532C6.25525 9.41532 5.83741 8.99748 5.83741 8.48387C5.83741 7.97026 6.25525 7.55242 6.76886 7.55242C7.28247 7.55242 7.70031 7.97026 7.70031 8.48387Z" fill="black"/>
</g>
<defs>
<clipPath id="clip0">
<rect width="12" height="12" fill="white" transform="translate(0.76886)"/>
</clipPath>
</defs>
</svg>
