<svg width="24" height="25" viewBox="0 0 24 25" fill="none" xmlns="http://www.w3.org/2000/svg">
<path d="M19.6574 4.625C15.724 4.625 12.4222 7.88164 11.5691 12.2416C10.1335 9.26387 7.43882 7.25 4.34214 7.25H1.49976V7.90625C1.49976 13.3326 5.22808 17.75 9.81362 17.75H11.3435V22.6719C11.3435 22.8523 11.4912 23 11.6716 23H12.3279C12.5083 23 12.656 22.8523 12.656 22.6719V15.125H14.1859C18.7714 15.125 22.4998 10.7076 22.4998 5.28125V4.625H19.6574ZM9.81362 16.4375C6.13452 16.4375 3.10757 12.9594 2.83276 8.5625H4.34214C8.02124 8.5625 11.0441 12.0406 11.323 16.4375H9.81362ZM14.1859 13.8125H12.6765C12.9513 9.41563 15.9783 5.9375 19.6574 5.9375H21.1667C20.8919 10.3344 17.865 13.8125 14.1859 13.8125Z" fill="#252528"/>
</svg>
