<svg width="24" height="25" viewBox="0 0 24 25" fill="none" xmlns="http://www.w3.org/2000/svg">
<path d="M20.332 5.99229L12.732 2.82563C12.5005 2.72959 12.2524 2.68015 12.0017 2.68015C11.7511 2.68015 11.5029 2.72959 11.2714 2.82563L3.67142 5.99229C2.96288 6.28521 2.49976 6.97792 2.49976 7.74583C2.49976 15.6031 7.03205 21.034 11.2675 22.7994C11.7345 22.9933 12.261 22.9933 12.7281 22.7994C16.1204 21.3863 21.4998 16.5056 21.4998 7.74583C21.4998 6.97792 21.0366 6.28521 20.332 5.99229ZM12.2452 21.6317C12.0908 21.695 11.9166 21.695 11.7583 21.6317C7.88309 20.0958 3.76642 14.7125 3.76642 7.74583C3.76642 7.48854 3.9208 7.25896 4.15434 7.16L11.7543 3.99333C11.9048 3.93 12.0829 3.92604 12.2412 3.99333L19.8412 7.16C20.0787 7.25896 20.2291 7.48854 20.2291 7.74583C20.2331 14.7125 16.1164 20.0958 12.2452 21.6317Z" fill="#252528"/>
</svg>
