<svg width="16" height="16" viewBox="0 0 16 16" fill="none" xmlns="http://www.w3.org/2000/svg">
<path d="M7.59964 13.4599C7.855 13.5659 8.14282 13.5659 8.39818 13.4599C10.2528 12.6873 13.1937 10.019 13.1937 5.22997C13.1937 4.81014 12.9405 4.43143 12.5553 4.27129L8.40035 2.54004C8.27378 2.48754 8.1381 2.46051 8.00108 2.46051C7.86405 2.46051 7.72837 2.48754 7.60181 2.54004L3.44681 4.27129C3.05944 4.43143 2.80624 4.81014 2.80624 5.22997C2.80624 9.52563 5.2841 12.4947 7.59964 13.4599ZM7.99999 3.49872L12.155 5.22997C12.155 8.99111 10.0256 11.6572 7.99999 12.5012C5.89003 11.6226 3.84499 8.89373 3.84499 5.22997L7.99999 3.49872Z" fill="#252528"/>
</svg>
