<svg width="24" height="25" viewBox="0 0 24 25" fill="none" xmlns="http://www.w3.org/2000/svg">
<g clip-path="url(#clip0)">
<path opacity="0.4" d="M21.408 18.1886L20.1035 17.4433C19.9524 17.3552 19.837 17.2168 19.7776 17.0523C19.7181 16.8878 19.7183 16.7076 19.7782 16.5433C19.1113 17.9334 18.0839 19.1193 16.8031 19.9776C15.5222 20.8359 14.0348 21.3351 12.4955 21.4234C10.9562 21.5116 9.42139 21.1856 8.05086 20.4793C6.68033 19.7731 5.52418 18.7123 4.70277 17.4075C3.88135 16.1028 3.42472 14.6016 3.38039 13.0605C3.33607 11.5193 3.70567 9.99441 4.45074 8.64457C5.1958 7.29473 6.28907 6.16929 7.61675 5.38541C8.94442 4.60153 10.4579 4.18787 11.9998 4.1875C12.2758 4.1875 12.5487 4.20109 12.8182 4.22641C12.7835 4.22312 12.7488 4.21938 12.7137 4.21656C12.3157 4.18422 11.9998 3.87391 11.9998 3.47453V1.97453C11.9996 1.78086 12.0743 1.59464 12.2084 1.45485C12.3424 1.31505 12.5253 1.23252 12.7188 1.22453C12.4798 1.20906 12.2426 1.1875 11.9998 1.1875C5.57788 1.1875 0.374756 6.39062 0.374756 12.8125C0.374756 19.2344 5.57788 24.4375 11.9998 24.4375C16.5935 24.4375 20.5507 21.768 22.4393 17.9022C22.2457 18.2706 21.7723 18.3967 21.408 18.1886Z" fill="#252528"/>
<path d="M12.7137 4.21657C12.3157 4.18422 11.9998 3.87391 11.9998 3.47454V1.97172C11.9998 1.54469 12.3593 1.18516 12.7859 1.21376C18.8398 1.61782 23.6248 6.65641 23.6248 12.8125C23.6261 14.571 23.2253 16.3065 22.4529 17.8863C22.2654 18.2692 21.7793 18.4019 21.4095 18.1886L20.1045 17.4433C19.7571 17.245 19.6437 16.8175 19.8138 16.4556C20.3489 15.3157 20.6258 14.0718 20.6248 12.8125C20.6248 8.28954 17.1434 4.57985 12.7137 4.21657Z" fill="#252528"/>
</g>
<defs>
<clipPath id="clip0">
<rect width="24" height="24" fill="white" transform="translate(-0.000244141 0.8125)"/>
</clipPath>
</defs>
</svg>
