<svg width="24" height="24" viewBox="0 0 24 24" fill="none" xmlns="http://www.w3.org/2000/svg">
<path d="M2.24976 5.29688V18.7031C2.24976 19.7128 3.06822 20.5312 4.07788 20.5312H19.9216C20.9313 20.5312 21.7498 19.7128 21.7498 18.7031V5.29688C21.7498 4.28722 20.9313 3.46875 19.9216 3.46875H4.07788C3.06822 3.46875 2.24976 4.28722 2.24976 5.29688ZM11.3904 4.6875V11.3906H3.46851V5.29688C3.46851 4.96031 3.74132 4.6875 4.07788 4.6875H11.3904ZM3.46851 18.7031V12.6094H11.3904V19.3125H4.07788C3.74132 19.3125 3.46851 19.0397 3.46851 18.7031ZM12.6091 19.3125V12.6094H20.531V18.7031C20.531 19.0397 20.2582 19.3125 19.9216 19.3125H12.6091ZM20.531 11.3906H12.6091V4.6875H19.9216C20.2582 4.6875 20.531 4.96031 20.531 5.29688V11.3906Z" fill="#252528"/>
</svg>
