<svg width="24" height="25" viewBox="0 0 24 25" fill="none" xmlns="http://www.w3.org/2000/svg">
<path d="M13.4849 12.8127L17.972 8.32557L18.8974 7.40023C19.0339 7.26373 19.0339 7.04191 18.8974 6.9054L17.9073 5.91531C17.7708 5.7788 17.549 5.7788 17.4125 5.91531L12 11.3278L6.58749 5.91487C6.45099 5.77837 6.22917 5.77837 6.09267 5.91487L5.10213 6.90496C4.96563 7.04147 4.96563 7.26329 5.10213 7.39979L10.5151 12.8127L5.10213 18.2252C4.96563 18.3617 4.96563 18.5835 5.10213 18.72L6.09223 19.7101C6.22873 19.8466 6.45055 19.8466 6.58706 19.7101L12 14.2976L16.4871 18.7848L17.4125 19.7101C17.549 19.8466 17.7708 19.8466 17.9073 19.7101L18.8974 18.72C19.0339 18.5835 19.0339 18.3617 18.8974 18.2252L13.4849 12.8127Z" fill="#252528"/>
</svg>
