<svg width="24" height="24" viewBox="0 0 24 24" fill="none" xmlns="http://www.w3.org/2000/svg">
<circle cx="12" cy="12" r="12" fill="#F8F8F9"/>
<path d="M19.9439 5.51648C19.2226 6.02525 18.424 6.41437 17.5789 6.66886C17.1252 6.14729 16.5224 5.77761 15.8518 5.60982C15.1813 5.44204 14.4753 5.48425 13.8295 5.73073C13.1837 5.97722 12.6292 6.41609 12.241 6.988C11.8528 7.55991 11.6495 8.23725 11.6588 8.92843V9.68162C10.3352 9.71594 9.02359 9.42238 7.84088 8.82708C6.65818 8.23179 5.64105 7.35324 4.88009 6.26967C4.88009 6.26967 1.86734 13.0484 8.64604 16.0611C7.09487 17.1141 5.24702 17.642 3.37372 17.5675C10.1524 21.3334 18.4375 17.5675 18.4375 8.90583C18.4368 8.69603 18.4166 8.48675 18.3772 8.28069C19.1459 7.5226 19.6884 6.56546 19.9439 5.51648Z" fill="#00457C"/>
</svg>
