<svg width="16" height="16" viewBox="0 0 16 16" fill="none" xmlns="http://www.w3.org/2000/svg">
<path d="M10.0422 9.09404C9.38807 9.09404 9.07352 9.45873 7.99997 9.45873C6.92642 9.45873 6.61416 9.09404 5.95772 9.09404C4.26648 9.09404 2.89435 10.4662 2.89435 12.1574V12.7409C2.89435 13.3449 3.3844 13.835 3.98841 13.835H12.0115C12.6155 13.835 13.1056 13.3449 13.1056 12.7409V12.1574C13.1056 10.4662 11.7335 9.09404 10.0422 9.09404ZM12.0115 12.7409H3.98841V12.1574C3.98841 11.0725 4.87278 10.1881 5.95772 10.1881C6.2905 10.1881 6.83069 10.5528 7.99997 10.5528C9.17837 10.5528 9.70717 10.1881 10.0422 10.1881C11.1272 10.1881 12.0115 11.0725 12.0115 12.1574V12.7409ZM7.99997 8.72935C9.81201 8.72935 11.2822 7.25921 11.2822 5.44717C11.2822 3.63512 9.81201 2.16498 7.99997 2.16498C6.18793 2.16498 4.71779 3.63512 4.71779 5.44717C4.71779 7.25921 6.18793 8.72935 7.99997 8.72935ZM7.99997 3.25904C9.20572 3.25904 10.1881 4.24142 10.1881 5.44717C10.1881 6.65291 9.20572 7.63529 7.99997 7.63529C6.79422 7.63529 5.81185 6.65291 5.81185 5.44717C5.81185 4.24142 6.79422 3.25904 7.99997 3.25904Z" fill="#252528"/>
</svg>
