<svg width="24" height="24" viewBox="0 0 24 24" fill="none" xmlns="http://www.w3.org/2000/svg">
<path d="M11.9998 3.25C14.4138 3.25 16.3748 5.21094 16.3748 7.625C16.3748 10.0391 14.4138 12 11.9998 12C9.58569 12 7.62476 10.0391 7.62476 7.625C7.62476 5.21094 9.58569 3.25 11.9998 3.25ZM16.9998 15.75C19.0662 15.75 20.7498 17.4336 20.7498 19.5V20.75H3.24976V19.5C3.24976 17.4336 4.93335 15.75 6.99976 15.75C10.3201 15.75 9.62866 16.375 11.9998 16.375C14.3787 16.375 13.6755 15.75 16.9998 15.75ZM11.9998 2C8.89429 2 6.37476 4.51953 6.37476 7.625C6.37476 10.7305 8.89429 13.25 11.9998 13.25C15.1052 13.25 17.6248 10.7305 17.6248 7.625C17.6248 4.51953 15.1052 2 11.9998 2ZM16.9998 14.5C13.3904 14.5 14.2263 15.125 11.9998 15.125C9.78101 15.125 10.6052 14.5 6.99976 14.5C4.23804 14.5 1.99976 16.7383 1.99976 19.5V20.75C1.99976 21.4414 2.55835 22 3.24976 22H20.7498C21.4412 22 21.9998 21.4414 21.9998 20.75V19.5C21.9998 16.7383 19.7615 14.5 16.9998 14.5Z" fill="#252528"/>
</svg>
