<svg width="24" height="24" viewBox="0 0 24 24" fill="none" xmlns="http://www.w3.org/2000/svg">
<circle cx="12" cy="12" r="12" fill="#F8F8F9"/>
<path fill-rule="evenodd" clip-rule="evenodd" d="M18.7912 7.4646C19.0263 7.70699 19.1933 8.00715 19.2753 8.33474C19.4943 9.54869 19.6006 10.7803 19.5929 12.0138C19.5972 13.2289 19.4909 14.4419 19.2753 15.6377C19.1933 15.9653 19.0263 16.2654 18.7912 16.5078C18.5561 16.7502 18.2612 16.9263 17.9362 17.0182C16.749 17.3357 12 17.3357 12 17.3357C12 17.3357 7.251 17.3357 6.06376 17.0182C5.74542 16.9311 5.45493 16.7634 5.22036 16.5312C4.98578 16.2991 4.81505 16.0103 4.72465 15.6929C4.50568 14.4789 4.39939 13.2473 4.40713 12.0138C4.40108 10.7895 4.50737 9.56723 4.72465 8.36235C4.80665 8.03476 4.97364 7.7346 5.20876 7.49221C5.44389 7.24981 5.73882 7.07376 6.06376 6.98183C7.251 6.66431 12 6.66431 12 6.66431C12 6.66431 16.749 6.66431 17.9362 6.95422C18.2612 7.04615 18.5561 7.2222 18.7912 7.4646ZM14.4159 12.0138L10.4469 14.271V9.75666L14.4159 12.0138Z" fill="#00457C"/>
</svg>
