<svg width="24" height="25" viewBox="0 0 24 25" fill="none" xmlns="http://www.w3.org/2000/svg">
<path d="M19.8389 12.5425L19.5854 12.289C19.4176 12.1212 19.1462 12.1212 18.9784 12.289L12.6087 18.6622V5.24095C12.6087 5.0053 12.4159 4.8125 12.1803 4.8125H11.8233C11.5876 4.8125 11.3948 5.0053 11.3948 5.24095V18.6622L5.02158 12.289C4.85377 12.1212 4.58242 12.1212 4.41461 12.289L4.16111 12.5425C3.9933 12.7103 3.9933 12.9816 4.16111 13.1495L11.6947 20.6866C11.8625 20.8545 12.1339 20.8545 12.3017 20.6866L19.8353 13.1495C20.0067 12.9781 20.0067 12.7103 19.8389 12.5425Z" fill="#252528"/>
</svg>
