<svg width="16" height="16" viewBox="0 0 16 16" fill="none" xmlns="http://www.w3.org/2000/svg">
<path d="M12.9208 2.7511H3.07917C2.53583 2.7511 2.095 3.19192 2.095 3.73527V9.64027C2.095 10.1836 2.53583 10.6244 3.07917 10.6244H12.9208C13.4642 10.6244 13.905 10.1836 13.905 9.64027V3.73527C13.905 3.19192 13.4642 2.7511 12.9208 2.7511ZM12.7978 9.64027H3.20219C3.13453 9.64027 3.07917 9.58491 3.07917 9.51724V3.85829C3.07917 3.79062 3.13453 3.73527 3.20219 3.73527H12.7978C12.8655 3.73527 12.9208 3.79062 12.9208 3.85829V9.51724C12.9208 9.58491 12.8655 9.64027 12.7978 9.64027ZM11.9367 12.7568C11.9367 13.0295 11.7173 13.2489 11.4446 13.2489H4.55542C4.28272 13.2489 4.06333 13.0295 4.06333 12.7568C4.06333 12.4841 4.28272 12.2647 4.55542 12.2647H6.57911L6.96048 11.1206C6.99328 11.0201 7.0876 10.9525 7.19421 10.9525H8.80784C8.91446 10.9525 9.00877 11.0201 9.04158 11.1206L9.42294 12.2647H11.4446C11.7173 12.2647 11.9367 12.4841 11.9367 12.7568Z" fill="#252528"/>
</svg>
