<svg width="227" height="20" fill="none" xmlns="http://www.w3.org/2000/svg"><path d="M96.095 0 84.617 6.687l-.09 2.465h1.793v8.537h19.371V9.152h1.974V6.687L96.095 0zm7.352 15.357H88.785V6.953l7.22-4.398 7.445 4.488v8.314h-.003z" fill="#F8F8F9"/><path d="M99.947 8.097h-7.711v2.286h7.711V8.097zM99.947 11.176h-7.711v2.287h7.711v-2.287zM7.657 17.689h1.179V9.823H7.149l-2.287 5.649-2.288-5.649H.888v7.866h1.179v-6.25l2.547 6.25h.495l2.548-6.25v6.25zM10.207 14.835c0 1.793 1.25 2.995 2.948 2.995.92 0 1.722-.294 2.288-.849l-.496-.695c-.424.436-1.084.672-1.686.672-1.144 0-1.851-.802-1.934-1.77h4.505v-.258c0-1.746-1.062-3.078-2.771-3.078-1.663 0-2.854 1.332-2.854 2.983zm2.854-2.11c1.203 0 1.71.943 1.733 1.697h-3.479c.06-.778.602-1.698 1.746-1.698zM24.081 17.689h1.062v-4.116c0-1.143-.566-1.721-1.616-1.721-.837 0-1.592.53-1.922 1.06-.177-.612-.684-1.06-1.545-1.06-.849 0-1.604.59-1.84.943v-.802h-1.06v5.696h1.06V13.62c.284-.412.838-.825 1.392-.825.72 0 1.003.436 1.003 1.097v3.797h1.06v-4.08c.272-.413.838-.814 1.416-.814.696 0 .99.436.99 1.097v3.797zM26.833 17.689h1.061v-.814a2.338 2.338 0 0 0 1.863.955c1.474 0 2.536-1.12 2.536-2.983 0-1.828-1.05-2.995-2.536-2.995-.743 0-1.415.353-1.863.967V9.823h-1.061v7.866zm1.061-1.628v-2.417c.283-.46.932-.849 1.58-.849 1.062 0 1.722.86 1.722 2.052 0 1.19-.66 2.04-1.722 2.04-.648 0-1.297-.366-1.58-.826zM33.297 14.835c0 1.793 1.25 2.995 2.948 2.995.92 0 1.721-.294 2.287-.849l-.495-.695c-.424.436-1.085.672-1.686.672-1.144 0-1.852-.802-1.934-1.77h4.505v-.258c0-1.746-1.062-3.078-2.772-3.078-1.662 0-2.853 1.332-2.853 2.983zm2.853-2.11c1.203 0 1.71.943 1.734 1.697h-3.479c.059-.778.602-1.698 1.745-1.698zM40.25 17.689h1.06v-3.962c.248-.425.967-.826 1.498-.826.142 0 .26.012.366.036v-1.074c-.755 0-1.427.437-1.864 1.003v-.873h-1.06v5.696zM47.297 17.689h1.18v-3.49h4.02V13.16h-4.02v-2.3h4.104V9.823h-5.284v7.866zM53.85 17.689h2.807c2.453 0 4.08-1.651 4.08-3.927 0-2.264-1.628-3.939-4.08-3.939H53.85v7.866zm1.18-1.038v-5.79h1.627c1.851 0 2.865 1.285 2.865 2.901 0 1.592-1.05 2.89-2.865 2.89h-1.628zM62.165 17.689h1.179V9.823h-1.18v7.866zM68.804 17.83c1.545 0 2.5-.742 3.125-1.662l-1.002-.531a2.493 2.493 0 0 1-2.123 1.144c-1.592 0-2.818-1.262-2.818-3.019 0-1.769 1.226-3.019 2.818-3.019.932 0 1.71.484 2.123 1.144l1.002-.53c-.613-.92-1.58-1.663-3.125-1.663-2.24 0-4.033 1.65-4.033 4.068 0 2.418 1.793 4.068 4.033 4.068zM112.916 17.688h5.283v-1.037h-4.104v-2.453h4.021V13.16h-4.021v-2.3h4.104V9.823h-5.283v7.865zM124.77 19.858v-7.866h-1.061v.814a2.362 2.362 0 0 0-1.875-.955c-1.486 0-2.535 1.12-2.535 2.983 0 1.864 1.049 2.996 2.535 2.996.743 0 1.415-.342 1.875-.967v2.995h1.061zm-1.061-3.809c-.295.448-.943.837-1.58.837-1.062 0-1.722-.86-1.722-2.051 0-1.18.66-2.04 1.722-2.04.637 0 1.285.377 1.58.837v2.417zM130.303 17.688h1.061v-5.695h-1.061v4.091c-.319.425-.92.802-1.58.802-.732 0-1.203-.283-1.203-1.226v-3.668h-1.062v4.022c0 1.203.602 1.816 1.816 1.816.873 0 1.592-.448 2.029-.92v.778zM136.56 17.688h1.061v-3.844c0-1.45-1.05-1.993-2.288-1.993-.92 0-1.698.307-2.335.932l.46.73c.507-.506 1.062-.754 1.71-.754.814 0 1.392.425 1.392 1.132v.944c-.437-.508-1.097-.755-1.864-.755-.955 0-1.981.566-1.981 1.863 0 1.25 1.038 1.887 1.981 1.887.767 0 1.416-.271 1.864-.767v.625zm0-1.25c-.319.425-.873.649-1.463.649-.766 0-1.309-.46-1.309-1.132 0-.672.543-1.132 1.309-1.132.59 0 1.144.224 1.463.648v.967zM139.322 17.688h1.061V9.823h-1.061v7.865zM150.669 17.688h1.179V9.823h-1.179v3.301h-4.352V9.823h-1.179v7.865h1.179v-3.514h4.352v3.514zM156.091 17.83c1.78 0 2.877-1.345 2.877-2.995 0-1.64-1.097-2.984-2.877-2.984-1.769 0-2.878 1.344-2.878 2.983 0 1.651 1.109 2.996 2.878 2.996zm0-.944c-1.132 0-1.769-.967-1.769-2.051 0-1.074.637-2.04 1.769-2.04 1.144 0 1.769.966 1.769 2.04 0 1.084-.625 2.051-1.769 2.051zM164.16 17.688h1.061v-5.695h-1.061v4.091c-.318.425-.92.802-1.58.802-.731 0-1.203-.283-1.203-1.226v-3.668h-1.061v4.022c0 1.203.601 1.816 1.816 1.816.872 0 1.592-.448 2.028-.92v.778zM166.408 16.945c.577.59 1.415.885 2.37.885 1.497 0 2.299-.767 2.299-1.745 0-1.31-1.179-1.58-2.169-1.805-.708-.165-1.321-.33-1.321-.825 0-.46.448-.743 1.167-.743.72 0 1.356.295 1.687.696l.471-.743c-.483-.46-1.191-.814-2.17-.814-1.391 0-2.169.778-2.169 1.686 0 1.227 1.132 1.486 2.099 1.71.731.165 1.379.354 1.379.92 0 .483-.424.814-1.226.814-.767 0-1.521-.39-1.91-.814l-.507.778zM172.938 11.037a.675.675 0 0 0 .684-.672.685.685 0 0 0-.684-.684.692.692 0 0 0-.684.684c0 .377.318.672.684.672zm-.519 6.651h1.061v-5.695h-1.061v5.695zM179.016 17.688h1.061v-3.997c0-1.203-.625-1.84-1.828-1.84-.884 0-1.639.483-2.016.943v-.802h-1.062v5.696h1.062V13.62c.306-.425.908-.826 1.568-.826.731 0 1.215.307 1.215 1.25v3.644zM181.711 19.15c.684.65 1.38.85 2.335.85 1.404 0 2.83-.578 2.83-2.536v-5.471h-1.061v.825c-.46-.613-1.132-.967-1.875-.967-1.474 0-2.535 1.108-2.535 2.936 0 1.864 1.061 2.948 2.535 2.948.767 0 1.439-.412 1.875-.978v.742c0 1.203-.884 1.628-1.769 1.628-.778 0-1.356-.212-1.828-.755l-.507.779zm4.104-3.207c-.295.46-.943.849-1.58.849-1.061 0-1.722-.826-1.722-2.005 0-1.167.661-1.993 1.722-1.993.637 0 1.285.378 1.58.838v2.31zM191.628 17.688h4.753v-1.037h-3.573V9.823h-1.18v7.865zM197.09 14.835c0 1.792 1.25 2.995 2.948 2.995.92 0 1.721-.295 2.287-.85l-.495-.695c-.424.436-1.085.672-1.686.672-1.144 0-1.852-.802-1.934-1.769h4.505v-.26c0-1.745-1.062-3.077-2.772-3.077-1.662 0-2.853 1.332-2.853 2.983zm2.853-2.111c1.203 0 1.71.943 1.734 1.698h-3.479c.059-.779.602-1.698 1.745-1.698zM207.886 17.688h1.062v-3.997c0-1.203-.625-1.84-1.828-1.84-.884 0-1.639.483-2.017.943v-.802h-1.061v5.696h1.061V13.62c.307-.425.908-.826 1.569-.826.731 0 1.214.307 1.214 1.25v3.644zM214.686 17.688h1.061V9.823h-1.061v2.995c-.46-.613-1.132-.967-1.863-.967-1.486 0-2.547 1.167-2.547 2.995 0 1.863 1.061 2.984 2.547 2.984.754 0 1.438-.39 1.863-.955v.813zm0-1.627c-.295.46-.932.825-1.58.825-1.062 0-1.722-.86-1.722-2.04 0-1.19.66-2.052 1.722-2.052.648 0 1.285.378 1.58.838v2.429zM217.093 14.835c0 1.792 1.25 2.995 2.948 2.995.92 0 1.722-.295 2.288-.85l-.495-.695c-.425.436-1.085.672-1.687.672-1.144 0-1.851-.802-1.934-1.769h4.505v-.26c0-1.745-1.061-3.077-2.771-3.077-1.663 0-2.854 1.332-2.854 2.983zm2.854-2.111c1.203 0 1.71.943 1.733 1.698h-3.478c.058-.779.601-1.698 1.745-1.698zM224.046 17.688h1.061v-3.962c.247-.425.967-.826 1.497-.826.142 0 .26.012.366.036v-1.073c-.755 0-1.427.436-1.863 1.002v-.873h-1.061v5.696z" fill="#F8F8F9"/></svg>