<svg width="20" height="18" viewBox="0 0 20 18" fill="none" xmlns="http://www.w3.org/2000/svg">
<path d="M0.5 1.82812V15.2344C0.5 16.244 1.31847 17.0625 2.32812 17.0625H18.1719C19.1815 17.0625 20 16.244 20 15.2344V1.82812C20 0.818467 19.1815 0 18.1719 0H2.32812C1.31847 0 0.5 0.818467 0.5 1.82812ZM9.64062 1.21875V7.92188H1.71875V1.82812C1.71875 1.49156 1.99156 1.21875 2.32812 1.21875H9.64062ZM1.71875 15.2344V9.14062H9.64062V15.8438H2.32812C1.99156 15.8438 1.71875 15.5709 1.71875 15.2344ZM10.8594 15.8438V9.14062H18.7812V15.2344C18.7812 15.5709 18.5084 15.8438 18.1719 15.8438H10.8594ZM18.7812 7.92188H10.8594V1.21875H18.1719C18.5084 1.21875 18.7812 1.49156 18.7812 1.82812V7.92188Z" fill="#6E7079"/>
</svg>
