<svg width="24" height="25" viewBox="0 0 24 25" fill="none" xmlns="http://www.w3.org/2000/svg">
<path d="M21.6155 21.4038L16.7027 16.4909C16.6151 16.4034 16.5008 16.3577 16.3789 16.3577H15.9867C17.293 14.9447 18.0927 13.0596 18.0927 10.984C18.0927 6.60813 14.5471 3.0625 10.1712 3.0625C5.79538 3.0625 2.24976 6.60813 2.24976 10.984C2.24976 15.3598 5.79538 18.9055 10.1712 18.9055C12.2468 18.9055 14.132 18.1057 15.5449 16.8032V17.1917C15.5449 17.3136 15.5944 17.4278 15.6782 17.5154L20.591 22.4283C20.77 22.6072 21.0595 22.6072 21.2385 22.4283L21.6155 22.0512C21.7945 21.8722 21.7945 21.5828 21.6155 21.4038ZM10.1712 17.6868C6.46566 17.6868 3.46845 14.6896 3.46845 10.984C3.46845 7.27841 6.46566 4.28119 10.1712 4.28119C13.8768 4.28119 16.874 7.27841 16.874 10.984C16.874 14.6896 13.8768 17.6868 10.1712 17.6868Z" fill="#252528"/>
</svg>
