<svg width="25" height="24" viewBox="0 0 25 24" fill="none" xmlns="http://www.w3.org/2000/svg">
<path d="M22.609 9.13662L18.906 12.8202C18.7183 13.0078 18.4142 13.0078 18.2265 12.8202L17.9434 12.5371C17.7558 12.3495 17.7558 12.0453 17.9434 11.8576L20.3832 9.43751H2.73022C2.46489 9.43751 2.24976 9.22238 2.24976 8.95704V8.63673C2.24976 8.37139 2.46489 8.15626 2.73022 8.15626H20.3836L17.9434 5.73614C17.7558 5.54852 17.7558 5.2443 17.9434 5.05664L18.2265 4.77356C18.4142 4.58594 18.7183 4.58594 18.906 4.77356L22.609 8.45715C22.7967 8.64478 22.7966 8.94899 22.609 9.13662ZM2.39049 15.5429L6.09351 19.2265C6.28117 19.4141 6.58535 19.4141 6.77301 19.2265L7.05609 18.9434C7.24375 18.7558 7.24375 18.4515 7.05609 18.2639L4.61586 15.8438H22.2693C22.5346 15.8438 22.7498 15.6286 22.7498 15.3633V15.043C22.7498 14.7776 22.5346 14.5625 22.2693 14.5625H4.61634L7.05609 12.1424C7.24375 11.9548 7.24375 11.6505 7.05609 11.4629L6.77297 11.1798C6.58535 10.9922 6.28113 10.9921 6.09351 11.1798L2.39049 14.8634C2.20287 15.051 2.20283 15.3552 2.39049 15.5429Z" fill="#252528"/>
</svg>
