<svg width="24" height="25" viewBox="0 0 24 25" fill="none" xmlns="http://www.w3.org/2000/svg">
<path d="M4.15923 13.0816L4.41173 13.3342C4.57909 13.5015 4.85044 13.5015 5.01784 13.3342L11.3926 6.95938V20.3839C11.3926 20.6206 11.5845 20.8125 11.8212 20.8125H12.1783C12.415 20.8125 12.6069 20.6206 12.6069 20.3839V6.95938L18.9817 13.3341C19.1491 13.5015 19.4204 13.5015 19.5878 13.3341L19.8403 13.0816C20.0077 12.9142 20.0077 12.6429 19.8403 12.4755L12.3028 4.93802C12.1355 4.77066 11.8641 4.77066 11.6967 4.93802L4.15923 12.4756C3.99184 12.6429 3.99184 12.9143 4.15923 13.0816Z" fill="#252528"/>
</svg>
