<svg width="24" height="24" viewBox="0 0 24 24" fill="none" xmlns="http://www.w3.org/2000/svg">
<path d="M21.5978 13.8323L20.2171 13.0352C20.3039 12.3478 20.3039 11.6522 20.2171 10.9648L21.5978 10.1677C22.0032 9.93368 22.1988 9.45212 22.0655 9.00337C21.5907 7.40512 20.7455 5.96649 19.6295 4.78664C19.3063 4.44496 18.7905 4.37019 18.3832 4.60534L17.0045 5.40123C16.4531 4.98155 15.8508 4.63331 15.2119 4.36477V2.77224C15.2119 2.30101 14.888 1.89143 14.4294 1.78291C12.8356 1.40572 11.1643 1.40567 9.57014 1.78291C9.11157 1.89143 8.78755 2.30097 8.78755 2.77224V4.36477C8.14871 4.6333 7.5464 4.98154 6.99497 5.40123L5.61633 4.60534C5.20899 4.37019 4.69318 4.44496 4.37 4.78664C3.25395 5.96649 2.40883 7.40516 1.93404 9.00337C1.80072 9.45212 1.99628 9.93363 2.40172 10.1677L3.78238 10.9648C3.69559 11.6522 3.69559 12.3478 3.78238 13.0352L2.40172 13.8323C1.99628 14.0663 1.80072 14.5479 1.93404 14.9966C2.40883 16.5948 3.25395 18.0335 4.37 19.2134C4.69322 19.555 5.20903 19.6298 5.61633 19.3947L6.99497 18.5988C7.5464 19.0185 8.14871 19.3667 8.78755 19.6352V21.2278C8.78755 21.699 9.11152 22.1086 9.57014 22.2171C11.164 22.5943 12.8352 22.5943 14.4294 22.2171C14.8879 22.1086 15.2119 21.699 15.2119 21.2278V19.6352C15.8508 19.3667 16.4531 19.0185 17.0045 18.5988L18.3832 19.3947C18.7905 19.6298 19.3063 19.5551 19.6295 19.2134C20.7455 18.0335 21.5907 16.5948 22.0655 14.9966C22.1988 14.5479 22.0032 14.0664 21.5978 13.8323ZM18.8255 18.0857L16.8648 16.9535C15.7222 17.9303 15.3169 18.1761 13.8571 18.6919V20.9562C12.6318 21.2089 11.3677 21.2089 10.1424 20.9562V18.6919C8.71892 18.189 8.30679 17.9554 7.13468 16.9535L5.17402 18.0857C4.33952 17.1504 3.70533 16.0539 3.31412 14.8697L5.27563 13.7376C4.99895 12.238 4.99882 11.7627 5.27563 10.2624L3.31412 9.1303C3.70533 7.94613 4.33956 6.84955 5.17402 5.91386L7.13468 7.04685C8.29379 6.05468 8.70389 5.81627 10.1424 5.30804V3.04385C11.3677 2.79066 12.6318 2.79066 13.8571 3.04385V5.30808C15.2957 5.81636 15.7058 6.05481 16.8648 7.04689L18.8255 5.91391C19.6599 6.84955 20.2942 7.94613 20.6854 9.13034L18.7239 10.2625C19.0006 11.7624 19.0007 12.2373 18.7239 13.7376L20.6854 14.8697C20.2942 16.0539 19.66 17.1504 18.8255 18.0857ZM11.9997 7.9355C9.75854 7.9355 7.93522 9.75882 7.93522 12C7.93522 14.2412 9.75854 16.0645 11.9997 16.0645C14.241 16.0645 16.0643 14.2412 16.0643 12C16.0643 9.75882 14.241 7.9355 11.9997 7.9355ZM11.9997 14.7097C10.5056 14.7097 9.29007 13.4942 9.29007 12C9.29007 10.5059 10.5056 9.29034 11.9997 9.29034C13.4939 9.29034 14.7094 10.5059 14.7094 12C14.7094 13.4942 13.4939 14.7097 11.9997 14.7097Z" fill="#252528"/>
</svg>
