<svg width="24" height="24" viewBox="0 0 24 24" fill="none" xmlns="http://www.w3.org/2000/svg">
<path d="M11.9998 10.625C12.8294 10.625 13.4998 11.2953 13.4998 12.125C13.4998 12.9547 12.8294 13.625 11.9998 13.625C11.1701 13.625 10.4998 12.9547 10.4998 12.125C10.4998 11.2953 11.1701 10.625 11.9998 10.625ZM10.4998 6.5C10.4998 7.32969 11.1701 8 11.9998 8C12.8294 8 13.4998 7.32969 13.4998 6.5C13.4998 5.67031 12.8294 5 11.9998 5C11.1701 5 10.4998 5.67031 10.4998 6.5ZM10.4998 17.75C10.4998 18.5797 11.1701 19.25 11.9998 19.25C12.8294 19.25 13.4998 18.5797 13.4998 17.75C13.4998 16.9203 12.8294 16.25 11.9998 16.25C11.1701 16.25 10.4998 16.9203 10.4998 17.75Z" fill="black"/>
</svg>
