<svg width="24" height="25" viewBox="0 0 24 25" fill="none" xmlns="http://www.w3.org/2000/svg">
<path d="M11.9998 3.74219C16.9809 3.74219 21.0701 7.77659 21.0701 12.8125C21.0701 17.8218 17.0132 21.8828 11.9998 21.8828C6.99244 21.8828 2.92944 17.828 2.92944 12.8125C2.92944 7.80691 6.98597 3.74219 11.9998 3.74219ZM11.9998 2.39844C6.24863 2.39844 1.58569 7.06306 1.58569 12.8125C1.58569 18.5653 6.24863 23.2266 11.9998 23.2266C17.7509 23.2266 22.4138 18.5653 22.4138 12.8125C22.4138 7.06306 17.7509 2.39844 11.9998 2.39844ZM10.488 16.8438H10.9919V11.8047H10.488C10.2098 11.8047 9.98413 11.5791 9.98413 11.3008V10.9648C9.98413 10.6866 10.2098 10.4609 10.488 10.4609H12.5037C12.7819 10.4609 13.0076 10.6866 13.0076 10.9648V16.8438H13.5115C13.7898 16.8438 14.0154 17.0694 14.0154 17.3477V17.6836C14.0154 17.9619 13.7898 18.1875 13.5115 18.1875H10.488C10.2098 18.1875 9.98413 17.9619 9.98413 17.6836V17.3477C9.98413 17.0694 10.2098 16.8438 10.488 16.8438ZM11.9998 6.76562C11.2576 6.76562 10.656 7.36725 10.656 8.10938C10.656 8.8515 11.2576 9.45312 11.9998 9.45312C12.7419 9.45312 13.3435 8.8515 13.3435 8.10938C13.3435 7.36725 12.7419 6.76562 11.9998 6.76562Z" fill="#252528"/>
</svg>
