<svg width="24" height="24" viewBox="0 0 24 24" fill="none" xmlns="http://www.w3.org/2000/svg">
<path d="M11.9998 2C6.47689 2 1.99976 6.47714 1.99976 12C1.99976 17.5229 6.47689 22 11.9998 22C17.5226 22 21.9998 17.5229 21.9998 12C21.9998 6.47714 17.5226 2 11.9998 2ZM11.9998 20.7097C7.21496 20.7097 3.29008 16.8365 3.29008 12C3.29008 7.2152 7.16326 3.29032 11.9998 3.29032C16.7846 3.29032 20.7094 7.16351 20.7094 12C20.7094 16.7848 16.8362 20.7097 11.9998 20.7097ZM17.6329 8.62593C17.7147 8.97274 17.5 9.3202 17.1532 9.4021C15.9029 9.6973 14.7356 9.95754 13.577 10.0922C13.5986 14.7233 14.1079 15.7369 14.676 17.1904C14.8381 17.6053 14.6331 18.073 14.2183 18.235C13.8031 18.3972 13.3356 18.1919 13.1737 17.7773C12.7979 16.8159 12.4256 15.9803 12.195 14.258H11.8045C11.5735 15.9827 11.2002 16.8191 10.8258 17.7772C10.6636 18.1925 10.1955 18.3969 9.78125 18.235C9.36637 18.0729 9.16145 17.6053 9.32347 17.1904C9.89213 15.7354 10.4009 14.7212 10.4225 10.0922C9.26383 9.95754 8.09653 9.6973 6.84629 9.4021C6.49951 9.3202 6.28476 8.97274 6.36665 8.62593C6.44851 8.27915 6.79597 8.06439 7.14282 8.14625C11.3856 9.14806 12.6057 9.15 16.8567 8.14625C17.2034 8.06472 17.551 8.27919 17.6329 8.62593ZM10.4597 6.91153C10.4597 6.06097 11.1492 5.37149 11.9998 5.37149C12.8503 5.37149 13.5398 6.06101 13.5398 6.91153C13.5398 7.76206 12.8503 8.45161 11.9998 8.45161C11.1492 8.45161 10.4597 7.7621 10.4597 6.91153Z" fill="#252528"/>
</svg>
