<svg width="73" height="67" viewBox="0 0 73 67" fill="none"
  xmlns="http://www.w3.org/2000/svg">
  <path d="M72.021 64.3337L60.8294 38.242L58.9186 41.066L68.5221 63.4889H54.0052C53.5337 61.6304 51.4741 56.4169 43.2851 55.0894C42.4414 54.9446 41.2254 54.8239 39.811 54.7032C36.0142 54.3411 27.0808 53.4964 26.2123 51.2517C25.8649 50.3827 26.2867 49.6828 27.3041 48.3311C28.3216 46.9795 29.8105 44.952 28.3464 42.5142C27.5523 41.2349 26.0386 40.5591 24.5496 39.9557C22.6389 39.1592 21.5966 38.604 21.1996 37.6386H43.434C43.6077 37.6386 43.7814 37.6144 43.9551 37.542L42.3421 34.8629H14.1521C13.5814 34.8629 13.0602 35.2008 12.8369 35.7076L0.28043 64.3337C-0.0173518 65.0337 0.305245 65.8543 1.02488 66.144C1.19859 66.2164 1.39711 66.2647 1.59563 66.2647H70.7306C71.5247 66.2647 72.1699 65.6371 72.1699 64.8647C72.1203 64.6716 72.0955 64.5027 72.021 64.3337ZM3.72974 63.5131L15.0951 37.6627H18.2218C18.7429 40.5108 21.3981 41.6453 23.3833 42.5142C24.3015 42.8038 25.1204 43.2866 25.7904 43.9382C26.2619 44.7106 26.0137 45.2175 24.8971 46.714C23.9541 48.0415 22.5644 49.8759 23.4578 52.2413C24.8474 55.8135 31.8205 56.7548 39.4636 57.4789C40.8284 57.5996 41.9947 57.7203 42.7392 57.841C48.4218 58.7582 50.3326 61.8959 50.953 63.5131H3.72974Z" fill="#AEAFB9"/>
  <path d="M60.0834 17.4847C60.0834 13.4056 56.6837 10.0989 52.4899 10.0989C48.2962 10.0989 44.8965 13.4056 44.8965 17.4847C44.8965 21.5638 48.2962 24.8705 52.4899 24.8705C56.6837 24.8705 60.0834 21.5638 60.0834 17.4847ZM47.7502 17.4847C47.7502 14.9262 49.8843 12.8746 52.4899 12.8746C55.0955 12.8746 57.2296 14.9504 57.2296 17.4847C57.2296 20.0432 55.0955 22.0948 52.4899 22.0948C49.8595 22.1189 47.7502 20.0432 47.7502 17.4847Z" fill="#F20000"/>
  <path d="M39.8598 26.2939C39.8101 26.1732 39.7357 26.0766 39.6861 25.9801H39.6612C38.1475 23.7112 37.3534 21.0562 37.3782 18.3288C37.4031 10.2188 44.1776 3.65365 52.5155 3.67779C60.8534 3.67779 67.6031 10.2188 67.6031 18.3288C67.6031 18.3288 67.6031 18.3529 67.6031 18.377C67.6031 21.0321 66.8835 23.6388 65.196 27.0662V27.1628L52.2177 46.5928L39.8598 26.2939ZM60.7045 38.8691L67.6776 28.4179C67.752 28.2972 67.8265 28.1524 67.8513 27.9834C69.4394 25.0146 70.308 21.7079 70.4072 18.3529C70.4072 8.72235 62.4167 0.902066 52.5155 0.87793C42.6142 0.87793 34.5741 8.67408 34.5493 18.3046C34.5245 21.4665 35.4427 24.5802 37.1797 27.2593C37.2045 27.3076 37.2294 27.38 37.279 27.4042L42.1924 35.4658L43.8054 38.145L50.9521 49.8513C51.2003 50.2616 51.6718 50.5271 52.1433 50.5271C52.6148 50.5271 53.0862 50.2857 53.3344 49.8995L58.8434 41.6448L60.7045 38.8691Z" fill="#F20000"/>
</svg>