<svg width="86" height="65" viewBox="0 0 86 65" fill="none"
  xmlns="http://www.w3.org/2000/svg">
  <path fill-rule="evenodd" clip-rule="evenodd" d="M42.0482 10.8376L76.7316 2.88715L78.7326 10.8376H81.5339L79.1328 1.06245C78.9994 0.410767 78.199 -0.110577 77.532 0.150095L74.0637 0.93211L71.3957 1.58379L44.1825 7.70958L34.1777 9.92529L30.4426 10.8376H42.0482ZM0.0273438 17.7437L2.6953 17.092V19.8291L0.0273438 20.3504V17.7437ZM0.0273438 25.4334L2.6953 36.6423V48.1119L0.0273438 36.903V25.4334ZM8.56401 61.3721L45.115 53.3163V53.1904H56.854L51.2513 54.4491L41.2465 56.589L14.0333 62.6308L11.3654 63.2601L7.89702 64.0154C7.23003 64.2671 6.42964 63.7636 6.29624 63.1343L3.89508 53.3163H6.56304L8.56401 61.3721ZM82.7355 47.0691L85.4035 46.4174V43.8107L82.7355 44.332V47.0691ZM82.7355 27.6487V16.0488L85.4035 27.2577V38.7273L82.7355 27.6487Z" fill="#AEAFB9"/>
  <path fill-rule="evenodd" clip-rule="evenodd" d="M45.9162 55.541H84.068C84.8684 55.541 85.402 55.0197 85.402 54.2376V9.92342C85.402 9.1414 84.8684 8.62006 84.068 8.62006H80.4663H77.6649H49.7847H39.5131H1.36132C0.560935 8.62006 0.0273438 9.1414 0.0273438 9.92342V54.2376C0.0273438 55.0197 0.560935 55.541 1.36132 55.541H4.96306H7.76442H35.6446H45.9162ZM82.734 52.9343H2.6953V11.2268H82.734V52.9343ZM9.36614 28.1705H21.372C22.1723 28.1705 22.7059 27.6492 22.7059 26.8672V17.7436C22.7059 16.9616 22.1723 16.4403 21.372 16.4403H9.36614C8.56576 16.4403 8.03217 16.9616 8.03217 17.7436V26.8672C8.03217 27.6492 8.56576 28.1705 9.36614 28.1705ZM10.7001 19.047H20.038V25.5638H10.7001V19.047ZM30.7098 38.5975H9.36614C8.56576 38.5975 8.03217 38.0761 8.03217 37.2941C8.03217 36.5121 8.56576 35.9908 9.36614 35.9908H30.7098C31.5102 35.9908 32.0438 36.5121 32.0438 37.2941C32.0438 38.0761 31.5102 38.5975 30.7098 38.5975ZM9.36614 46.4174H73.3971C74.1975 46.4174 74.7311 45.8961 74.7311 45.1141C74.7311 44.332 74.1975 43.8107 73.3971 43.8107H9.36614C8.56576 43.8107 8.03217 44.332 8.03217 45.1141C8.03217 45.8961 8.56576 46.4174 9.36614 46.4174ZM74.7299 24.2604C74.7299 28.5615 71.1281 32.0806 66.726 32.0806C62.3238 32.0806 58.7221 28.5615 58.7221 24.2604C58.7221 19.9593 62.3238 16.4403 66.726 16.4403C71.1281 16.4403 74.7299 19.9593 74.7299 24.2604ZM72.0619 24.2604C72.0619 21.393 69.6607 19.047 66.726 19.047C63.7912 19.047 61.3901 21.393 61.3901 24.2604C61.3901 27.1278 63.7912 29.4739 66.726 29.4739C69.6607 29.4739 72.0619 27.1278 72.0619 24.2604Z" fill="#F20000"/>
</svg>
