<svg width="75" height="69" viewBox="0 0 75 69" fill="none"
  xmlns="http://www.w3.org/2000/svg">
  <path d="M14.7043 51.0267V51.7389C14.7043 51.8958 14.7666 52.0463 14.8776 52.1572C14.9885 52.2681 15.139 52.3305 15.2959 52.3305C15.4528 52.3305 15.6032 52.2681 15.7142 52.1572C15.8251 52.0463 15.8875 51.8958 15.8875 51.7389V51.0267C17.6105 50.8601 18.4835 49.9469 18.4835 48.5455C18.4835 45.3693 13.8428 46.1447 13.8428 44.4791C13.8428 43.9679 14.2391 43.474 15.2901 43.474C15.9468 43.4674 16.5821 43.7071 17.0706 44.146C17.2178 44.3115 17.424 44.4126 17.645 44.4274C17.8242 44.4214 17.994 44.3452 18.1175 44.2152C18.2411 44.0852 18.3086 43.9118 18.3055 43.7324C18.3046 43.587 18.2606 43.4451 18.1791 43.3247C17.8943 42.9872 17.5437 42.7113 17.1487 42.5138C16.7537 42.3163 16.3226 42.2013 15.8817 42.176V41.4695C15.8817 41.3126 15.8194 41.1621 15.7084 41.0512C15.5975 40.9403 15.447 40.8779 15.2901 40.8779C15.1332 40.8779 14.9828 40.9403 14.8718 41.0512C14.7609 41.1621 14.6986 41.3126 14.6986 41.4695V42.1932C13.0731 42.3712 12.361 43.3419 12.361 44.4906C12.361 47.5519 17.0017 46.7018 17.0017 48.557C17.0017 49.3438 16.4273 49.7057 15.2786 49.7057C14.8839 49.6943 14.4956 49.6029 14.1372 49.4371C13.7789 49.2712 13.4579 49.0343 13.1938 48.7408C13.1248 48.6543 13.0376 48.5841 12.9382 48.5355C12.8389 48.4868 12.73 48.4608 12.6194 48.4594C12.4979 48.4603 12.3789 48.4937 12.2745 48.5559C12.1702 48.6182 12.0844 48.7072 12.0259 48.8137C11.9674 48.9202 11.9383 49.0403 11.9417 49.1618C11.945 49.2832 11.9807 49.4016 12.0451 49.5047C12.3514 49.9361 12.7479 50.2957 13.2071 50.5585C13.6663 50.8213 14.1772 50.9811 14.7043 51.0267Z" fill="#F20000"/>
  <path d="M15.2249 56.3681C17.156 56.3681 19.0438 55.7955 20.6494 54.7226C22.2551 53.6497 23.5066 52.1248 24.2456 50.3407C24.9846 48.5565 25.178 46.5933 24.8012 44.6993C24.4245 42.8053 23.4946 41.0655 22.129 39.7C20.7635 38.3345 19.0238 37.4046 17.1297 37.0278C15.2357 36.6511 13.2725 36.8444 11.4884 37.5834C9.70426 38.3225 8.17934 39.5739 7.10646 41.1796C6.03358 42.7853 5.46094 44.673 5.46094 46.6042C5.46094 49.1937 6.48964 51.6772 8.32073 53.5083C10.1518 55.3394 12.6353 56.3681 15.2249 56.3681ZM15.2249 39.1376C16.7016 39.1376 18.1452 39.5755 19.3731 40.396C20.6009 41.2164 21.558 42.3825 22.1231 43.7468C22.6882 45.1112 22.8361 46.6124 22.548 48.0608C22.2599 49.5092 21.5487 50.8396 20.5045 51.8838C19.4603 52.928 18.1299 53.6391 16.6815 53.9272C15.2332 54.2153 13.7319 54.0675 12.3676 53.5024C11.0032 52.9372 9.83711 51.9802 9.01668 50.7524C8.19624 49.5245 7.75834 48.0809 7.75834 46.6042C7.75834 44.6239 8.54499 42.7248 9.94524 41.3245C11.3455 39.9243 13.2446 39.1376 15.2249 39.1376Z" fill="#F20000"/>
  <path d="M37.1027 33.7957V34.5079C37.1027 34.6648 37.1651 34.8153 37.276 34.9262C37.387 35.0372 37.5374 35.0995 37.6943 35.0995C37.8512 35.0995 38.0017 35.0372 38.1126 34.9262C38.2236 34.8153 38.2859 34.6648 38.2859 34.5079V33.7957C40.0089 33.6292 40.882 32.716 40.882 31.3145C40.882 28.1384 36.2412 28.9138 36.2412 27.2481C36.2412 26.737 36.6375 26.243 37.6886 26.243C38.3452 26.2364 38.9805 26.4762 39.4691 26.915C39.6162 27.0805 39.8225 27.1816 40.0434 27.1965C40.2227 27.1905 40.3924 27.1142 40.516 26.9842C40.6395 26.8542 40.707 26.6808 40.7039 26.5015C40.7031 26.3561 40.6591 26.2141 40.5776 26.0937C40.2927 25.7562 39.9421 25.4803 39.5471 25.2828C39.1521 25.0853 38.721 24.9704 38.2802 24.945V24.2386C38.2802 24.0817 38.2178 23.9312 38.1069 23.8202C37.9959 23.7093 37.8455 23.647 37.6886 23.647C37.5317 23.647 37.3812 23.7093 37.2703 23.8202C37.1593 23.9312 37.097 24.0817 37.097 24.2386V24.9622C35.4716 25.1403 34.7594 26.1109 34.7594 27.2596C34.7594 30.3209 39.4001 29.4709 39.4001 31.326C39.4001 32.1129 38.8258 32.4747 37.6771 32.4747C37.2824 32.4634 36.894 32.372 36.5357 32.2061C36.1773 32.0403 35.8563 31.8034 35.5922 31.5098C35.5233 31.4233 35.436 31.3532 35.3367 31.3045C35.2374 31.2558 35.1285 31.2298 35.0178 31.2284C34.8963 31.2294 34.7773 31.2627 34.673 31.325C34.5687 31.3873 34.4828 31.4762 34.4243 31.5827C34.3658 31.6892 34.3367 31.8094 34.3401 31.9308C34.3435 32.0523 34.3792 32.1706 34.4435 32.2737C34.7498 32.7051 35.1463 33.0647 35.6055 33.3275C36.0647 33.5903 36.5756 33.7501 37.1027 33.7957Z" fill="#F20000"/>
  <path d="M37.6272 39.1375C39.5584 39.1375 41.4461 38.5649 43.0518 37.492C44.6575 36.4191 45.9089 34.8942 46.6479 33.1101C47.387 31.3259 47.5803 29.3627 47.2036 27.4687C46.8268 25.5747 45.8969 23.8349 44.5314 22.4694C43.1659 21.1039 41.4261 20.174 39.5321 19.7972C37.6381 19.4205 35.6749 19.6139 33.8907 20.3529C32.1066 21.0919 30.5817 22.3433 29.5088 23.949C28.4359 25.5547 27.8633 27.4424 27.8633 29.3736C27.8633 31.9631 28.892 34.4466 30.7231 36.2777C32.5542 38.1088 35.0377 39.1375 37.6272 39.1375ZM37.6272 21.907C39.104 21.907 40.5476 22.3449 41.7754 23.1654C43.0033 23.9858 43.9603 25.1519 44.5254 26.5162C45.0906 27.8806 45.2384 29.3819 44.9503 30.8302C44.6622 32.2786 43.9511 33.609 42.9069 34.6532C41.8627 35.6974 40.5322 36.4086 39.0839 36.6967C37.6355 36.9848 36.1342 36.8369 34.7699 36.2718C33.4056 35.7066 32.2395 34.7496 31.419 33.5218C30.5986 32.2939 30.1607 30.8503 30.1607 29.3736C30.1607 27.3933 30.9473 25.4942 32.3476 24.0939C33.7478 22.6937 35.647 21.907 37.6272 21.907Z" fill="#F20000"/>
  <path d="M59.5012 14.2679V14.9801C59.5012 15.137 59.5635 15.2875 59.6744 15.3984C59.7854 15.5094 59.9359 15.5717 60.0928 15.5717C60.2497 15.5717 60.4001 15.5094 60.5111 15.3984C60.622 15.2875 60.6843 15.137 60.6843 14.9801V14.2679C62.4074 14.1013 63.2804 13.1881 63.2804 11.7867C63.2804 8.61056 58.6396 9.38593 58.6396 7.72032C58.6396 7.20914 59.036 6.7152 60.087 6.7152C60.7437 6.70858 61.379 6.94835 61.8675 7.38719C62.0146 7.5527 62.2209 7.65377 62.4418 7.66862C62.6211 7.66262 62.7908 7.58639 62.9144 7.45638C63.038 7.32637 63.1055 7.153 63.1023 6.97366C63.1015 6.82822 63.0575 6.68631 62.976 6.56587C62.6912 6.22839 62.3405 5.95249 61.9456 5.755C61.5506 5.5575 61.1195 5.44255 60.6786 5.41717V4.71072C60.6786 4.55382 60.6163 4.40335 60.5053 4.29241C60.3944 4.18147 60.2439 4.11914 60.087 4.11914C59.9301 4.11914 59.7796 4.18147 59.6687 4.29241C59.5578 4.40335 59.4954 4.55382 59.4954 4.71072V5.4344C57.87 5.61245 57.1578 6.5831 57.1578 7.7318C57.1578 10.7931 61.7986 9.94305 61.7986 11.7982C61.7986 12.5851 61.2242 12.9469 60.0755 12.9469C59.6808 12.9355 59.2925 12.8441 58.9341 12.6783C58.5757 12.5124 58.2548 12.2755 57.9906 11.982C57.9217 11.8955 57.8344 11.8253 57.7351 11.7767C57.6358 11.728 57.5269 11.702 57.4163 11.7006C57.2948 11.7015 57.1757 11.7349 57.0714 11.7972C56.9671 11.8594 56.8813 11.9484 56.8227 12.0549C56.7642 12.1614 56.7352 12.2815 56.7385 12.403C56.7419 12.5244 56.7776 12.6428 56.8419 12.7459C57.1483 13.1773 57.5448 13.5369 58.004 13.7997C58.4632 14.0625 58.974 14.2223 59.5012 14.2679Z" fill="#F20000"/>
  <path d="M60.0257 19.6094C61.9568 19.6094 63.8446 19.0368 65.4502 17.9639C67.0559 16.891 68.3074 15.3661 69.0464 13.582C69.7854 11.7979 69.9788 9.83467 69.602 7.94064C69.2253 6.04662 68.2953 4.30685 66.9298 2.94134C65.5643 1.57583 63.8245 0.645903 61.9305 0.269159C60.0365 -0.107585 58.0733 0.0857735 56.2892 0.824784C54.505 1.56379 52.9801 2.81526 51.9072 4.42094C50.8344 6.02661 50.2617 7.91437 50.2617 9.8455C50.2617 12.4351 51.2904 14.9186 53.1215 16.7497C54.9526 18.5807 57.4361 19.6094 60.0257 19.6094ZM60.0257 2.37895C61.5024 2.37895 62.946 2.81685 64.1739 3.63729C65.4017 4.45772 66.3587 5.62384 66.9239 6.98817C67.489 8.35251 67.6368 9.85378 67.3487 11.3021C67.0607 12.7505 66.3495 14.0809 65.3053 15.1251C64.2611 16.1694 62.9307 16.8805 61.4823 17.1686C60.0339 17.4567 58.5327 17.3088 57.1683 16.7437C55.804 16.1786 54.6379 15.2216 53.8175 13.9937C52.997 12.7658 52.5591 11.3222 52.5591 9.8455C52.5591 7.86525 53.3458 5.9661 54.746 4.56585C56.1463 3.1656 58.0454 2.37895 60.0257 2.37895Z" fill="#F20000"/>
  <path d="M73.2353 8.69672C72.9306 8.69672 72.6385 8.81774 72.423 9.03316C72.2076 9.24859 72.0866 9.54076 72.0866 9.84542C72.0866 13.0443 70.8158 16.1121 68.5539 18.3741C66.292 20.636 63.2241 21.9068 60.0252 21.9068C56.8264 21.9068 53.7585 20.636 51.4966 18.3741C49.2346 16.1121 47.9639 13.0443 47.9639 9.84542C47.9639 9.54076 47.8429 9.24859 47.6274 9.03316C47.412 8.81774 47.1198 8.69672 46.8152 8.69672C46.5105 8.69672 46.2184 8.81774 46.0029 9.03316C45.7875 9.24859 45.6665 9.54076 45.6665 9.84542C45.6679 13.4538 47.0278 16.9293 49.4757 19.5804C51.9235 22.2315 55.2797 23.8638 58.8765 24.1525C58.8765 24.1525 58.8765 24.1869 58.8765 24.2042V66.5438H38.7743V43.7321C38.7743 43.7321 38.7743 43.6976 38.7743 43.6804C42.3711 43.3917 45.7273 41.7594 48.1751 39.1083C50.623 36.4572 51.9829 32.9817 51.9843 29.3733C51.9843 29.0687 51.8633 28.7765 51.6479 28.5611C51.4325 28.3456 51.1403 28.2246 50.8356 28.2246C50.531 28.2246 50.2388 28.3456 50.0234 28.5611C49.808 28.7765 49.6869 29.0687 49.6869 29.3733C49.6869 32.5722 48.4162 35.64 46.1542 37.902C43.8923 40.1639 40.8245 41.4347 37.6256 41.4347C34.4267 41.4347 31.3589 40.1639 29.0969 37.902C26.835 35.64 25.5642 32.5722 25.5642 29.3733C25.5642 29.0687 25.4432 28.7765 25.2278 28.5611C25.0124 28.3456 24.7202 28.2246 24.4155 28.2246C24.1109 28.2246 23.8187 28.3456 23.6033 28.5611C23.3879 28.7765 23.2668 29.0687 23.2668 29.3733C23.2683 32.9817 24.6282 36.4572 27.076 39.1083C29.5239 41.7594 32.8801 43.3917 36.4769 43.6804V43.7321V66.5438H16.3746V60.9626C16.3746 60.9626 16.3746 60.9281 16.3746 60.9109C19.9714 60.6222 23.3277 58.9899 25.7755 56.3388C28.2233 53.6877 29.5833 50.2122 29.5847 46.6038C29.5847 46.2992 29.4637 46.007 29.2482 45.7916C29.0328 45.5761 28.7406 45.4551 28.436 45.4551C28.1313 45.4551 27.8392 45.5761 27.6237 45.7916C27.4083 46.007 27.2873 46.2992 27.2873 46.6038C27.2873 49.8027 26.0165 52.8705 23.7546 55.1325C21.4927 57.3944 18.4248 58.6652 15.2259 58.6652C12.0271 58.6652 8.95922 57.3944 6.69727 55.1325C4.43533 52.8705 3.16459 49.8027 3.16459 46.6038C3.16459 46.2992 3.04356 46.007 2.82814 45.7916C2.61272 45.5761 2.32054 45.4551 2.01589 45.4551C1.71123 45.4551 1.41906 45.5761 1.20363 45.7916C0.988211 46.007 0.867188 46.2992 0.867188 46.6038C0.868612 50.2122 2.22855 53.6877 4.67638 56.3388C7.1242 58.9899 10.4805 60.6222 14.0772 60.9109C14.0772 60.9109 14.0772 60.9453 14.0772 60.9626V66.5438H7.75939C7.45473 66.5438 7.16256 66.6648 6.94713 66.8803C6.73171 67.0957 6.61069 67.3879 6.61069 67.6925C6.61069 67.9972 6.73171 68.2894 6.94713 68.5048C7.16256 68.7202 7.45473 68.8412 7.75939 68.8412H67.4918C67.7964 68.8412 68.0886 68.7202 68.304 68.5048C68.5195 68.2894 68.6405 67.9972 68.6405 67.6925C68.6405 67.3879 68.5195 67.0957 68.304 66.8803C68.0886 66.6648 67.7964 66.5438 67.4918 66.5438H61.1739V24.2042C61.1739 24.2042 61.1739 24.1697 61.1739 24.1525C64.7707 23.8638 68.127 22.2315 70.5748 19.5804C73.0226 16.9293 74.3826 13.4538 74.384 9.84542C74.384 9.54076 74.263 9.24859 74.0475 9.03316C73.8321 8.81774 73.5399 8.69672 73.2353 8.69672Z" fill="#AEAFB9"/>
</svg>
