<svg width="20" height="19" viewBox="0 0 20 19" fill="none" xmlns="http://www.w3.org/2000/svg">
<path d="M10 0.09375C4.80506 0.09375 0.59375 4.30506 0.59375 9.5C0.59375 14.6949 4.80506 18.9062 10 18.9062C15.1949 18.9062 19.4062 14.6949 19.4062 9.5C19.4062 4.30506 15.1949 0.09375 10 0.09375ZM10 17.6925C5.49926 17.6925 1.80746 14.0493 1.80746 9.5C1.80746 4.9993 5.45068 1.30746 10 1.30746C14.5007 1.30746 18.1925 4.95068 18.1925 9.5C18.1925 14.0007 14.5493 17.6925 10 17.6925ZM15.3718 7.2637L8.52648 14.0541C8.34803 14.2311 8.05985 14.23 7.88283 14.0515L4.62562 10.768C4.44861 10.5895 4.44974 10.3014 4.6282 10.1243L4.95135 9.80381C5.1298 9.62679 5.41798 9.62793 5.59499 9.80639L8.21114 12.4437L14.4102 6.29433C14.5887 6.11732 14.8768 6.11845 15.0538 6.29691L15.3744 6.62006C15.5514 6.79851 15.5503 7.08669 15.3718 7.2637Z" fill="#252528"/>
</svg>
